<?xml version="1.0" encoding="UTF-8" standalone="no"?>
<svg
   xmlns:dc="http://purl.org/dc/elements/1.1/"
   xmlns:cc="http://creativecommons.org/ns#"
   xmlns:rdf="http://www.w3.org/1999/02/22-rdf-syntax-ns#"
   xmlns:svg="http://www.w3.org/2000/svg"
   xmlns="http://www.w3.org/2000/svg"
   version="1.0"
   width="128"
   height="128"
   id="svg2">
  <metadata
     id="metadata10">
    <rdf:RDF>
      <cc:Work
         rdf:about="">
        <dc:format>image/svg+xml</dc:format>
        <dc:type
           rdf:resource="http://purl.org/dc/dcmitype/StillImage" />
        <cc:license
           rdf:resource="http://web.resource.org/cc/PublicDomain" />
        <dc:language>en</dc:language>
        <dc:title></dc:title>
      </cc:Work>
    </rdf:RDF>
  </metadata>
  <defs
     id="defs4">
    <style
       type="text/css"
       id="style6">
   
    .fil0 {fill:#EF7900}
   
  </style>
    <marker
       viewBox="0 0 10 10"
       refY="5"
       refX="10"
       orient="auto"
       markerWidth="4"
       markerUnits="strokeWidth"
       markerHeight="3"
       id="ArrowStart">
      <path
         id="path2295"
         d="M 10,0 0,5 10,10 Z" />
    </marker>
    <marker
       viewBox="0 0 10 10"
       refY="5"
       refX="0"
       orient="auto"
       markerWidth="4"
       markerUnits="strokeWidth"
       markerHeight="3"
       id="ArrowEnd">
      <path
         id="path2292"
         d="M 0,0 10,5 0,10 Z" />
    </marker>
    <marker
       viewBox="0 0 10 10"
       refY="5"
       refX="10"
       orient="auto"
       markerWidth="4"
       markerUnits="strokeWidth"
       markerHeight="3"
       id="marker8025">
      <path
         id="path8027"
         d="M 10,0 0,5 10,10 Z" />
    </marker>
    <marker
       viewBox="0 0 10 10"
       refY="5"
       refX="0"
       orient="auto"
       markerWidth="4"
       markerUnits="strokeWidth"
       markerHeight="3"
       id="marker8021">
      <path
         id="path8023"
         d="M 0,0 10,5 0,10 Z" />
    </marker>
  </defs>
  <path
     id="path828"
     d="m 21.520314,1.52046 h 84.959376 c 11.11992,0 19.99985,8.87994 19.99985,19.99986 v 84.95937 c 0,11.11992 -8.87993,19.99985 -19.99985,19.99985 H 21.520314 c -11.119918,0 -19.999852,-8.87993 -19.999852,-19.99985 V 21.52032 c 0,-11.11992 8.879934,-19.99986 19.999852,-19.99986 z"
     style="fill:#971583;fill-opacity:1;fill-rule:evenodd;stroke:#ffffff;stroke-width:3.03997755px;stroke-linecap:butt;stroke-linejoin:miter;stroke-miterlimit:4;stroke-dasharray:none;stroke-opacity:1" />
  <g
     id="g2319"
     transform="translate(879.29125,-415.19488)">
    <path
       id="path2323"
       style="fill:#ffffff;stroke:none"
       d="" />
  </g>
  <g
     id="g2325"
     transform="translate(879.29125,-415.19488)">
    <path
       id="path2329"
       style="fill:#ffffff;stroke:none"
       d="" />
  </g>
  <g
     style="fill:#ffffff;fill-opacity:1"
     transform="matrix(0.18554687,0,0,0.18554687,14.582331,29.724521)"
     id="g6">
    <g
       transform="translate(1.2875599e-6,2.5621116e-6)"
       style="fill:#ffffff;fill-opacity:1"
       id="g4">
      <path
         style="fill:#ffffff;fill-opacity:1"
         id="path2"
         d="m 505.63873,-4.5266708 h -16.696 V -54.613671 c 0.001,-9.223 -7.472,-16.696 -16.695,-16.696 -9.223,0 -16.696,7.473 -16.696,16.696 v 50.0870002 h -33.391 V -54.613671 c 0,-9.223 -7.473,-16.696 -16.696,-16.696 -9.223,0 -16.696,7.473 -16.696,16.696 v 50.0870002 h -16.696 c -9.223,0 -16.696,7.473 -16.696,16.6959998 v 66.783 c 0,27.619001 22.468,50.087001 50.087,50.087001 h 16.696 v 194.781 c 0,9.206 -7.49,16.696 -16.696,16.696 -9.206,0 -16.696,-7.49 -16.696,-16.696 v -133.565 c 0,-27.619 -22.468,-50.087 -50.087,-50.087 h -27.826 V -10.092671 c 0,-27.619 -22.468,-50.087 -50.087,-50.087 H 60.421735 c -27.619,0 -50.087,22.468 -50.087,50.087 V 440.76326 H 310.85673 V 173.56033 h 27.826 c 9.206,0 16.696,7.49 16.696,16.696 v 133.564 c 0,27.619 22.468,50.087 50.087,50.087 27.619,0 50.087,-22.468 50.087,-50.087 v -194.782 h 16.696 c 27.619,0 50.087,-22.468 50.087,-50.087001 v -66.783 c -10e-4,-9.2219998 -7.48,-16.6949998 -16.697,-16.6949998 z m -261.565,94.6079998 c 0,9.223 -7.473,16.696001 -16.696,16.696001 H 93.812735 c -9.223,0 -16.696,-7.473001 -16.696,-16.696001 v -66.782 c 0,-9.223 7.473,-16.6959998 16.696,-16.6959998 H 227.37773 c 9.223,0 16.696,7.4729998 16.696,16.6959998 z" />
    </g>
    <path
       style="fill:#006eff;fill-opacity:1;stroke-width:1.68465102"
       id="path2-1"
       d="m 228.46621,255.24313 -45.10315,-12.75787 27.67208,-95.24005 c 1.25843,-4.13245 -0.71935,-8.6254 -4.49297,-10.60151 -3.95388,-1.97612 -8.62541,-1.07819 -11.50112,2.15634 L 93.692464,258.11881 c -3.234525,3.95389 -2.875692,9.7036 1.078175,12.93811 1.078183,0.89793 2.156358,1.43704 3.414791,1.79753 l 44.56407,12.5793 -39.35344,107.27856 c -1.61727,4.13246 0.18025,8.80569 4.13245,11.1406 3.95387,2.15635 8.80566,1.437 11.67968,-1.9761 L 233.13775,270.15734 c 3.23454,-3.77364 2.8757,-9.70359 -0.89791,-12.93813 -1.25844,-0.89792 -2.33661,-1.61727 -3.77363,-1.97608 z" />
  </g>
</svg>
