<?xml version="1.0" encoding="UTF-8" standalone="no"?>
<svg
   xmlns:dc="http://purl.org/dc/elements/1.1/"
   xmlns:cc="http://creativecommons.org/ns#"
   xmlns:rdf="http://www.w3.org/1999/02/22-rdf-syntax-ns#"
   xmlns:svg="http://www.w3.org/2000/svg"
   xmlns="http://www.w3.org/2000/svg"
   version="1.0"
   width="128"
   height="128"
   id="svg2">
  <metadata
     id="metadata2975">
    <rdf:RDF>
      <cc:Work
         rdf:about="">
        <dc:format>image/svg+xml</dc:format>
        <dc:type
           rdf:resource="http://purl.org/dc/dcmitype/StillImage" />
        <cc:license
           rdf:resource="http://web.resource.org/cc/PublicDomain" />
        <dc:language>en</dc:language>
        <dc:title></dc:title>
      </cc:Work>
    </rdf:RDF>
  </metadata>
  <defs
     id="defs4">
    <symbol
       viewBox="244.5 110 489 219.9"
       id="symbol-university">
      <path
         id="path4460"
         d="m 79,43 57,119 c 0,0 21,-96 104,-96 83,0 124,106 124,106 L 407,39 489,22 0,17 Z" />
      <path
         id="path4462"
         d="M 94,176 73,215"
         style="fill:none;stroke:#000000;stroke-width:20" />
      <path
         id="path4464"
         d="M 300,19 C 300,29.5 277.4,38 249.5,38 221.6,38 199,29.5 199,19 199,8.5 221.6,0 249.5,0 277.4,0 300,8.5 300,19 Z" />
      <path
         id="path4466"
         d="M 112,216 96,178 64,88 C 64,88 55,80 60,53 65,26 76,29 76,29"
         ill="none"
         style="stroke:#000000;stroke-width:20" />
    </symbol>
  </defs>
  <path
     id="path828"
     d="m 21.52031,1.52046 h 84.95938 c 11.11992,0 19.99985,8.87994 19.99985,19.99986 v 84.95937 c 0,11.11992 -8.87993,19.99985 -19.99985,19.99985 H 21.52031 c -11.11992,0 -19.99985,-8.87993 -19.99985,-19.99985 V 21.52032 c 0,-11.11992 8.87993,-19.99986 19.99985,-19.99986 z"
     style="fill:#aa4400;fill-opacity:1;fill-rule:evenodd;stroke:#ffffff;stroke-width:3.03997755px;stroke-linecap:butt;stroke-linejoin:miter;stroke-miterlimit:4;stroke-dasharray:none;stroke-opacity:1" />
  <g
     id="layer3"
     style="display:none;stroke:#757575;stroke-opacity:1"
     transform="matrix(48.14969,0,0,48.14969,-536.27327,-485.30675)">
    <rect
       style="display:inline;fill:none;stroke:#757575;stroke-width:0.1;stroke-miterlimit:4;stroke-dasharray:none;stroke-opacity:1"
       id="rect4134"
       width="10"
       height="10"
       x="1"
       y="1" />
    <rect
       style="display:inline;fill:none;stroke:#757575;stroke-width:0.1;stroke-miterlimit:4;stroke-dasharray:none;stroke-opacity:1"
       id="rect4136"
       width="8"
       height="8"
       x="2"
       y="2" />
  </g>
  <path
     style="font-style:normal;font-variant:normal;font-weight:normal;font-stretch:normal;font-size:40px;line-height:125%;font-family:NPSPICT3;-inkscape-font-specification:NPSPICT3;text-align:start;writing-mode:lr-tb;text-anchor:start;fill:#ffffff;fill-opacity:1;stroke:none;stroke-width:3.24101281px;stroke-linecap:butt;stroke-linejoin:miter;stroke-opacity:1"
     d="m 111.61838,16.860367 -6.87212,24.244296 H 69.744753 l 8.426951,66.893367 h 28.647676 l 8.55751,-66.893367 h -6.48045 L 115.638,18.027481 Z M 65.59458,80.125792 C 66.285552,74.075298 61.705464,70.791562 51.8543,70.274567 H 28.128283 c -9.851241,0.516995 -14.47485,3.800731 -13.870838,9.851225 z m -51.337135,18.15157 c -0.604012,6.047888 4.019597,9.288108 13.870838,9.720668 H 51.8543 c 9.851164,-0.43256 14.431252,-3.67278 13.74028,-9.720668 z M 65.390912,84.794243 h -51.06036 c -1.208006,2e-5 -2.24456,0.431918 -3.109661,1.295693 -0.865127,0.86381 -1.297682,1.857505 -1.297673,2.981083 -9e-6,1.297686 0.432546,2.356659 1.297673,3.176918 0.865101,0.820288 1.901655,1.230426 3.109661,1.230415 h 51.06036 c 1.210571,1.1e-5 2.247781,-0.410127 3.111643,-1.230415 0.863728,-0.820259 1.295627,-1.879232 1.29569,-3.176918 -6.3e-5,-1.123578 -0.431962,-2.117273 -1.29569,-2.981083 -0.863862,-0.863775 -1.901072,-1.295673 -3.111643,-1.295693 z"
     id="flowRoot3192" />
</svg>
