<?xml version="1.0" encoding="UTF-8" standalone="no"?>
<svg
   xmlns:dc="http://purl.org/dc/elements/1.1/"
   xmlns:cc="http://creativecommons.org/ns#"
   xmlns:rdf="http://www.w3.org/1999/02/22-rdf-syntax-ns#"
   xmlns:svg="http://www.w3.org/2000/svg"
   xmlns="http://www.w3.org/2000/svg"
   id="svg2"
   height="128"
   width="128"
   version="1.0">
  <metadata
     id="metadata1976">
    <rdf:RDF>
      <cc:Work
         rdf:about="">
        <dc:format>image/svg+xml</dc:format>
        <dc:type
           rdf:resource="http://purl.org/dc/dcmitype/StillImage" />
        <cc:license
           rdf:resource="http://web.resource.org/cc/PublicDomain" />
        <dc:language>en</dc:language>
        <dc:title></dc:title>
      </cc:Work>
    </rdf:RDF>
  </metadata>
  <defs
     id="defs4">
    <marker
       id="ArrowStart"
       markerHeight="3"
       markerUnits="strokeWidth"
       markerWidth="4"
       orient="auto"
       refX="10"
       refY="5"
       viewBox="0 0 10 10">
      <path
         d="M 10,0 0,5 10,10 Z"
         id="path2111" />
    </marker>
    <marker
       id="ArrowEnd"
       markerHeight="3"
       markerUnits="strokeWidth"
       markerWidth="4"
       orient="auto"
       refX="0"
       refY="5"
       viewBox="0 0 10 10">
      <path
         d="M 0,0 10,5 0,10 Z"
         id="path2108" />
    </marker>
  </defs>
  <path
     id="path828-6"
     d="m 21.520311,1.5204585 h 84.959379 c 11.11992,0 19.99985,8.8799435 19.99985,19.9998635 v 84.959368 c 0,11.11992 -8.87993,19.99985 -19.99985,19.99985 H 21.520311 c -11.11992,0 -19.9998505,-8.87993 -19.9998505,-19.99985 V 21.520321 c 0,-11.11992 8.8799305,-19.9998625 19.9998505,-19.9998625 z"
     style="fill:#550000;fill-opacity:1;fill-rule:evenodd;stroke:#ffffff;stroke-width:3.03997755px;stroke-linecap:butt;stroke-linejoin:miter;stroke-miterlimit:4;stroke-dasharray:none;stroke-opacity:1" />
  <g
     style="fill:#000000"
     transform="matrix(1.1975036,0,0,1.1975036,80.128205,-417.42)"
     id="g2117">
    <g
       style="fill:#000000"
       id="g2119">
      <g
         style="fill:#000000"
         id="g2121">
        <path
           d=""
           style="fill:#000000;stroke:none"
           id="path2125" />
      </g>
      <g
         style="fill:#000000"
         id="g2127">
        <path
           d=""
           style="fill:#000000;stroke:none"
           id="path2131" />
      </g>
    </g>
  </g>
  <path
     id="path3575"
     d="m 63.612977,14.944763 c -4.540355,0.01848 -8.303268,2.8779 -12.111127,4.98873 -4.367053,2.284577 -9.357775,3.267906 -14.273241,2.990652 -1.480379,0.05544 -3.712705,0.05915 -4.165086,1.826182 -0.398852,1.829879 1.448043,2.942593 2.359258,4.234599 2.117573,2.478654 4.265328,4.903706 6.497725,7.267763 0.337916,-0.473181 1.744461,-0.787403 0.879599,-1.378879 -2.488767,-2.96847 -5.310752,-5.696654 -7.508617,-8.888777 -0.192529,-1.336366 1.421243,-1.624711 2.420004,-1.510112 3.805387,-0.02957 7.807234,0.194078 11.255088,-1.683859 5.082422,-2.31415 9.767268,-6.264101 15.617703,-6.315856 5.616556,0.109054 10.233884,3.75957 15.019552,6.245619 3.391837,1.9186 7.168996,3.306721 11.106897,3.171791 1.288667,0.10166 2.915423,-0.19223 3.852292,0.866881 0.531586,1.319732 -1.047594,2.005473 -1.697064,2.892688 -2.174913,2.17922 -4.359093,4.349197 -6.545305,6.51363 0.552623,0.232895 1.108597,1.360396 1.599986,0.872428 2.97972,-3.07198 6.224026,-5.894429 8.925222,-9.214089 0.423955,-1.168165 -0.101827,-2.820602 -1.531279,-2.890839 C 91.988803,24.179183 88.477838,24.571036 85.190208,23.537801 78.941759,21.870577 74.148705,16.77649 67.849402,15.273771 66.46901,14.979881 65.035397,14.918885 63.612977,14.944763 Z m -37.079694,15.98464 c -1.382642,-0.02033 -1.742955,1.624712 -1.731174,2.704155 -0.322007,3.251271 -0.218523,6.643016 -1.583236,9.670635 -2.297625,6.408274 -7.586556,11.626202 -8.28056,18.596378 -0.471836,4.833469 1.952674,9.22333 4.159763,13.343331 2.486633,4.661571 4.630493,9.816655 4.126186,15.215724 -0.07012,1.500871 -0.05485,3.670853 1.547503,4.334407 1.404847,0.384458 2.354881,-1.042473 3.446211,-1.639491 2.783439,-2.060928 5.355488,-4.341808 7.918602,-6.663352 -0.521961,-0.42882 -0.888233,-1.922297 -1.563576,-0.898305 -2.780223,2.290122 -5.386577,4.826075 -8.330562,6.885148 -1.29427,0.188536 -1.570858,-1.415842 -1.4158,-2.369596 0.0915,-3.24203 0.03243,-6.591263 -1.487139,-9.520918 -2.427744,-5.630113 -6.617156,-10.774106 -6.886934,-17.132474 -0.01425,-5.837131 3.727509,-10.683538 6.404026,-15.563216 1.932497,-3.351082 3.385422,-7.066291 3.254146,-10.986668 0.114575,-1.147834 -0.249798,-2.792877 0.894478,-3.489709 1.377655,-0.378915 2.047359,1.256887 3.007203,1.909359 2.153915,2.108982 4.19483,4.302988 6.404026,6.360216 0.498964,-0.639533 1.529211,-1.279067 0.40578,-1.855756 -3.024769,-3.035012 -5.86731,-6.260406 -9.262763,-8.883232 -0.341135,-0.02957 -0.68417,-0.02403 -1.02618,-0.01848 z m 75.306297,2.090499 c -1.35927,0.661714 -2.161344,2.059076 -3.407726,2.892688 -2.131812,1.970355 -4.309778,3.890804 -6.404098,5.899974 0.500619,0.340099 0.849041,1.805851 1.436571,0.996268 2.792861,-2.447233 5.376046,-5.20499 8.391723,-7.3953 1.26911,-0.288345 1.64413,1.290158 1.45969,2.227277 -0.0795,3.4435 0.085,6.99975 1.70545,10.114241 2.41059,5.741016 6.38414,11.121599 6.60278,17.548357 -0.15383,5.598691 -3.83116,10.173389 -6.43695,14.860836 -1.88428,3.171791 -3.27743,6.752071 -3.12793,10.509792 -0.12847,1.205134 0.20154,2.905625 -0.9768,3.654207 -1.343763,0.439918 -2.131499,-1.129345 -3.038154,-1.7966 -2.015882,-1.9223 -4.032394,-3.844597 -6.049306,-5.765046 -0.229244,0.53048 -1.449475,1.079444 -0.620099,1.53599 3.146812,2.909322 5.992623,6.175383 9.427699,8.692855 1.42501,0.24029 2.44453,-1.19774 2.41453,-2.50269 0.45074,-3.031313 0.2192,-6.221587 1.43776,-9.10873 1.92298,-5.924003 6.53135,-10.611451 8.08872,-16.666688 0.98496,-4.290049 -0.0446,-8.811146 -2.09626,-12.637257 -2.71449,-5.707744 -6.11167,-11.574447 -5.80589,-18.130591 -0.0762,-1.598833 0.12662,-3.550704 -1.103,-4.753989 -0.59417,-0.242135 -1.2741,-0.155262 -1.89871,-0.175594 z M 39.368773,91.775659 c -2.666589,3.022074 -5.946623,5.484092 -8.209446,8.835181 -0.446568,1.45835 0.982185,2.79472 2.401079,2.70231 3.046958,0.39924 6.245692,0.16635 9.139339,1.39735 5.640756,1.82434 10.208356,6.12917 15.920232,7.8001 4.927765,1.2957 10.208326,0.20886 14.537097,-2.33818 5.372611,-2.61728 11.025337,-5.51737 17.185921,-5.11997 1.483923,-0.0757 3.260336,0.0425 4.41758,-0.97224 0.549471,-1.07944 0.231203,-2.40841 -0.741887,-3.13482 -2.463646,-2.925959 -5.154241,-5.713289 -7.659621,-8.615221 -0.253963,0.428819 -1.809921,0.818828 -0.96033,1.212528 2.373551,2.748504 5.12391,5.293714 7.287531,8.260343 0.478613,1.21436 -1.071507,1.84281 -2.046875,1.68385 -4.157587,-0.29574 -8.346436,0.41773 -12.067225,2.33264 -5.301035,2.4731 -10.619423,6.03304 -16.737172,5.67447 -6.14788,-0.41774 -10.937697,-4.74475 -16.270725,-7.32692 -2.867081,-1.45096 -6.044899,-2.12561 -9.246601,-2.09049 -1.017979,0 -2.790402,0.0757 -2.831602,-1.32158 0.206857,-1.266129 1.586903,-1.852059 2.262878,-2.850169 1.922346,-1.987 3.836827,-3.979535 5.759989,-5.962826 -0.613445,-0.317921 -1.214243,-1.602534 -1.745689,-0.572996 -0.13149,0.136779 -0.262982,0.27171 -0.394473,0.40664 z"
     style="fill:#ffffff;stroke:#ffffff;stroke-width:1.75603104;stroke-linecap:round;stroke-linejoin:round;stroke-miterlimit:4;stroke-dasharray:none;stroke-opacity:1" />
  <g
     transform="matrix(0.1936865,0,0,0.1936865,7.87301,6.1003455)"
     id="g5215">
    <path
       style="fill:#ffffff;fill-opacity:1;fill-rule:evenodd;stroke:none"
       d="m 198.67153,429.13471 c -27.9052,-15.73923 -44.91267,-52.53932 -32.35461,-107.5395 8.80965,-38.58338 34.48036,-86.20137 14.80642,-125.85126 23.86554,16.49562 48.67818,55.72148 73.70237,100.02462 1.72552,-47.91091 -23.1357,-79.3021 -5.26444,-144.77247 12.26268,80.9952 61.45228,86.01536 86.42474,159.68842 10.62203,-34.63889 32.71786,-46.03994 21.93521,-132.05003 108.58157,148.29018 46.69562,200.96776 25.00613,254.00987 l 7.0193,-73.70234 c -34.05505,98.44168 -61.34018,116.60289 -85.98606,138.63059 13.7744,-46.21019 19.20596,-92.4204 -8.77412,-138.63059 -6.79301,75.87173 -25.9655,60.08286 -29.83187,121.08241 -38.33494,-28.93346 -46.20823,-58.61344 -53.08324,-107.04388 -5.21553,5.66709 -14.0221,29.35386 -13.59983,56.15416 z"
       id="path4356" />
    <path
       style="fill:#ffffff;fill-opacity:1;fill-rule:evenodd;stroke:none"
       d="M 278.07704,75.100248 C 249.68045,190.40668 301.5257,189.3936 330.28289,257.16259 350.4538,152.66532 290.11046,176.17723 278.07704,75.100248 Z"
       id="path4358" />
  </g>
  <path
     id="path6053"
     d="m 25.919929,31.875766 -1.028427,8.227062 -2.791443,7.199374 -4.995214,9.2566 -1.909934,6.905483 3.232197,9.108734 4.55446,8.960862 1.909934,12.341525 10.431183,-8.081049 5.435966,5.877794 -8.961999,9.402619 1.616097,1.46946 6.023638,0.58778 5.582889,1.4676 9.549671,5.5839 6.758232,2.05723 6.464394,-0.88168 8.22741,-3.67269 7.198985,-2.79288 7.786658,-1.02768 3.37911,-2.05724 -8.374324,-8.666973 6.023639,-5.583901 8.961999,8.520945 1.6161,-2.643153 0.88151,-7.935021 3.96679,-7.639283 4.26063,-8.081043 1.02842,-5.729924 -2.64452,-7.345394 -4.40754,-8.227063 -1.76302,-8.374932 -0.7346,-6.463724 -5.142129,3.820565 -5.289049,4.700387 -5.289049,-5.729924 8.374325,-9.108733 -1.763012,-1.909358 -7.933577,-0.88167 -7.492821,-2.938896 -8.22741,-4.554366 -6.023641,-1.321579 -7.198983,1.615468 -6.905149,4.114456 -6.317477,1.909359 -9.990426,0.7338 v 1.763338 l 8.521247,9.696511 -6.170559,5.290015 z"
     style="opacity:0.1;fill:#ffffff;fill-opacity:1;fill-rule:evenodd;stroke:none;stroke-width:0.18483628" />
</svg>
