<?xml version="1.0" encoding="UTF-8" standalone="no"?>
<svg
   xmlns:dc="http://purl.org/dc/elements/1.1/"
   xmlns:cc="http://creativecommons.org/ns#"
   xmlns:rdf="http://www.w3.org/1999/02/22-rdf-syntax-ns#"
   xmlns:svg="http://www.w3.org/2000/svg"
   xmlns="http://www.w3.org/2000/svg"
   xmlns:xlink="http://www.w3.org/1999/xlink"
   version="1.0"
   width="128"
   height="128"
   id="svg2">
  <metadata
     id="metadata1976">
    <rdf:RDF>
      <cc:Work
         rdf:about="">
        <dc:format>image/svg+xml</dc:format>
        <dc:type
           rdf:resource="http://purl.org/dc/dcmitype/StillImage" />
        <cc:license
           rdf:resource="http://web.resource.org/cc/PublicDomain" />
        <dc:language>en</dc:language>
        <dc:title></dc:title>
      </cc:Work>
    </rdf:RDF>
  </metadata>
  <defs
     id="defs4">
    <marker
       viewBox="0 0 10 10"
       refY="5"
       refX="10"
       orient="auto"
       markerWidth="4"
       markerUnits="strokeWidth"
       markerHeight="3"
       id="ArrowStart">
      <path
         id="path2111"
         d="M 10,0 0,5 10,10 Z" />
    </marker>
    <marker
       viewBox="0 0 10 10"
       refY="5"
       refX="0"
       orient="auto"
       markerWidth="4"
       markerUnits="strokeWidth"
       markerHeight="3"
       id="ArrowEnd">
      <path
         id="path2108"
         d="M 0,0 10,5 0,10 Z" />
    </marker>
  </defs>
  <path
     id="path30"
     d="m 45.141064,79.536979 c -5.511,-3.108339 -8.869818,-10.376006 -6.389718,-21.238001 1.739823,-7.619841 6.809534,-17.023938 2.924128,-24.854399 4.713216,3.257722 9.613466,11.004444 14.555492,19.753889 0.340774,-9.461943 -4.569075,-15.661394 -1.039668,-28.591156 2.421764,15.995762 12.13623,16.987201 17.068037,31.536908 2.097757,-6.840843 6.461458,-9.092436 4.33199,-26.078598 21.443805,29.285868 9.221924,39.68918 4.938468,50.164479 l 1.38624,-14.555493 c -6.725534,19.441273 -12.114082,23.027939 -16.98141,27.378195 2.720318,-9.126058 3.792991,-18.252136 -1.7328,-27.378195 -1.341551,14.983935 -5.127932,11.86578 -5.891501,23.912594 -7.570776,-5.714076 -9.125675,-11.575582 -10.483424,-21.14012 -1.030007,1.119196 -2.76922,5.797105 -2.685834,11.089897 z"
     style="fill:none;fill-opacity:1;fill-rule:evenodd;stroke:#ffffff;stroke-width:5.17154932;stroke-linecap:butt;stroke-linejoin:miter;stroke-miterlimit:4;stroke-dasharray:none;stroke-opacity:1" />
  <path
     id="path32"
     d="M 60.822878,9.6186222 C 55.214829,32.390519 65.453762,32.190446 71.133023,45.574161 75.116585,24.936963 63.19937,29.580336 60.822878,9.6186222 Z"
     style="fill:none;fill-opacity:1;fill-rule:evenodd;stroke:#ffffff;stroke-width:5.17154932;stroke-linecap:butt;stroke-linejoin:miter;stroke-miterlimit:4;stroke-dasharray:none;stroke-opacity:1" />
  <path
     style="color:#000000;font-style:normal;font-variant:normal;font-weight:normal;font-stretch:normal;font-size:medium;line-height:normal;font-family:sans-serif;font-variant-ligatures:normal;font-variant-position:normal;font-variant-caps:normal;font-variant-numeric:normal;font-variant-alternates:normal;font-feature-settings:normal;text-indent:0;text-align:start;text-decoration:none;text-decoration-line:none;text-decoration-style:solid;text-decoration-color:#000000;letter-spacing:normal;word-spacing:normal;text-transform:none;writing-mode:lr-tb;direction:ltr;text-orientation:mixed;dominant-baseline:auto;baseline-shift:baseline;text-anchor:start;white-space:normal;shape-padding:0;clip-rule:nonzero;display:inline;overflow:visible;visibility:visible;opacity:1;isolation:auto;mix-blend-mode:normal;color-interpolation:sRGB;color-interpolation-filters:linearRGB;solid-color:#000000;solid-opacity:1;vector-effect:none;fill:none;fill-opacity:1;fill-rule:evenodd;stroke:#ffffff;stroke-width:5.17154932;stroke-linecap:round;stroke-linejoin:miter;stroke-miterlimit:4;stroke-dasharray:none;stroke-dashoffset:0;stroke-opacity:1;color-rendering:auto;image-rendering:auto;shape-rendering:auto;text-rendering:auto;enable-background:accumulate"
     d="m 105.03277,83.225696 a 4.65486,4.65486 0 0 0 -1.23632,0.199994 L 61.906907,95.572767 35.481499,86.573064 a 4.65486,4.65486 0 0 0 -1.36561,-0.266655 4.65486,4.65486 0 0 0 -1.636309,9.078486 l 13.831868,4.710975 -24.726471,7.17149 a 4.6548847,4.6548847 0 1 0 2.593863,8.94112 l 37.503828,-10.87641 27.522341,9.37343 a 4.65486,4.65486 0 1 0 3.001919,-8.81184 l -14.928801,-5.08467 29.110163,-8.442177 a 4.65486,4.65486 0 0 0 -1.35552,-9.141117 z"
     id="path34" />
  <g
     id="g2117"
     transform="matrix(1.1975036,0,0,1.1975036,80.128205,-417.42417)"
     style="fill:#000000">
    <g
       id="g2119"
       style="fill:#000000">
      <g
         id="g2121"
         style="fill:#000000">
        <path
           id="path2125"
           style="fill:#000000;stroke:none"
           d="" />
      </g>
      <g
         id="g2127"
         style="fill:#000000">
        <path
           id="path2131"
           style="fill:#000000;stroke:none"
           d="" />
      </g>
    </g>
  </g>
  <image
     xlink:href="pastedpic_10102008_233747.png"
     y="121.99469"
     x="-1801.1931"
     id="image3356"
     height="190"
     width="239" />
  <path
     style="fill:#800000;fill-opacity:1;fill-rule:evenodd;stroke:none;stroke-width:1.03430986px;stroke-linecap:butt;stroke-linejoin:miter;stroke-opacity:1"
     d="M 45.125893,80.531519 C 39.614888,77.423173 36.256075,70.15551 38.736171,59.293514 c 1.739818,-7.619841 6.809533,-17.023937 2.924128,-24.854398 4.713211,3.257722 9.613464,11.004443 14.555494,19.753888 0.340774,-9.461942 -4.569075,-15.661393 -1.039673,-28.591155 2.421764,15.995762 12.13623,16.9872 17.068041,31.536908 2.097751,-6.840843 6.461461,-9.092436 4.331994,-26.078598 21.443806,29.285868 9.221926,39.689179 4.938462,50.16448 l 1.386248,-14.555494 c -6.725541,19.44127 -12.114087,23.027939 -16.981412,27.378198 2.720311,-9.126066 3.792987,-18.252135 -1.7328,-27.378198 -1.341552,14.983929 -5.127937,11.86578 -5.891507,23.912597 -7.570773,-5.71408 -9.125671,-11.575587 -10.483425,-21.140123 -1.030009,1.119195 -2.769222,5.797101 -2.685828,11.0899 z"
     id="path4356" />
  <path
     style="fill:#800000;fill-opacity:1;fill-rule:evenodd;stroke:none;stroke-width:1.03430986px;stroke-linecap:butt;stroke-linejoin:miter;stroke-opacity:1"
     d="M 60.807703,10.613159 C 55.199655,33.385055 65.43859,33.184983 71.117851,46.568697 75.101413,25.9315 63.184195,30.574873 60.807703,10.613159 Z"
     id="path4358" />
  <path
     id="path861"
     d="m 105.0176,83.273577 a 4.65486,4.65486 0 0 0 -1.23632,0.199993 L 61.891731,95.620652 35.466326,86.620943 a 4.65486,4.65486 0 0 0 -1.365613,-0.266658 4.65486,4.65486 0 0 0 -1.63631,9.078494 l 13.831875,4.710961 -24.726471,7.17148 a 4.6548837,4.6548837 0 1 0 2.593855,8.94112 l 37.503834,-10.87641 27.52234,9.37343 a 4.65486,4.65486 0 1 0 3.001923,-8.81184 l -14.928809,-5.08468 29.11017,-8.442146 a 4.65486,4.65486 0 0 0 -1.35552,-9.141117 z"
     style="color:#000000;font-style:normal;font-variant:normal;font-weight:normal;font-stretch:normal;font-size:medium;line-height:normal;font-family:sans-serif;font-variant-ligatures:normal;font-variant-position:normal;font-variant-caps:normal;font-variant-numeric:normal;font-variant-alternates:normal;font-feature-settings:normal;text-indent:0;text-align:start;text-decoration:none;text-decoration-line:none;text-decoration-style:solid;text-decoration-color:#000000;letter-spacing:normal;word-spacing:normal;text-transform:none;writing-mode:lr-tb;direction:ltr;text-orientation:mixed;dominant-baseline:auto;baseline-shift:baseline;text-anchor:start;white-space:normal;shape-padding:0;clip-rule:nonzero;display:inline;overflow:visible;visibility:visible;opacity:1;isolation:auto;mix-blend-mode:normal;color-interpolation:sRGB;color-interpolation-filters:linearRGB;solid-color:#000000;solid-opacity:1;vector-effect:none;fill:#552200;fill-opacity:1;fill-rule:evenodd;stroke:none;stroke-width:9.30878925;stroke-linecap:round;stroke-linejoin:miter;stroke-miterlimit:4;stroke-dasharray:none;stroke-dashoffset:0;stroke-opacity:1;color-rendering:auto;image-rendering:auto;shape-rendering:auto;text-rendering:auto;enable-background:accumulate" />
</svg>
