<?xml version="1.0" encoding="UTF-8" standalone="no"?>
<svg
   xmlns:dc="http://purl.org/dc/elements/1.1/"
   xmlns:cc="http://creativecommons.org/ns#"
   xmlns:rdf="http://www.w3.org/1999/02/22-rdf-syntax-ns#"
   xmlns:svg="http://www.w3.org/2000/svg"
   xmlns="http://www.w3.org/2000/svg"
   id="svg10"
   viewBox="0 0 128 128"
   version="1.1"
   height="128"
   width="128">
  <defs
     id="defs14" />
  <metadata
     id="metadata2">
    <rdf:RDF>
      <cc:Work
         rdf:about="">
        <dc:format>image/svg+xml</dc:format>
        <dc:type
           rdf:resource="http://purl.org/dc/dcmitype/StillImage" />
        <dc:title></dc:title>
      </cc:Work>
    </rdf:RDF>
  </metadata>
  <path
     style="fill:none;stroke:#ffffff;stroke-width:10.66673565;stroke-miterlimit:4;stroke-dasharray:none;stroke-opacity:1"
     id="path8-4"
     d="m 5.3333679,79.782219 c 6.2681581,0 17.8850761,16.762018 23.4685041,16.762018 5.231586,0 17.552338,-16.762018 23.468494,-16.762018 5.916149,0 18.247125,16.762018 23.468492,16.762018 6.277875,0 17.845676,-16.762018 23.459284,-16.762018 6.268138,-0.243041 18.599128,16.762018 23.468488,16.762018 v 25.143023 c -5.90627,0 -17.89512,-16.76201 -23.468488,-16.76201 -5.564071,0 -17.552355,16.76201 -23.459284,16.76201 -5.612932,0 -17.552343,-16.76201 -23.468492,-16.76201 -5.955207,0 -17.885076,16.76201 -23.468494,16.76201 -6.258355,0 -17.543132,-16.76201 -23.468504,-16.76201 z" />
  <path
     style="fill:none;stroke:#ffffff;stroke-width:10.66673565;stroke-miterlimit:4;stroke-dasharray:none;stroke-opacity:1"
     id="path6-4"
     d="M 47.238408,12.732881 13.714385,42.066405 47.238408,71.399928 V 54.637914 H 80.762433 V 71.399928 L 114.28645,42.066405 80.762433,12.732881 V 29.494894 H 47.238408 Z" />
  <path
     style="stroke-width:8.38100719"
     id="path6"
     d="M 47.238408,12.732881 13.714382,42.066405 47.238408,71.399928 V 54.637914 H 80.762432 V 71.399928 L 114.28645,42.066405 80.762432,12.732881 V 29.494894 H 47.238408 Z" />
  <path
     style="fill:#0000ff;stroke-width:9.05316353"
     id="path8"
     d="m 5.3333679,79.780934 c 6.2681581,0 17.8850761,16.762016 23.4685041,16.762016 5.231586,0 17.552338,-16.762017 23.468494,-16.762017 5.916149,0 18.247125,16.762017 23.468492,16.762017 6.277875,0 17.845676,-16.762017 23.459274,-16.762017 6.268148,-0.243049 18.599138,16.762017 23.468498,16.762017 v 25.14302 c -5.90627,0 -17.89512,-16.76201 -23.468498,-16.76201 -5.564065,0 -17.552342,16.76201 -23.459274,16.76201 -5.612929,0 -17.552343,-16.76201 -23.468492,-16.76201 -5.955207,0 -17.885076,16.76201 -23.468494,16.76201 -6.258355,0 -17.543132,-16.76201 -23.468504,-16.76201 z" />
</svg>
