<?xml version="1.0" encoding="UTF-8" standalone="no"?>
<svg
   xmlns:dc="http://purl.org/dc/elements/1.1/"
   xmlns:cc="http://creativecommons.org/ns#"
   xmlns:rdf="http://www.w3.org/1999/02/22-rdf-syntax-ns#"
   xmlns:svg="http://www.w3.org/2000/svg"
   xmlns="http://www.w3.org/2000/svg"
   height="128"
   width="128"
   version="1.1"
   id="svg6">
  <metadata
     id="metadata12">
    <rdf:RDF>
      <cc:Work
         rdf:about="">
        <dc:format>image/svg+xml</dc:format>
        <dc:type
           rdf:resource="http://purl.org/dc/dcmitype/StillImage" />
        <dc:title></dc:title>
      </cc:Work>
    </rdf:RDF>
  </metadata>
  <defs
     id="defs10" />
  <path
     d="m 76.66751,9.9829267 c -6.32111,0 -10.58786,6.2253383 -12.71808,10.9063593 C 61.81922,15.979922 57.70417,9.7125207 51.38306,9.7125207 c -9.48167,0 -12.64222,11.5673513 -12.64222,17.5763643 0,6.009014 6.32111,4.056084 6.32111,0.180271 6.32111,-12.018027 12.64222,-9.692538 14.17193,9.301953 v 2.103155 C 56.8004,37.692858 54.11511,37.055709 51.38306,37.01147 42.10999,37.01147 34,43.218781 34,55.03851 v 6.009014 c 0,6.009014 9.48167,6.009014 9.48167,0 V 55.03851 c 0,-5.804707 4.31732,-9.013519 7.90139,-9.013519 3.47661,0 7.59798,3.22083 7.85082,8.520781 v 15.166749 c 4.7914,-3.47321 4.7914,-3.569354 9.38685,0 L 68.76612,55.03851 v -0.751126 c 0.25916,-5.287932 4.38053,-8.508764 7.85082,-8.508764 3.58407,0 7.90139,3.208814 7.90139,9.013521 v 6.009014 c 0,6.009013 9.48167,6.009013 9.48167,0 V 54.792141 C 94,42.972411 85.89001,36.7651 76.61694,36.7651 c -2.71808,0 -5.42984,0.72709 -7.85082,1.862794 0,-0.540811 -0.10746,-1.081623 0,-1.616424 1.58028,-16.488734 7.90139,-21.380071 14.2225,-9.362044 0,3.17276 6.32111,5.552329 6.32111,-0.456685 0,-6.009012 -3.16055,-17.2098143 -12.64222,-17.2098143 z"
     fill="#0064ff"
     fill-rule="evenodd"
     id="path4-5"
     style="fill:none;stroke:#ffffff;stroke-width:5;stroke-miterlimit:4;stroke-dasharray:none;stroke-opacity:1" />
  <path
     d="M 80.62529,95.823338 C 97.22515,92.653648 109,84.897657 109,75.842481 c 0,-1.080047 -1.9566,-1.956608 -1.9566,-1.956608 0,0 -5.69069,0 -86.086791,0 -1.080046,0 -1.956607,0.876561 -1.956607,1.956608 0,9.059092 11.774857,16.811167 28.374717,19.980857 0.30523,1.41267 0.978301,2.73535 1.60833,3.9367 0.67698,1.287442 1.31875,2.508372 1.31875,3.474932 0,1.54963 -2.91143,3.27535 -5.24762,4.66063 -3.19318,1.894 -6.49202,3.8467 -6.49202,7.07901 0,1.08005 0.87656,1.9566 1.95661,1.9566 h 46.95857 c 1.08004,0 1.956601,-0.87655 1.956601,-1.9566 0,-3.23231 -3.298841,-5.18501 -6.49202,-7.07901 -2.33619,-1.38528 -5.247621,-3.111 -5.247621,-4.66063 0,-0.96656 0.641771,-2.18749 1.32267,-3.474932 0.63002,-1.20135 1.3031,-2.52011 1.608321,-3.9367 z"
     id="path8-6"
     style="fill:none;stroke:#ffffff;stroke-width:5;stroke-miterlimit:4;stroke-dasharray:none;stroke-opacity:1" />
  <path
     d="m 76.667508,11.267127 c -6.321112,0 -10.587863,6.225338 -12.718078,10.906359 -2.130215,-4.909364 -6.245259,-11.176765 -12.566371,-11.176765 -9.481669,0 -12.642225,11.567351 -12.642225,17.576364 0,6.009014 6.321112,4.056084 6.321112,0.180271 6.321113,-12.018027 12.642225,-9.692538 14.171934,9.301953 v 2.103155 C 56.800403,38.977058 54.115111,38.339909 51.383059,38.29567 42.109987,38.29567 34,44.502981 34,56.32271 v 6.009014 c 0,6.009014 9.481668,6.009014 9.481668,0 V 56.32271 c 0,-5.804707 4.31732,-9.013519 7.901391,-9.013519 3.476612,0 7.597976,3.22083 7.850821,8.520781 v 15.166749 c 4.791403,-3.47321 4.791403,-3.569354 9.386852,0 L 68.766117,56.32271 v -0.751126 c 0.259166,-5.287932 4.380532,-8.508764 7.850822,-8.508764 3.584071,0 7.90139,3.208814 7.90139,9.013521 v 6.009014 c 0,6.009013 9.481671,6.009013 9.481671,0 V 56.076341 C 94,44.256611 85.890011,38.0493 76.616939,38.0493 c -2.718079,0 -5.429835,0.72709 -7.850822,1.862794 0,-0.540811 -0.107458,-1.081623 0,-1.616424 1.580279,-16.488734 7.901391,-21.380071 14.222503,-9.362044 0,3.17276 6.321109,5.552329 6.321109,-0.456685 0,-6.009012 -3.160552,-17.209814 -12.642221,-17.209814 z"
     fill="#0064ff"
     fill-rule="evenodd"
     id="path4"
     style="fill:#0000ff;stroke-width:1" />
  <path
     d="M 80.625291,95.823333 C 97.225146,92.65365 109,84.897655 109,75.842479 c 0,-1.080047 -1.9566,-1.956608 -1.9566,-1.956608 0,0 -5.69069,0 -86.086791,0 -1.080047,0 -1.956607,0.876561 -1.956607,1.956608 0,9.059092 11.774861,16.811171 28.374715,19.980854 0.30523,1.412675 0.978303,2.735349 1.60833,3.936701 0.676987,1.287446 1.318754,2.508376 1.318754,3.474936 0,1.54963 -2.911432,3.27535 -5.24762,4.66063 -3.193183,1.894 -6.492022,3.8467 -6.492022,7.07901 0,1.08005 0.876559,1.9566 1.956606,1.9566 h 46.958569 c 1.080045,0 1.956609,-0.87655 1.956609,-1.9566 0,-3.23231 -3.298843,-5.18501 -6.492025,-7.07901 -2.336193,-1.38528 -5.247621,-3.111 -5.247621,-4.66063 0,-0.96656 0.641772,-2.18749 1.322667,-3.474936 0.630027,-1.201352 1.303101,-2.52011 1.608327,-3.936701 z"
     id="path8"
     style="fill:#0000ff;stroke-width:1" />
</svg>
