<?xml version="1.0" encoding="UTF-8" standalone="no"?>
<svg
   xmlns:dc="http://purl.org/dc/elements/1.1/"
   xmlns:cc="http://creativecommons.org/ns#"
   xmlns:rdf="http://www.w3.org/1999/02/22-rdf-syntax-ns#"
   xmlns:svg="http://www.w3.org/2000/svg"
   xmlns="http://www.w3.org/2000/svg"
   id="svg2"
   height="128"
   width="128"
   version="1.0">
  <metadata
     id="metadata10">
    <rdf:RDF>
      <cc:Work
         rdf:about="">
        <dc:format>image/svg+xml</dc:format>
        <dc:type
           rdf:resource="http://purl.org/dc/dcmitype/StillImage" />
        <cc:license
           rdf:resource="http://web.resource.org/cc/PublicDomain" />
        <dc:language>en</dc:language>
        <dc:title></dc:title>
      </cc:Work>
    </rdf:RDF>
  </metadata>
  <defs
     id="defs4">
    <style
       id="style6"
       type="text/css">
   
    .fil0 {fill:#EF7900}
   
  </style>
    <marker
       id="ArrowStart"
       markerHeight="3"
       markerUnits="strokeWidth"
       markerWidth="4"
       orient="auto"
       refX="10"
       refY="5"
       viewBox="0 0 10 10">
      <path
         d="M 10,0 0,5 10,10 Z"
         id="path2295" />
    </marker>
    <marker
       id="ArrowEnd"
       markerHeight="3"
       markerUnits="strokeWidth"
       markerWidth="4"
       orient="auto"
       refX="0"
       refY="5"
       viewBox="0 0 10 10">
      <path
         d="M 0,0 10,5 0,10 Z"
         id="path2292" />
    </marker>
    <marker
       id="marker8025"
       markerHeight="3"
       markerUnits="strokeWidth"
       markerWidth="4"
       orient="auto"
       refX="10"
       refY="5"
       viewBox="0 0 10 10">
      <path
         d="M 10,0 0,5 10,10 Z"
         id="path8027" />
    </marker>
    <marker
       id="marker8021"
       markerHeight="3"
       markerUnits="strokeWidth"
       markerWidth="4"
       orient="auto"
       refX="0"
       refY="5"
       viewBox="0 0 10 10">
      <path
         d="M 0,0 10,5 0,10 Z"
         id="path8023" />
    </marker>
  </defs>
  <path
     id="path828"
     d="m 21.520325,1.52046 h 84.959365 c 11.11991,0 19.99985,8.879941 19.99985,19.999861 v 84.959369 c 0,11.11992 -8.87994,19.99985 -19.99985,19.99985 H 21.520325 c -11.11992,0 -19.99986,-8.87993 -19.99986,-19.99985 V 21.520321 c 0,-11.11992 8.87994,-19.999861 19.99986,-19.999861 z"
     style="fill:#971583;fill-opacity:1;fill-rule:evenodd;stroke:#ffffff;stroke-width:3.03997755px;stroke-linecap:butt;stroke-linejoin:miter;stroke-miterlimit:4;stroke-dasharray:none;stroke-opacity:1" />
  <g
     transform="translate(879.29125,-415.19488)"
     id="g2319">
    <path
       d=""
       style="fill:#ffffff;stroke:none"
       id="path2323" />
  </g>
  <g
     transform="translate(879.29125,-415.19488)"
     id="g2325">
    <path
       d=""
       style="fill:#ffffff;stroke:none"
       id="path2329" />
  </g>
  <g
     id="g12"
     transform="matrix(0.1953125,0,0,0.1953125,14.000098,14)">
    <g
       style="fill:#ffffff;fill-opacity:1"
       id="g6"
       transform="matrix(0.95,0,0,0.95,12.799023,12.8)">
      <g
         style="fill:#ffffff;fill-opacity:1"
         id="g4">
        <path
           style="fill:#ffffff;fill-opacity:1"
           id="path2"
           d="M 478.75,126.098 428.522,100.984 V 83.478 c 0,-9.223 -7.479,-16.696 -16.696,-16.696 H 372.87 V 50.087 C 372.87,22.468 350.402,0 322.783,0 H 89.044 C 61.424,0 38.957,22.468 38.957,50.087 V 478.609 H 22.261 c -9.22,0 -16.696,7.475 -16.696,16.696 0,9.221 7.475,16.695 16.696,16.695 h 367.304 c 9.22,0 16.696,-7.475 16.696,-16.696 0,-9.221 -7.475,-16.696 -16.696,-16.696 H 372.87 V 300.522 h 16.696 c 9.206,0 16.696,7.49 16.696,16.696 v 77.913 c 0,27.619 22.468,50.087 50.087,50.087 27.619,0 50.087,-22.468 50.087,-50.087 V 170.897 c -10e-4,-19.092 -10.61,-36.261 -27.686,-44.799 z M 205.935,439.20043 c -39.891,0 -72.348,-32.456 -72.348,-72.348 0,-14.358 4.206,-28.245 12.163,-40.152 l 46.305,-84.8011 c 6.195,-9.272 21.565,-9.272 27.76,0 l 46.305,84.7961 c 7.955,11.913 12.162,25.799 12.162,40.158 0.001,39.891 -32.456,72.347 -72.347,72.347 z M 306.087,150.261 c 0,9.223 -7.479,16.696 -16.696,16.696 H 122.435 c -9.217,0 -16.696,-7.473 -16.696,-16.696 V 83.478 c 0,-9.223 7.479,-16.696 16.696,-16.696 h 166.956 c 9.217,0 16.696,7.473 16.696,16.696 z m 66.783,-50.087 h 22.261 V 200.348 H 372.87 Z M 473.043,395.13 c 0,9.206 -7.49,16.696 -16.696,16.696 -9.206,0 -16.696,-7.49 -16.696,-16.696 v -77.913 c 0,-27.619 -22.468,-50.087 -50.087,-50.087 H 372.87 v -33.391 h 38.957 c 9.217,0 16.696,-7.473 16.696,-16.696 V 138.32 l 35.294,17.647 c 5.695,2.843 9.228,8.565 9.228,14.929 V 395.13 Z" />
      </g>
    </g>
  </g>
</svg>
