<?xml version="1.0" encoding="UTF-8" standalone="no"?>
<svg
   xmlns:dc="http://purl.org/dc/elements/1.1/"
   xmlns:cc="http://creativecommons.org/ns#"
   xmlns:rdf="http://www.w3.org/1999/02/22-rdf-syntax-ns#"
   xmlns:svg="http://www.w3.org/2000/svg"
   xmlns="http://www.w3.org/2000/svg"
   height="128"
   width="128"
   id="svg6"
   xml:space="preserve"
   enable-background="new 0 0 100 100"
   viewBox="0 0 128 128"
   y="0px"
   x="0px"
   version="1.1"><metadata
     id="metadata12"><rdf:RDF><cc:Work
         rdf:about=""><dc:format>image/svg+xml</dc:format><dc:type
           rdf:resource="http://purl.org/dc/dcmitype/StillImage" /><dc:title></dc:title></cc:Work></rdf:RDF></metadata><defs
     id="defs10" /><g
     style="fill:#1b8389;fill-opacity:1;stroke:#e8ffff;stroke-opacity:1;paint-order:markers stroke fill"
     transform="translate(14,14)"
     id="g4"><path
       style="clip-rule:evenodd;fill:#1b8389;fill-rule:evenodd;fill-opacity:1;stroke:#ffffff;stroke-opacity:1;paint-order:markers stroke fill;stroke-width:3;stroke-miterlimit:4;stroke-dasharray:none"
       id="path2"
       d="m 47.329,40.417 c 0,-0.499 -0.662,-2.505 -0.83,-3.666 -0.173,-1.003 -0.341,-3.335 -0.341,-4.501 0,-1.167 0,-2.006 0.168,-3.168 0.173,-1.17 0.504,-3.33 1.003,-5 0.331,-1.67 1.003,-3.33 2.006,-4.832 0.998,-1.502 2.99,-2.173 2.99,-2.173 0,0 -0.49,-1.493 -0.826,-2.16 -0.172,-0.504 -0.172,-2.505 -0.172,-2.505 0,0 -0.332,-0.163 -0.826,-0.331 0,-1.166 0.826,-3.834 0.998,-4.17 0.168,-0.327 0.662,-1.996 2.836,-1.996 2.332,0 2.5,0.998 2.827,1.669 0.331,0.495 0.839,2.165 0.839,2.165 0.658,0.331 1.33,0.667 2.165,1.166 0,0 -1.675,0.672 -1.834,0.672 v 1.329 c 0,0.163 0,1.334 -0.167,2.001 -0.164,0.499 -1.33,0.83 -1.666,1.161 -0.168,0 -0.34,1.171 0.663,2.006 0.839,0.83 2.005,3.33 2.337,3.829 0.499,0.667 1.166,5.173 1.166,5.835 0,0.672 -0.332,2.668 -0.332,2.668 1.666,1.834 3.331,3.667 5.164,5.668 0,0 0.998,0.168 1.334,0.168 0.331,0 1.334,0.326 1.334,0.326 0,0 0.998,-1.497 2.164,-2.495 1.166,-0.999 2.5,-2.001 3.834,-3 1.334,-0.839 3.835,-2.168 6.003,-3.171 2.333,-0.999 5.169,-1.665 6.829,-1.997 1.003,-0.163 5.504,-0.163 5.999,-0.336 0.34,0 2.84,-0.667 3.339,-0.998 0.667,-0.163 2.496,-0.336 2.496,-0.336 0,0 -0.327,0.667 -0.327,1.003 -0.168,0.331 -1.003,0.999 -1.003,0.999 0,0 1.003,-0.332 1.493,0 0.508,0.167 0.844,0.839 0.844,0.839 0,0 -1.007,0.163 -1.334,0.163 -0.168,0.164 -1.171,0.499 -1.171,0.499 0,0 0.168,1.167 0.168,1.67 0,0.331 1.003,1.665 1.33,2.16 0.331,0.504 0.839,2.332 0.839,3.503 -0.168,1.497 -0.508,2.332 -0.508,3.335 0,0.998 0.676,2.663 0.676,2.836 0,0.336 -0.168,0.998 -0.336,1.334 0,0.326 0.5,2.332 0.5,2.994 0,0.499 -0.164,2.169 -0.332,2.501 -0.168,0.331 0,1.17 -0.168,1.329 -0.168,0.172 -0.998,0.336 -1.502,0.172 -0.34,-0.172 -1.166,-0.834 -1.338,-0.834 -0.327,0 -1.162,0.335 -1.497,0.167 -0.164,-0.167 -0.831,-0.503 -1.003,-0.834 -0.164,-0.332 -0.495,-1.33 -0.495,-1.829 0,-0.504 0,-2.169 -0.168,-2.668 -0.163,-0.336 -1.665,-0.998 -2.164,-1.334 -0.504,-0.168 -1.67,-1.171 -1.67,-1.171 -0.499,0 -0.998,0.173 -1.497,0.336 0,0 0,3.666 -1.003,6.171 -0.998,2.332 -3.162,4.329 -3.162,4.329 0,0 -0.336,3.838 -0.168,4.333 0,0.667 -0.504,3.172 -0.504,3.834 -0.168,0.835 0,1.67 0,2.169 0,0.499 1.003,1.833 1.334,2.164 0.336,0.168 3.335,2.668 3.834,3.163 0.504,0.671 3.503,4.17 3.834,4.505 0.336,0.332 0.663,1.838 0.663,2.165 0,0.336 1.166,2.5 1.506,3.004 0.331,0.499 1.833,3.493 2.16,4.165 0.172,0.499 0.671,2.5 0.839,3.666 0.159,0.998 -1.166,3.834 -1.497,4.497 -0.336,0.503 -1.502,2.337 -1.502,2.337 0,0 -1.166,-1.334 -1.334,-1.498 -0.172,-0.336 -1.334,-1.67 -1.334,-2.169 0,-0.667 2.164,-2.001 2.164,-2.001 0,0 -0.163,-0.667 -0.163,-0.83 -0.168,-0.336 -0.336,-0.672 -0.499,-1.171 0,0 -0.34,-3.167 -1.003,-4.501 -0.499,-1.334 -2.164,-3.494 -3.004,-4.496 -0.83,-0.835 -4.16,-3.671 -5.326,-4.669 -1.167,-1.167 -6.167,-4.166 -6.167,-4.166 0,0 -1.67,2.169 -2.005,2.832 -0.168,0.671 -0.499,3.167 -0.663,3.666 -0.168,0.499 -0.671,2.337 -1.003,2.831 -0.331,0.672 -3.498,5.173 -4.002,5.84 -0.326,0.667 -0.83,1.996 -0.998,2.5 -0.331,0.662 -0.331,3.498 0,4.002 0.168,0.494 2.006,2.827 2.169,3.162 0.163,0.332 0.331,0.999 0.331,1.33 0,0.172 -1.334,0.839 -1.828,1.003 -0.341,0.168 -2.337,0.503 -2.5,0.503 -0.341,0 -1.166,0 -1.838,-0.172 0,-0.495 0.672,-1.665 0.672,-2.496 -0.173,-0.834 -1.838,-1.669 -1.67,-2.668 0.163,-0.662 0.331,-1.334 0.667,-1.833 0.163,-0.499 1.166,-3.167 1.497,-3.666 0.168,-0.331 0.331,-2.831 0.499,-4.333 0.173,-1.502 1.334,-4.996 1.507,-5.504 0.163,-0.499 1.492,-2.664 1.492,-2.999 0,-0.332 -0.326,-1.666 -0.326,-2.333 0.168,-0.667 0.326,-2.999 0.326,-2.999 0,0 -6.665,1.67 -13.326,1.67 -6.67,0 -15.173,-2.668 -17.169,-3.503 0,0 -2.668,2.332 -2.501,2.332 0,0 0.336,0.504 0.336,2.169 0,1.665 -2.178,5.5 -2.341,5.835 -0.159,0.336 -0.159,1.162 -0.159,1.498 0.159,0.168 0.998,3.167 1.166,3.834 0.168,0.494 0.49,3.834 0.322,4.17 0,0.326 3.009,3.162 3.512,3.493 0.322,0.173 3.825,4.334 4.161,4.669 0.336,0.504 0.672,1.167 0.672,1.666 0,0.503 -0.504,1.17 -1.502,0.998 -0.831,0 -3.009,0 -3.499,-0.163 -0.503,-0.168 -0.671,-0.835 -1.002,-1.502 -0.332,-0.667 -0.164,-1.493 -0.332,-2.001 -0.335,-0.499 -0.676,-0.826 -2.332,-0.826 -1.67,0 -1.502,-0.672 -1.502,-1.171 -0.168,-0.667 -0.168,-3.335 -0.336,-4.002 -0.172,-0.667 -0.83,-3.666 -0.998,-4.165 -0.168,-0.672 -2.164,-5.164 -2.5,-5.499 -0.34,-0.336 -0.667,-0.835 -0.667,-1.334 0,-0.499 1.166,-2.668 1.33,-3.004 0.167,-0.327 0.503,-0.998 0.335,-1.498 -0.168,-0.331 -0.998,-0.331 -1.502,-0.331 -0.494,0.168 -1.497,0.495 -2.164,0.667 -0.499,0.331 -2.836,1.162 -3.335,1.33 -0.326,0.168 -1.166,0.503 -1.493,0.839 -0.34,0.327 -1.007,2.995 -1.175,3.331 -0.159,0.335 -1.329,2.164 -1.665,2.668 -0.163,0.335 -0.667,1.334 -0.667,1.996 0,0.499 -0.499,5.835 -0.499,6.67 0,0.662 0.168,0.835 0.168,1.996 0,1.003 -0.999,1.834 -1.502,2.505 -0.499,0.663 -2.169,1.162 -2.664,1.162 -0.499,0.172 -1.665,0 -1.665,0 0,0 -0.835,-1.498 -0.835,-2.832 0,-1.502 0.667,-2.831 0.667,-2.831 0,0 0,0.499 0.994,0.499 1.166,0 1.166,-1.67 1.166,-1.67 0,0 0.672,-0.163 1.171,-0.499 0.335,-0.163 0.503,-3.503 0.667,-6.166 0,-1.003 0.168,-5.331 0.168,-6.665 0,-1.498 0.998,-2.002 1.665,-2.669 0.667,-0.667 1.833,-1.17 1.833,-3.666 0.168,-2.505 -2.332,-5 -2.5,-11.334 -0.164,-2.5 1.502,-7.165 2.169,-8.667 -1.833,0 -7.333,2.668 -7.333,9.833 0,7.337 -2.672,9.501 -3.335,10.168 C 9.66,65.917 7.5,68.417 4.659,68.417 1.828,68.417 0,65.581 0,65.581 c 0,0 1.665,0.504 3.666,-0.83 1.828,-1.166 3.326,-6.171 3.494,-8.834 0.34,-2.668 1.166,-4.166 2.001,-6.666 1.002,-2.5 4.165,-5.667 6.837,-6.339 2.664,-0.662 6.003,-0.499 7.664,0 1.833,-1.166 5,-3.666 12.827,-3.666 6.171,0 9.343,1.833 11.003,2.342 z m 14.338,0.499 -2.336,-5 4.669,1.497 0.998,1.67 z" /></g></svg>