<?xml version="1.0" encoding="UTF-8" standalone="no"?>
<svg
   xmlns:dc="http://purl.org/dc/elements/1.1/"
   xmlns:cc="http://creativecommons.org/ns#"
   xmlns:rdf="http://www.w3.org/1999/02/22-rdf-syntax-ns#"
   xmlns:svg="http://www.w3.org/2000/svg"
   xmlns="http://www.w3.org/2000/svg"
   id="svg2"
   height="128"
   width="128"
   version="1.0">
  <metadata
     id="metadata2975">
    <rdf:RDF>
      <cc:Work
         rdf:about="">
        <dc:format>image/svg+xml</dc:format>
        <dc:type
           rdf:resource="http://purl.org/dc/dcmitype/StillImage" />
        <cc:license
           rdf:resource="http://web.resource.org/cc/PublicDomain" />
        <dc:language>en</dc:language>
        <dc:title></dc:title>
      </cc:Work>
    </rdf:RDF>
  </metadata>
  <defs
     id="defs4" />
  <path
     id="path828-6"
     d="m 21.52031,1.52046 h 84.95938 c 11.11992,0 19.99985,8.87994 19.99985,19.99986 v 84.95937 c 0,11.11992 -8.87993,19.99985 -19.99985,19.99985 H 21.52031 c -11.11992,0 -19.9998505,-8.87993 -19.9998505,-19.99985 V 21.52032 C 1.5204595,10.4004 10.40039,1.52046 21.52031,1.52046 Z"
     style="fill:#550000;fill-opacity:1;fill-rule:evenodd;stroke:#ffffff;stroke-width:3.03997755px;stroke-linecap:butt;stroke-linejoin:miter;stroke-miterlimit:4;stroke-dasharray:none;stroke-opacity:1" />
  <g
     style="fill:#ffffff;fill-opacity:1"
     id="g6"
     transform="matrix(0.21484354,0,0,0.21484354,8.9999777,9.000065)">
    <g
       style="fill:#ffffff;fill-opacity:1"
       id="g4">
      <path
         style="fill:#ffffff;fill-opacity:1"
         id="path2"
         d="m 319.265,365.073 c -1.169,8.244 3.595,16.435 11.754,19.287 9.28,3.245 19.436,-1.65 22.681,-10.933 l 5.657,-16.186 z" />
    </g>
  </g>
  <g
     style="fill:#ffffff;fill-opacity:1"
     id="g12"
     transform="matrix(0.21484354,0,0,0.21484354,8.9999777,9.000065)">
    <g
       style="fill:#ffffff;fill-opacity:1"
       id="g10">
      <circle
         style="fill:#ffffff;fill-opacity:1"
         id="circle8"
         r="32.745998"
         cy="104.574"
         cx="424.168" />
    </g>
  </g>
  <g
     style="fill:#ffffff;fill-opacity:1"
     id="g18"
     transform="matrix(0.21484354,0,0,0.21484354,8.9999777,9.000065)">
    <g
       style="fill:#ffffff;fill-opacity:1"
       id="g16">
      <circle
         style="fill:#ffffff;fill-opacity:1"
         id="circle14"
         r="32.745998"
         cy="180.354"
         cx="86.863998" />
    </g>
  </g>
  <g
     style="fill:#ffffff;fill-opacity:1"
     id="g24"
     transform="matrix(0.21484354,0,0,0.21484354,8.9999777,9.000065)">
    <g
       style="fill:#ffffff;fill-opacity:1"
       id="g22">
      <path
         style="fill:#ffffff;fill-opacity:1"
         id="path20"
         d="m 511.667,287.869 c -1.885,-9.65 -11.236,-15.945 -20.886,-14.061 l -21.834,4.264 c 6.954,-4.792 10.736,-12.476 10.758,-20.373 0.028,-10.079 0.203,-74.077 0.231,-84.266 0.038,-13.87 -11.296,-25.011 -25.023,-24.913 l -22.854,0.163 c -13.802,0.099 -24.882,11.44 -24.664,25.236 l 0.171,10.845 31.969,-22.324 -38.028,42.605 c -7.882,-0.763 -58.959,-5.705 -66.751,-6.458 -8.153,-0.785 -15.407,5.183 -16.197,13.339 -0.788,8.156 5.183,15.407 13.339,16.197 12.247,1.185 65.514,6.339 74.239,7.183 4.726,0.455 9.36,-1.373 12.498,-4.888 l 37.124,-41.593 -25.186,51.421 c -2.554,5.215 -4.676,10.975 -10.894,12.369 -37.919,6.611 -31.186,5.437 -55.161,9.617 -11.609,2.023 -13.797,11.802 -15.915,17.861 l -8.059,23.058 -161.432,31.531 c 1.615,13.832 -6.003,21.85 -10.03,26.911 l -10.67,13.413 82.748,-16.162 c 0,9.516 0,41.677 0,51.28 h -32.804 c -8.193,0 -14.836,6.643 -14.836,14.836 0,8.193 6.643,14.836 14.836,14.836 h 95.281 c 8.193,0 14.836,-6.643 14.836,-14.836 0,-8.193 -6.643,-14.836 -14.836,-14.836 h -32.804 c 0,-10.425 0,-43.416 0,-57.075 l 89.472,-17.476 c 0,-4.86 0,-1.428 0,-12.374 0,-5.318 -1.154,-15.496 9.029,-21.916 l 49.564,-31.05 -40.118,40.423 c -3.309,3.335 -5.167,7.843 -5.167,12.541 v 83.613 c 0,9.832 7.971,17.804 17.804,17.804 9.833,0 17.804,-7.971 17.804,-17.804 v -76.278 l 34.95,-35.216 -16.716,27.14 70.149,-13.701 c 9.654,-1.885 15.948,-11.236 14.063,-20.886 z" />
    </g>
  </g>
  <g
     style="fill:#ffffff;fill-opacity:1"
     id="g30"
     transform="matrix(0.21484354,0,0,0.21484354,8.9999777,9.000065)">
    <g
       style="fill:#ffffff;fill-opacity:1"
       id="g28">
      <path
         style="fill:#ffffff;fill-opacity:1"
         id="path26"
         d="m 182.514,290.121 c -0.641,-8.168 -7.778,-14.267 -15.951,-13.63 -16.813,1.318 -39.969,3.135 -56.927,4.465 l -38.14,-42.731 31.969,22.324 0.171,-10.845 c 0.218,-13.804 -10.87,-25.137 -24.674,-25.236 -25.2,-0.18 -24.622,-0.351 -28.103,0.376 -8.81,1.152 -19.802,10.702 -19.765,24.373 l 0.231,84.266 c 0.037,13.209 10.662,24.915 26.903,24.672 l -43.391,8.615 c -9.343,1.825 -15.978,10.543 -14.673,19.972 1.413,10.212 11.073,17.011 21.053,15.062 l 38.104,-7.443 25.013,-31.443 -19.735,-3.678 41.856,-0.122 -41.196,51.786 c -6.125,7.7 -5.237,19.073 2.399,25.278 7.704,6.259 19.007,5.009 25.164,-2.731 l 64.565,-81.162 c 9.136,-11.484 1.184,-28.89 -13.93,-28.89 h -0.052 l -78.91,0.231 18.384,-3.538 c 0,0 -4.011,-7.302 -27.605,-55.486 l 37.124,41.593 c 3.077,3.448 7.595,5.274 12.229,4.912 10.693,-0.838 56.802,-4.455 64.258,-5.041 8.167,-0.639 14.271,-7.78 13.629,-15.949 z" />
    </g>
  </g>
</svg>
