<?xml version="1.0" encoding="UTF-8" standalone="no"?>
<svg
   xmlns:i="http://ns.adobe.com/AdobeIllustrator/10.0/"
   xmlns:dc="http://purl.org/dc/elements/1.1/"
   xmlns:cc="http://creativecommons.org/ns#"
   xmlns:rdf="http://www.w3.org/1999/02/22-rdf-syntax-ns#"
   xmlns:svg="http://www.w3.org/2000/svg"
   xmlns="http://www.w3.org/2000/svg"
   id="svg2"
   height="128"
   width="128"
   version="1.0">
  <metadata
     id="metadata10">
    <rdf:RDF>
      <cc:Work
         rdf:about="">
        <dc:format>image/svg+xml</dc:format>
        <dc:type
           rdf:resource="http://purl.org/dc/dcmitype/StillImage" />
        <cc:license
           rdf:resource="http://web.resource.org/cc/PublicDomain" />
        <dc:language>en</dc:language>
        <dc:title></dc:title>
      </cc:Work>
    </rdf:RDF>
  </metadata>
  <defs
     id="defs4">
    <style
       id="style6"
       type="text/css">
   
    .fil0 {fill:#EF7900}
   
  </style>
  </defs>
  <path
     style="fill:#1b8389;fill-opacity:1;fill-rule:evenodd;stroke:#ffffff;stroke-width:3.03997755px;stroke-linecap:butt;stroke-linejoin:miter;stroke-miterlimit:4;stroke-dasharray:none;stroke-opacity:1"
     d="m 21.520311,1.520455 h 84.959379 c 11.11992,0 19.99985,8.87994 19.99985,19.99986 v 84.959375 c 0,11.11992 -8.87993,19.99985 -19.99985,19.99985 H 21.520311 c -11.11992,0 -19.999852,-8.87993 -19.999852,-19.99985 V 21.520315 c 0,-11.11992 8.879932,-19.99986 19.999852,-19.99986 z"
     id="path828" />
  <path
     id="path2443"
     style="fill:#ffffff;stroke-width:0.99999994"
     d="M 76.670557,11.639319 C 70.204251,5.387623 61.216299,4.106575 55.732472,9.2431529 49.757465,14.839894 51.744541,23.234889 58.210849,29.486703 c 5.064198,4.896213 11.107249,7.39334 16.568717,5.269672 2.248619,0.743879 6.055743,2.258515 9.733176,4.901121 -0.12279,0.560773 0.04,1.168053 0.49046,1.60356 l 10.939131,10.57627 c 0.70788,0.684521 1.85582,0.684521 2.56382,1.17e-4 l 1.28185,-1.239332 c 0.707877,-0.684519 0.707877,-1.794262 0,-2.478897 L 88.848883,37.54306 C 88.398433,37.107553 87.770433,36.950387 87.190422,37.068875 84.445792,33.498464 82.877619,29.802319 82.1116,27.631794 84.246252,22.384207 81.715536,16.51707 76.670557,11.639319 Z m 7.117025,24.728561 c -2.39994,-1.268311 -4.676961,-2.28539 -6.689539,-3.08828 0.61736,-0.494634 1.227586,-1.029583 1.82887,-1.610921 0.601401,-0.581338 1.15422,-1.172376 1.664978,-1.771359 0.831041,1.94652 1.883256,4.148946 3.195691,6.47056 z" />
  <g
     id="g859"
     transform="matrix(0.55543877,0,0,0.55543877,20.768455,27.479653)"
     style="stroke-width:1.80037844">
    <path
       style="fill:#ffffff;fill-opacity:1;fill-rule:evenodd;stroke:none;stroke-width:0.07244565;stroke-miterlimit:10"
       d="m 40.677964,39.383212 c -32.6645849,0 -59.178193,25.12373 -59.178193,56.077839 0,30.952989 26.5124881,56.070989 59.178193,56.070989 32.665707,0 59.178197,-25.118 59.178197,-56.070989 0,-30.954107 -26.513607,-56.077839 -59.178197,-56.077839 z m -4.440599,4.658332 12.34569,10.158037 -3.265146,12.962613 -13.713614,6.341077 -17.349954,-4.576245 -2.577748,-10.554783 6.654025,-9.993867 z M 66.977856,49.459163 82.870531,62.428617 78.395551,78.647275 63.870812,80.808852 50.28093,67.285321 52.453112,54.999912 Z M 9.7793721,51.866996 c -0.564728,2.207741 -1.132243,4.420634 -1.656632,6.628374 l -7.987579,2.045288 c 0.645404,-1.16408 1.458413,-2.245685 2.426519,-3.249202 0.847092,-1.0838 1.732841,-2.132633 2.983314,-2.975589 1.250467,-0.963379 2.49986,-1.726337 4.234378,-2.448871 z m 2.5433769,21.280574 16.009527,4.45312 4.076277,17.258403 -16.696926,12.846327 -14.5247439,-0.40359 -3.670712,-19.1874 z m 68.086882,9.788654 8.14569,13.653498 -11.25273,18.503358 -14.119178,-1.32704 -5.162368,-11.7587 8.674977,-16.622243 z m -95.802816,4.658331 8.4343881,2.68829 4.474968,18.626485 -5.444201,9.75446 c -1.2908058,0.52071 -2.5036371,-0.84405 -3.7944431,-3.65279 -1.41182,-3.0507 -3.307142,-9.19374 -3.952545,-13.76979 -0.605066,-4.617303 -0.565259,-9.110749 0.281833,-13.646655 z m 111.578636,7.503953 c 0.0403,4.656329 -0.32656,8.590822 -1.09297,12.565872 -0.92777,3.93267 -2.30035,7.50731 -3.67071,10.39745 -1.37036,2.72845 -2.62412,4.65983 -4.07628,5.94433 l -6.53029,-7.55183 11.41083,-19.187407 z m -60.552997,3.091873 18.195456,4.740419 5.808523,13.60561 -10.042901,13.12679 -22.670425,-4.73358 -7.465155,-14.85741 z m -10.565324,30.104729 24.045222,4.22055 6.894613,10.51373 -1.732245,4.61729 c -3.348032,0.48391 -6.741552,0.84318 -10.33161,0.92346 -3.711067,0.0803 -7.662669,-0.003 -11.252724,-0.40359 -3.832085,-0.56197 -7.383707,-1.56736 -10.489711,-2.572 -3.106004,-1.08268 -5.484451,-2.28387 -7.582013,-3.76908 l -0.281834,-5.41761 z"
       id="path10456" />
    <path
       style="clip-rule:evenodd;opacity:0.20192309;fill:#ffffff;fill-rule:evenodd;stroke:#000000;stroke-width:0.07244565;stroke-miterlimit:10"
       d="m 9.7791091,51.870324 c -1.734521,0.722534 -2.984992,1.485208 -4.23546,2.448587 -1.25047,0.842956 -2.137899,1.886617 -2.98499,2.970415 -0.968107,1.003519 -1.77486,2.087322 -2.420263,3.251402 l 7.986867,-2.047177 v 0 c 0.52439,-2.207741 1.089117,-4.415484 1.653846,-6.623227 z"
       i:knockout="Off"
       stroke-miterlimit="10"
       id="path10544" />
    <path
       style="clip-rule:evenodd;opacity:0.20192309;fill:#ffffff;fill-rule:evenodd;stroke:#000000;stroke-width:0.07244565;stroke-miterlimit:10"
       d="M 18.330706,48.378077 36.24065,44.042875 48.583992,54.198488 45.316638,67.163957 31.601814,73.506198 14.256595,68.930148 11.674981,58.373127 Z"
       i:knockout="Off"
       stroke-miterlimit="10"
       id="path10546" />
    <path
       style="clip-rule:evenodd;opacity:0.20192309;fill:#ffffff;fill-rule:evenodd;stroke:#000000;stroke-width:0.07244565;stroke-miterlimit:10"
       d="M 52.456413,55.001304 50.279296,67.284379 63.871977,80.811817 78.393571,78.644216 82.871051,62.427345 66.977988,49.461878 Z"
       i:knockout="Off"
       stroke-miterlimit="10"
       id="path10548" />
    <path
       style="clip-rule:evenodd;opacity:0.20192309;fill:#ffffff;fill-rule:evenodd;stroke:#000000;stroke-width:0.07244565;stroke-miterlimit:10"
       d="m 66.695616,85.387864 13.714835,-2.448585 8.14822,13.647859 -11.25423,18.504892 -14.118191,-1.32464 -5.162115,-11.76236 z"
       i:knockout="Off"
       stroke-miterlimit="10"
       id="path10550" />
    <path
       style="clip-rule:evenodd;opacity:0.20192309;fill:#ffffff;fill-rule:evenodd;stroke:#000000;stroke-width:0.07244565;stroke-miterlimit:10"
       d="m 87.348541,124.00328 -6.53471,-7.54646 11.41557,-19.188404 3.95309,-2.166486 c 0.0403,4.656328 -0.3227,8.58901 -1.08911,12.56406 -0.92778,3.93268 -2.30037,7.50632 -3.67073,10.39646 -1.37036,2.72846 -2.62195,4.65633 -4.07411,5.94083 z"
       i:knockout="Off"
       stroke-miterlimit="10"
       id="path10552" />
    <path
       style="clip-rule:evenodd;opacity:0.20192309;fill:#ffffff;fill-rule:evenodd;stroke:#000000;stroke-width:0.07244565;stroke-miterlimit:10"
       d="m 19.460161,110.07444 16.175423,-11.88167 18.19231,4.73661 5.808627,13.60883 -10.044085,13.12493 -22.669797,-4.73662 z"
       i:knockout="Off"
       stroke-miterlimit="10"
       id="path10554" />
    <path
       style="clip-rule:evenodd;opacity:0.20192309;fill:#ffffff;fill-rule:evenodd;stroke:#000000;stroke-width:0.07244565;stroke-miterlimit:10"
       d="m 54.271609,147.64507 c -3.34803,0.48392 -6.736398,0.84296 -10.326456,0.92324 -3.711068,0.0803 -7.664166,0 -11.254222,-0.40029 -3.832082,-0.56197 -7.381802,-1.56549 -10.487806,-2.57012 -3.106003,-1.08269 -5.485929,-2.28691 -7.583491,-3.77212 l -0.282363,-5.42011 10.729832,-8.10733 24.042401,4.2159 6.896626,10.51688 z"
       i:knockout="Off"
       stroke-miterlimit="10"
       id="path10556" />
    <path
       style="clip-rule:evenodd;opacity:0.20192309;fill:#ffffff;fill-rule:evenodd;stroke:#000000;stroke-width:0.07244565;stroke-miterlimit:10"
       d="M -2.4835559,88.117437 12.320384,73.144929 28.334457,77.600555 32.408568,94.861087 15.708754,107.70725 1.1871751,107.30472 Z"
       i:knockout="Off"
       stroke-miterlimit="10"
       id="path10558" />
    <path
       style="clip-rule:evenodd;opacity:0.20192309;fill:#ffffff;fill-rule:evenodd;stroke:#000000;stroke-width:0.07244565;stroke-miterlimit:10"
       d="m -7.9291479,118.66568 c -1.2908078,0.52071 -2.5009381,-0.84519 -3.7917461,-3.65393 -1.411819,-3.0507 -3.307692,-9.19224 -3.953095,-13.76828 -0.605067,-4.617305 -0.56473,-9.111958 0.282364,-13.647863 l 8.4305821,2.689431 4.477487,18.626432 z"
       i:knockout="Off"
       stroke-miterlimit="10"
       id="path10560" />
  </g>
</svg>
