<?xml version="1.0" encoding="UTF-8" standalone="no"?>
<svg
   xmlns:dc="http://purl.org/dc/elements/1.1/"
   xmlns:cc="http://creativecommons.org/ns#"
   xmlns:rdf="http://www.w3.org/1999/02/22-rdf-syntax-ns#"
   xmlns:svg="http://www.w3.org/2000/svg"
   xmlns="http://www.w3.org/2000/svg"
   version="1.0"
   width="128"
   height="128"
   id="svg2">
  <metadata
     id="metadata2975">
    <rdf:RDF>
      <cc:Work
         rdf:about="">
        <dc:format>image/svg+xml</dc:format>
        <dc:type
           rdf:resource="http://purl.org/dc/dcmitype/StillImage" />
        <cc:license
           rdf:resource="http://web.resource.org/cc/PublicDomain" />
        <dc:language>en</dc:language>
        <dc:title></dc:title>
      </cc:Work>
    </rdf:RDF>
  </metadata>
  <defs
     id="defs4" />
  <path
     style="fill:#1b8389;fill-opacity:1;fill-rule:evenodd;stroke:#ffffff;stroke-width:3.03997755px;stroke-linecap:butt;stroke-linejoin:miter;stroke-miterlimit:4;stroke-dasharray:none;stroke-opacity:1"
     d="m 21.520309,1.5204597 h 84.959381 c 11.11992,0 19.99985,8.8799403 19.99985,19.9998603 v 84.95937 c 0,11.11992 -8.87993,19.99985 -19.99985,19.99985 H 21.520309 c -11.11992,0 -19.999852,-8.87993 -19.999852,-19.99985 V 21.52032 c 0,-11.11992 8.879932,-19.9998603 19.999852,-19.9998603 z"
     id="path828" />
  <rect
     style="fill:#ffffff;fill-opacity:1;stroke:#ffffff;stroke-width:4.59652853;stroke-linecap:square;stroke-linejoin:miter;stroke-miterlimit:4;stroke-dasharray:none;stroke-opacity:1"
     id="rect2996"
     width="2.5941157"
     height="102.33445"
     x="16.359459"
     y="14.508744" />
  <path
     style="fill:#ffffff;fill-opacity:1;fill-rule:evenodd;stroke:none;stroke-width:0.21943007px;stroke-linecap:butt;stroke-linejoin:miter;stroke-opacity:1"
     d="M 17.3737,13.525983 56.84452,28.142062 17.447204,44.101616 Z"
     id="path2998" />
  <path
     style="font-style:normal;font-weight:normal;font-size:40px;font-family:'Bitstream Vera Sans';fill:#ffffff;fill-opacity:1;stroke:none;stroke-width:0.88596714px;stroke-linecap:butt;stroke-linejoin:miter;stroke-opacity:1"
     d="m 85.420885,36.641205 c -6.5e-5,-2.291422 -0.831389,-4.222362 -2.493982,-5.792823 -1.662718,-1.570312 -3.645415,-2.35551 -5.948101,-2.35558 -2.300187,7e-5 -4.260771,0.785268 -5.881745,2.35558 -1.621074,1.570461 -2.431581,3.501401 -2.431537,5.792823 -4.4e-5,2.288976 0.810463,4.218626 2.431537,5.788945 1.620974,1.570446 3.581558,2.355641 5.881745,2.355587 2.302686,5.4e-5 4.285383,-0.785141 5.948101,-2.355587 1.662593,-1.570319 2.493917,-3.499969 2.493982,-5.788945 z M 63.423863,121.39943 c 1.790106,-2e-5 3.239394,-0.848 4.34788,-2.54396 l 24.04218,-36.019224 1.280161,4.963614 -3.579,26.98141 c -0.171801,1.35676 0.126125,2.56594 0.893769,3.62756 0.767511,1.06158 1.833019,1.71925 3.196525,1.97301 1.365956,0.25374 2.624003,-0.022 3.774151,-0.82726 1.149987,-0.80528 1.810886,-1.88759 1.982697,-3.24694 l 3.707794,-27.614486 c 0.0858,-0.934709 8.8e-4,-1.910859 -0.25369,-2.928459 L 94.627944,53.310881 115.98879,49.493017 c 1.10834,-0.16825 2.00342,-0.740477 2.68523,-1.716687 0.68163,-0.97609 0.93661,-2.015679 0.76499,-3.118761 -0.25509,-1.102966 -0.89389,-2.036394 -1.91636,-2.80029 L 68.411833,9.6597949 63.935147,16.149787 c -1.108477,1.527747 -0.852186,2.843094 0.76888,3.946034 1.532517,0.932214 2.853009,0.677177 3.961493,-0.765127 l 2.560335,-3.817872 39.899855,26.091999 -32.609139,5.853029 c -1.194359,0.253811 -2.153834,0.868761 -2.878431,1.844856 -0.724701,0.976205 -0.916591,2.015794 -0.575681,3.11876 l 7.033112,27.362039 -23.019595,34.236525 c -0.426759,0.76123 -0.640126,1.56649 -0.64009,2.41578 -3.6e-5,1.35676 0.490437,2.52322 1.471412,3.49939 0.980904,0.97613 2.153088,1.46421 3.516565,1.46423 z"
     id="flowRoot2383" />
</svg>
