<?xml version="1.0" encoding="UTF-8" standalone="no"?>
<svg
   xmlns:dc="http://purl.org/dc/elements/1.1/"
   xmlns:cc="http://creativecommons.org/ns#"
   xmlns:rdf="http://www.w3.org/1999/02/22-rdf-syntax-ns#"
   xmlns:svg="http://www.w3.org/2000/svg"
   xmlns="http://www.w3.org/2000/svg"
   id="svg2"
   height="128"
   width="128"
   version="1.0">
  <metadata
     id="metadata2975">
    <rdf:RDF>
      <cc:Work
         rdf:about="">
        <dc:format>image/svg+xml</dc:format>
        <dc:type
           rdf:resource="http://purl.org/dc/dcmitype/StillImage" />
        <cc:license
           rdf:resource="http://web.resource.org/cc/PublicDomain" />
        <dc:language>en</dc:language>
        <dc:title></dc:title>
      </cc:Work>
    </rdf:RDF>
  </metadata>
  <defs
     id="defs4">
    <symbol
       id="symbol-university"
       viewBox="244.5 110 489 219.9">
      <path
         d="m 79,43 57,119 c 0,0 21,-96 104,-96 83,0 124,106 124,106 L 407,39 489,22 0,17 Z"
         id="path4460" />
      <path
         style="fill:none;stroke:#000000;stroke-width:20"
         d="M 94,176 73,215"
         id="path4462" />
      <path
         d="M 300,19 C 300,29.5 277.4,38 249.5,38 221.6,38 199,29.5 199,19 199,8.5 221.6,0 249.5,0 277.4,0 300,8.5 300,19 Z"
         id="path4464" />
      <path
         style="stroke:#000000;stroke-width:20"
         ill="none"
         d="M 112,216 96,178 64,88 C 64,88 55,80 60,53 65,26 76,29 76,29"
         id="path4466" />
    </symbol>
    <marker
       orient="auto"
       refY="0"
       refX="0"
       id="Arrow2Lend"
       style="overflow:visible">
      <path
         id="path4137"
         style="font-size:12px;fill-rule:evenodd;stroke-width:0.625;stroke-linejoin:round"
         d="M 8.7185878,4.0337352 -2.2072895,0.01601326 8.7185884,-4.0017078 c -1.7454984,2.3720609 -1.7354408,5.6174519 -6e-7,8.035443 z"
         transform="matrix(-1.1,0,0,-1.1,-1.1,0)" />
    </marker>
    <marker
       orient="auto"
       refY="0"
       refX="0"
       id="Arrow1Mend"
       style="overflow:visible">
      <path
         id="path4125"
         d="M 0,0 5,-5 -12.5,0 5,5 Z"
         style="fill-rule:evenodd;stroke:#000000;stroke-width:1.00000003pt;marker-start:none"
         transform="matrix(-0.4,0,0,-0.4,-4,0)" />
    </marker>
    <marker
       orient="auto"
       refY="0"
       refX="0"
       id="TriangleOutL"
       style="overflow:visible">
      <path
         id="path4214"
         d="M 5.77,0 -2.88,5 V -5 Z"
         style="fill-rule:evenodd;stroke:#000000;stroke-width:1.00000003pt;marker-start:none"
         transform="scale(0.8)" />
    </marker>
    <marker
       orient="auto"
       refY="0"
       refX="0"
       id="Arrow1Lend"
       style="overflow:visible">
      <path
         id="path4119"
         d="M 0,0 5,-5 -12.5,0 5,5 Z"
         style="fill-rule:evenodd;stroke:#000000;stroke-width:1.00000003pt;marker-start:none"
         transform="matrix(-0.8,0,0,-0.8,-10,0)" />
    </marker>
    <marker
       orient="auto"
       refY="0"
       refX="0"
       id="Tail"
       style="overflow:visible">
      <g
         id="g4152"
         transform="scale(-1.2)">
        <path
           id="path4154"
           d="M -3.8048674,-3.9585227 0.54352094,0"
           style="fill:none;fill-rule:evenodd;stroke:#000000;stroke-width:0.80000001;stroke-linecap:round;marker-start:none;marker-end:none" />
        <path
           id="path4156"
           d="M -1.2866832,-3.9585227 3.0617053,0"
           style="fill:none;fill-rule:evenodd;stroke:#000000;stroke-width:0.80000001;stroke-linecap:round;marker-start:none;marker-end:none" />
        <path
           id="path4158"
           d="M 1.3053582,-3.9585227 5.6537466,0"
           style="fill:none;fill-rule:evenodd;stroke:#000000;stroke-width:0.80000001;stroke-linecap:round;marker-start:none;marker-end:none" />
        <path
           id="path4160"
           d="M -3.8048674,4.1775838 0.54352094,0.21974226"
           style="fill:none;fill-rule:evenodd;stroke:#000000;stroke-width:0.80000001;stroke-linecap:round;marker-start:none;marker-end:none" />
        <path
           id="path4162"
           d="M -1.2866832,4.1775838 3.0617053,0.21974226"
           style="fill:none;fill-rule:evenodd;stroke:#000000;stroke-width:0.80000001;stroke-linecap:round;marker-start:none;marker-end:none" />
        <path
           id="path4164"
           d="M 1.3053582,4.1775838 5.6537466,0.21974226"
           style="fill:none;fill-rule:evenodd;stroke:#000000;stroke-width:0.80000001;stroke-linecap:round;marker-start:none;marker-end:none" />
      </g>
    </marker>
    <marker
       orient="auto"
       refY="0"
       refX="0"
       id="Arrow1Sstart"
       style="overflow:visible">
      <path
         id="path4128"
         d="M 0,0 5,-5 -12.5,0 5,5 Z"
         style="fill-rule:evenodd;stroke:#000000;stroke-width:1.00000003pt;marker-start:none"
         transform="matrix(0.2,0,0,0.2,1.2,0)" />
    </marker>
    <marker
       orient="auto"
       refY="0"
       refX="0"
       id="Arrow1Send"
       style="overflow:visible">
      <path
         id="path4131"
         d="M 0,0 5,-5 -12.5,0 5,5 Z"
         style="fill-rule:evenodd;stroke:#000000;stroke-width:1.00000003pt;marker-start:none"
         transform="matrix(-0.2,0,0,-0.2,-1.2,0)" />
    </marker>
    <marker
       orient="auto"
       refY="0"
       refX="0"
       id="SemiCircleOut"
       style="overflow:visible">
      <path
         id="path4235"
         d="m -2.5,-0.80913858 c 0,2.75999998 -2.24,4.99999998 -5,4.99999998 v -10 c 2.76,0 5,2.24 5,5.00000002 z"
         style="fill-rule:evenodd;stroke:#000000;stroke-width:1.00000003pt;marker-start:none;marker-end:none"
         transform="matrix(0.6,0,0,0.6,4.2752958,0.4580676)" />
    </marker>
    <marker
       orient="auto"
       refY="0"
       refX="0"
       id="Arrow2Send"
       style="overflow:visible">
      <path
         id="path4149"
         style="font-size:12px;fill-rule:evenodd;stroke-width:0.625;stroke-linejoin:round"
         d="M 8.7185878,4.0337352 -2.2072895,0.01601326 8.7185884,-4.0017078 c -1.7454984,2.3720609 -1.7354408,5.6174519 -6e-7,8.035443 z"
         transform="matrix(-0.3,0,0,-0.3,0.69,0)" />
    </marker>
    <marker
       orient="auto"
       refY="0"
       refX="0"
       id="TriangleOutS"
       style="overflow:visible">
      <path
         id="path4220"
         d="M 5.77,0 -2.88,5 V -5 Z"
         style="fill-rule:evenodd;stroke:#000000;stroke-width:1.00000003pt;marker-start:none"
         transform="scale(0.2)" />
    </marker>
    <marker
       orient="auto"
       refY="0"
       refX="0"
       id="CurveIn"
       style="overflow:visible">
      <path
         id="path4238"
         d="m 4.625493,-5.0456926 c -2.76,0 -5.00000002,2.24 -5.00000002,5.00000002 0,2.75999998 2.24000002,4.99999998 5.00000002,4.99999998"
         style="fill:none;fill-rule:evenodd;stroke:#000000;stroke-width:1.00000003pt;marker-start:none;marker-end:none"
         transform="scale(0.6)" />
    </marker>
    <marker
       style="overflow:visible"
       id="InfiniteLineStart"
       refX="0"
       refY="0"
       orient="auto">
      <g
         id="g4298"
         transform="translate(-13)">
        <circle
           id="circle4300"
           r="0.80000001"
           cy="0"
           cx="3" />
        <circle
           id="circle4302"
           r="0.80000001"
           cy="0"
           cx="6.5" />
        <circle
           id="circle4304"
           r="0.80000001"
           cy="0"
           cx="10" />
      </g>
    </marker>
    <marker
       orient="auto"
       refY="0"
       refX="0"
       id="StopS"
       style="overflow:visible">
      <path
         id="path4229"
         d="M 0,5.65 V -5.65"
         style="fill:none;fill-opacity:0.75;fill-rule:evenodd;stroke:#000000;stroke-width:1.00000003pt"
         transform="scale(0.2)" />
    </marker>
    <marker
       orient="auto"
       refY="0"
       refX="0"
       id="Arrow2Sstart"
       style="overflow:visible">
      <path
         id="path4146"
         style="font-size:12px;fill-rule:evenodd;stroke-width:0.625;stroke-linejoin:round"
         d="M 8.7185878,4.0337352 -2.2072895,0.01601326 8.7185884,-4.0017078 c -1.7454984,2.3720609 -1.7354408,5.6174519 -6e-7,8.035443 z"
         transform="matrix(0.3,0,0,0.3,-0.69,0)" />
    </marker>
    <marker
       orient="auto"
       refY="0"
       refX="0"
       id="DiamondS"
       style="overflow:visible">
      <path
         id="path4202"
         d="M 0,-7.0710768 -7.0710894,0 0,7.0710589 7.0710462,0 Z"
         style="fill-rule:evenodd;stroke:#000000;stroke-width:1.00000003pt;marker-start:none"
         transform="scale(0.2)" />
    </marker>
    <marker
       id="RazorWire"
       refX="0"
       refY="0"
       orient="auto">
       style=&quot;overflow:visible&quot;&gt;
      <path
   id="path4286"
   transform="scale(0.8)"
   style="fill:#808080;fill-opacity:1;fill-rule:evenodd;stroke:#000000;stroke-width:0.10000001pt"
   d="m 0.02272727,-0.74009011 v 1.4375 L -7.7585227,3.0099099 H 10.678977 L 3.4914773,0.69740989 v -1.4375 L 10.741477,-2.8963401 H -7.7272727 Z" />
</marker>
  </defs>
  <path
     id="path828"
     d="m 21.520314,1.5204605 h 84.959376 c 11.11992,0 19.99985,8.8799405 19.99985,19.9998605 v 84.959369 c 0,11.11992 -8.87993,19.99985 -19.99985,19.99985 H 21.520314 c -11.119919,0 -19.9998525,-8.87993 -19.9998525,-19.99985 V 21.520321 c 0,-11.11992 8.8799325,-19.9998605 19.9998525,-19.9998605 z"
     style="fill:#1b8389;fill-opacity:1;fill-rule:evenodd;stroke:#ffffff;stroke-width:3.03997755px;stroke-linecap:butt;stroke-linejoin:miter;stroke-miterlimit:4;stroke-dasharray:none;stroke-opacity:1" />
  <g
     transform="matrix(48.14969,0,0,48.14969,-536.27327,-485.30675)"
     style="display:none;stroke:#757575;stroke-opacity:1"
     id="layer3">
    <rect
       y="1"
       x="1"
       height="10"
       width="10"
       id="rect4134"
       style="display:inline;fill:none;stroke:#757575;stroke-width:0.1;stroke-miterlimit:4;stroke-dasharray:none;stroke-opacity:1" />
    <rect
       y="2"
       x="2"
       height="8"
       width="8"
       id="rect4136"
       style="display:inline;fill:none;stroke:#757575;stroke-width:0.1;stroke-miterlimit:4;stroke-dasharray:none;stroke-opacity:1" />
  </g>
  <g
     style="fill:#fffff7;fill-opacity:1;stroke:none;stroke-opacity:1"
     id="g12"
     transform="matrix(1.6659766,0,0,1.6659766,13.999877,13.999754)">
    <g
       style="fill:#fffff7;fill-opacity:1;stroke:none;stroke-opacity:1"
       id="g10">
      <path
         style="fill:#fffff7;fill-opacity:1;stroke:none;stroke-opacity:1"
         id="path2"
         d="m 15.513,32.008 c -2.206,0 -4,1.794 -4,4 0,2.206 1.794,4 4,4 2.206,0 4,-1.794 4,-4 0,-2.206 -1.794,-4 -4,-4 z m 0,6 c -1.103,0 -2,-0.897 -2,-2 0,-1.103 0.897,-2 2,-2 1.103,0 2,0.897 2,2 0,1.103 -0.897,2 -2,2 z" />
      <path
         style="fill:#fffff7;fill-opacity:1;stroke:none;stroke-opacity:1"
         id="path4"
         d="m 21.513,34.008 c 2.206,0 4,-1.794 4,-4 0,-2.206 -1.794,-4 -4,-4 -2.206,0 -4,1.794 -4,4 0,2.206 1.794,4 4,4 z m 0,-6 c 1.103,0 2,0.897 2,2 0,1.103 -0.897,2 -2,2 -1.103,0 -2,-0.897 -2,-2 0,-1.103 0.898,-2 2,-2 z" />
      <path
         style="fill:#fffff7;fill-opacity:1;stroke:none;stroke-opacity:1"
         id="path6"
         d="m 25.513,34.024 c -2.206,0 -4,1.794 -4,4 0,2.206 1.794,4 4,4 2.206,0 4,-1.794 4,-4 0,-2.206 -1.794,-4 -4,-4 z m 0,6 c -1.103,0 -2,-0.897 -2,-2 0,-1.103 0.897,-2 2,-2 1.103,0 2,0.897 2,2 0,1.103 -0.897,2 -2,2 z" />
      <path
         style="fill:#fffff7;fill-opacity:1;stroke:none;stroke-opacity:1"
         id="path8"
         d="M 51.782,26.246 C 50.087,22.82 49.191,19.018 49.189,15.308 l 0.146,-2.594 c 0.112,-1.783 0.271,-3.616 0.577,-4.759 0.376,-1.408 0.389,-2.82 0.036,-4.084 -0.938,-3.366 -3.634,-3.987 -5.038,-3.852 -1.554,-0.155 -4.44,0.585 -5.193,4.504 -0.202,1.054 -0.139,2.185 0.196,3.457 0.304,1.16 0.585,3.111 0.685,5.048 l 0.004,0.084 c 0.039,0.791 0.047,1.498 0.023,2.14 0,3.768 -0.896,7.57 -2.591,10.995 -0.479,0.968 -0.907,1.924 -1.31,2.87 -3.389,-3.742 -8.268,-6.11 -13.702,-6.11 -10.206,0 -18.509,8.303 -18.509,18.509 0,10.206 8.303,18.509 18.509,18.509 5.108,0 9.738,-2.08 13.09,-5.437 1.48,3.599 3.329,5.437 5.513,5.437 h 6.565 c 3.012,0 4.599,-3.38 5.753,-6.686 1.041,-2.98 1.569,-6.223 1.569,-9.638 V 39.303 C 55.37,34.036 52.856,28.417 51.782,26.246 Z M 41.681,4.9 c 0.581,-3.029 2.681,-2.936 3.086,-2.885 l 0.142,0.021 0.142,-0.021 c 0.091,-0.01 2.226,-0.287 2.971,2.392 0.257,0.92 0.242,1.969 -0.041,3.031 -0.32,1.196 -0.489,2.889 -0.607,4.625 H 42.541 C 42.413,10.382 42.167,8.689 41.847,7.471 41.589,6.495 41.536,5.655 41.681,4.9 Z m 5.736,14.108 h -5.018 c 0.143,-1.187 0.226,-2.532 0.225,-3.719 0.014,-0.363 0.015,-0.751 0.01,-1.149 0,-0.027 10e-4,-0.05 10e-4,-0.077 h 4.619 c -0.006,0.106 -0.012,0.214 -0.017,0.319 l -0.046,0.869 c 0,1.217 0.084,2.569 0.226,3.757 z m -11.692,33.005 -0.07,0.109 c -3.031,3.604 -7.567,5.902 -12.633,5.902 -9.103,0 -16.509,-7.406 -16.509,-16.509 0,-9.103 7.406,-16.509 16.509,-16.509 5.449,0 10.276,2.666 13.285,6.75 0.218,0.296 0.428,0.597 0.624,0.903 0.059,0.092 0.113,0.186 0.17,0.28 0.187,0.305 0.37,0.612 0.536,0.926 0.058,0.111 0.108,0.227 0.164,0.339 0.225,0.451 0.427,0.911 0.609,1.378 0.11,0.285 0.222,0.57 0.316,0.862 0.06,0.183 0.108,0.37 0.162,0.556 0.087,0.305 0.169,0.613 0.239,0.925 0.04,0.181 0.077,0.363 0.111,0.545 0.064,0.339 0.115,0.683 0.157,1.029 0.02,0.16 0.043,0.32 0.058,0.481 0.047,0.506 0.078,1.018 0.078,1.536 0,0.534 -0.03,1.06 -0.08,1.581 -0.015,0.154 -0.041,0.305 -0.059,0.458 -0.045,0.367 -0.098,0.732 -0.167,1.091 -0.034,0.178 -0.076,0.354 -0.116,0.53 -0.073,0.321 -0.154,0.64 -0.246,0.954 -0.059,0.2 -0.12,0.398 -0.187,0.595 -0.088,0.263 -0.185,0.522 -0.286,0.78 -0.095,0.241 -0.19,0.481 -0.296,0.717 -0.074,0.167 -0.158,0.328 -0.237,0.492 -0.573,1.161 -1.278,2.269 -2.132,3.299 z M 53.513,43.7 c 0,3.19 -0.49,6.211 -1.458,8.979 -0.801,2.295 -2.073,5.346 -3.864,5.346 h -6.565 c -1.414,0 -2.842,-1.82 -4.033,-5.135 1.226,-1.567 2.2,-3.334 2.873,-5.246 0.021,-0.059 0.044,-0.116 0.064,-0.175 0.128,-0.375 0.24,-0.756 0.344,-1.142 0.048,-0.176 0.094,-0.352 0.136,-0.529 0.077,-0.322 0.148,-0.646 0.207,-0.974 0.052,-0.284 0.092,-0.57 0.131,-0.856 0.033,-0.251 0.073,-0.499 0.096,-0.753 0.053,-0.564 0.086,-1.13 0.086,-1.699 0,-0.573 -0.035,-1.141 -0.086,-1.705 -0.015,-0.169 -0.038,-0.334 -0.058,-0.502 -0.048,-0.404 -0.11,-0.806 -0.184,-1.204 -0.033,-0.174 -0.064,-0.348 -0.101,-0.52 -0.095,-0.436 -0.207,-0.867 -0.333,-1.294 -0.032,-0.109 -0.057,-0.22 -0.091,-0.328 -0.156,-0.494 -0.337,-0.981 -0.536,-1.461 -0.095,-0.23 -0.203,-0.453 -0.306,-0.679 -0.114,-0.247 -0.23,-0.493 -0.355,-0.736 -0.138,-0.269 -0.284,-0.533 -0.435,-0.795 -0.101,-0.174 -0.207,-0.345 -0.314,-0.516 -0.182,-0.292 -0.364,-0.582 -0.562,-0.863 -0.008,-0.011 -0.014,-0.023 -0.022,-0.033 0.487,-1.217 1.052,-2.475 1.68,-3.746 0.965,-1.951 1.683,-4.016 2.153,-6.125 h 5.856 c 0.47,2.111 1.188,4.175 2.152,6.125 2.115,4.276 3.433,8.846 3.524,12.197 z" />
    </g>
  </g>
</svg>
