<?xml version="1.0" encoding="UTF-8" standalone="no"?>
<svg
   xmlns:i="http://ns.adobe.com/AdobeIllustrator/10.0/"
   xmlns:dc="http://purl.org/dc/elements/1.1/"
   xmlns:cc="http://creativecommons.org/ns#"
   xmlns:rdf="http://www.w3.org/1999/02/22-rdf-syntax-ns#"
   xmlns:svg="http://www.w3.org/2000/svg"
   xmlns="http://www.w3.org/2000/svg"
   version="1.0"
   width="128"
   height="128"
   id="svg2">
  <metadata
     id="metadata1976">
    <rdf:RDF>
      <cc:Work
         rdf:about="">
        <dc:format>image/svg+xml</dc:format>
        <dc:type
           rdf:resource="http://purl.org/dc/dcmitype/StillImage" />
        <cc:license
           rdf:resource="http://web.resource.org/cc/PublicDomain" />
        <dc:language>en</dc:language>
        <dc:title></dc:title>
      </cc:Work>
    </rdf:RDF>
  </metadata>
  <defs
     id="defs4" />
  <path
     style="fill:#1b8389;fill-opacity:1;fill-rule:evenodd;stroke:#ffffff;stroke-width:3.03997755px;stroke-linecap:butt;stroke-linejoin:miter;stroke-miterlimit:4;stroke-dasharray:none;stroke-opacity:1"
     d="m 21.520312,1.5209302 h 84.959378 c 11.11992,0 19.99985,8.8799398 19.99985,19.9998598 v 84.95937 c 0,11.11992 -8.87993,19.99985 -19.99985,19.99985 H 21.520312 c -11.119921,0 -19.9998525,-8.87993 -19.9998525,-19.99985 V 21.52079 c 0,-11.11992 8.8799315,-19.9998598 19.9998525,-19.9998598 z"
     id="path828" />
  <path
     d="m 120.23946,35.753151 c 0,0.574439 -0.41933,0.830949 -0.93205,0.570105 L 66.525456,19.089105 c -0.512711,-0.260845 -1.358142,-0.274093 -1.878572,-0.0289 L 8.9983279,35.629592 C 8.4778961,35.874784 8.0520445,35.605026 8.0520445,35.030586 v -4.654767 c 0,-0.57444 0.4258516,-1.244981 0.9462834,-1.490171 L 64.646884,12.316258 c 0.52043,-0.24519 1.365861,-0.231944 1.878572,0.0289 l 52.781954,17.234151 c 0.51272,0.260844 0.93205,0.944632 0.93205,1.519072 z"
     style="fill:none;fill-opacity:1;stroke:#ffffff;stroke-width:7.23196077"
     id="path2253" />
  <path
     d="m 114.93588,93.072355 c -0.89904,0.27402 -2.06013,0.221474 -3.58315,-0.103672 -1.54793,-0.351702 -2.95889,-1.991283 -5.53065,-1.900604 -2.63431,0.09125 -6.354989,2.446941 -9.95003,2.446941 -3.645973,-0.0774 -7.74076,-2.551177 -11.46116,-2.551177 -3.707946,0.02627 -7.078859,2.589879 -10.636822,2.66813 -3.620509,0.01272 -7.228561,-2.3944 -10.774074,-2.446377 -3.595604,-0.09096 -7.00387,2.134787 -10.36233,2.108233 -3.308376,-0.06469 -6.242358,-2.433948 -9.525831,-2.329986 -3.370913,0.130792 -7.066408,2.733383 -10.362328,2.889604 -3.320826,0.05226 -6.3298,-2.420387 -9.263502,-2.446945 -2.958607,-0.05198 -6.279712,1.809077 -8.2773,2.225753 -1.997591,0.377973 -3.258569,0.416958 -3.732853,0.117235 v 6.89815 c 0.474284,0.29916 1.735262,0.26046 3.732853,-0.11723 1.997588,-0.41667 5.318413,-2.277729 8.2773,-2.225748 2.933984,0.02627 5.942676,2.498918 9.263502,2.446378 3.29592,-0.12967 6.991415,-2.798078 10.362328,-2.889325 3.283473,-0.129948 6.217173,2.290725 9.525831,2.342705 3.35846,0.0266 6.766726,-2.18592 10.36233,-2.120946 3.545513,0.05169 7.153565,2.459086 10.774074,2.446656 3.557963,-0.0782 6.928876,-2.642426 10.636822,-2.668415 3.7204,-0.01243 7.815187,2.499205 11.46116,2.564745 3.595041,0 7.31601,-2.356547 9.95003,-2.447226 2.57176,-0.117519 3.98272,1.548615 5.53065,1.887041 1.52302,0.325425 2.68411,0.377405 3.58315,0.103955 z"
     i:knockout="Off"
     id="path113"
     style="clip-rule:evenodd;fill:#ffffff;fill-opacity:1;fill-rule:evenodd;stroke-width:0.22055426" />
  <path
     d="M 55.77115,89.402795 84.335616,74.188376 c -2.246612,-4.919867 -3.832459,-8.6287 -4.756403,-11.27084 -0.949132,-2.629149 -1.348421,-3.214752 -0.811598,-4.464211 0.549271,-1.288445 -0.212239,-1.483644 3.970271,-3.188481 4.18195,-1.770093 16.691568,-6.845894 20.773904,-7.093074 3.99518,-0.208198 3.83303,4.190757 3.17141,5.674686 -0.72444,1.44438 -4.44484,1.808792 -7.266201,2.954293 -2.859277,1.09324 -6.005214,2.316429 -9.638173,3.670128 L 102.84989,89.1816 c -1.68517,1.444382 -3.920187,2.00456 -6.941331,1.782808 -3.071234,-0.298595 -7.166306,-3.213902 -10.986311,-3.227745 -3.807846,0.01384 -8.152508,3.267291 -11.635481,3.33198 -3.495709,-0.01327 -6.26726,-2.824062 -9.188794,-3.109942 -2.93342,-0.287296 -5.69252,0.194069 -8.326823,1.444094 z"
     i:knockout="Off"
     id="path115"
     style="clip-rule:evenodd;fill:#ffffff;fill-opacity:1;fill-rule:evenodd;stroke-width:0.22055426" />
  <path
     d="m 107.09126,64.55881 c 4.40381,0 7.97734,3.725496 7.97734,8.316264 0,4.590767 -3.57381,8.316261 -7.97734,8.316261 -4.40352,0 -7.977617,-3.725494 -7.977617,-8.316261 0,-4.590768 3.573807,-8.316264 7.977617,-8.316264"
     i:knockout="Off"
     id="path117"
     style="clip-rule:evenodd;fill:#ffffff;fill-opacity:1;fill-rule:evenodd;stroke-width:0.22055426" />
  <path
     d="m 36.495087,89.962124 c -3.383364,-0.624869 -6.828984,-1.587033 -10.574285,-2.889599 -3.770487,-1.37884 -10.199897,-3.227463 -11.723205,-5.036538 -1.523024,-1.861054 -0.412025,-5.583161 2.659488,-5.752375 3.083404,-0.169209 9.200966,2.563894 15.555666,4.828627 6.317065,2.239025 13.545626,5.037101 22.072801,8.538018 -1.048739,0.572611 -2.434521,0.754817 -4.207415,0.494358 -1.797805,-0.299723 -4.069883,-1.952579 -6.379607,-2.004276 -2.322172,-0.03927 -4.756688,0.585605 -7.403443,1.821785 z"
     i:knockout="Off"
     id="path119"
     style="clip-rule:evenodd;fill:#ffffff;fill-opacity:1;fill-rule:evenodd;stroke-width:0.22055426" />
  <path
     d="m 114.93588,104.61721 c -0.89904,0.2469 -2.06013,0.2082 -3.58315,-0.11723 -1.54793,-0.33814 -2.95889,-2.00484 -5.53065,-1.88761 -2.63431,0.091 -6.354989,2.44666 -9.95003,2.44666 -3.645973,-0.0777 -7.74076,-2.55061 -11.46116,-2.55061 -3.707946,0.0263 -7.078859,2.59016 -10.636822,2.66784 -3.620509,0.0133 -7.228561,-2.39439 -10.774074,-2.44665 -3.595604,-0.0912 -7.00387,2.1345 -10.36233,2.10851 -3.308376,-0.065 -6.242358,-2.43394 -9.525831,-2.3297 -3.370913,0.12994 -7.066408,2.73282 -10.362328,2.8896 -3.320826,0.0517 -6.3298,-2.42123 -9.263502,-2.44722 -2.958607,-0.0517 -6.279712,1.80907 -8.2773,2.22575 -1.997591,0.40396 -3.258569,0.3904 -3.732853,0.10424 v 6.89787 c 0.474284,0.28616 1.735262,0.29972 3.732853,-0.10424 1.997588,-0.41696 5.318413,-2.27744 8.2773,-2.22575 2.933984,0.026 5.942676,2.49892 9.263502,2.44722 3.29592,-0.15678 6.991415,-2.75965 10.362328,-2.8896 3.283473,-0.10424 6.217173,2.26473 9.525831,2.32971 3.35846,0.026 6.766726,-2.19976 10.36233,-2.10852 3.545513,0.0523 7.153565,2.45994 10.774074,2.44666 3.557963,-0.0777 6.928876,-2.64242 10.636822,-2.66785 3.7204,0 7.815187,2.47293 11.46116,2.55061 3.595041,0 7.31601,-2.35569 9.95003,-2.44666 2.57176,-0.0912 3.98272,1.54834 5.53065,1.90032 1.52302,0.32544 2.68411,0.37769 3.58315,0.10453 z"
     i:knockout="Off"
     id="path121"
     style="clip-rule:evenodd;fill:#ffffff;fill-opacity:1;fill-rule:evenodd;stroke-width:0.22055426" />
</svg>
