<?xml version="1.0" encoding="UTF-8" standalone="no"?>
<svg
   xmlns:dc="http://purl.org/dc/elements/1.1/"
   xmlns:cc="http://creativecommons.org/ns#"
   xmlns:rdf="http://www.w3.org/1999/02/22-rdf-syntax-ns#"
   xmlns:svg="http://www.w3.org/2000/svg"
   xmlns="http://www.w3.org/2000/svg"
   id="svg2"
   height="128"
   width="128"
   version="1.0">
  <metadata
     id="metadata2975">
    <rdf:RDF>
      <cc:Work
         rdf:about="">
        <dc:format>image/svg+xml</dc:format>
        <dc:type
           rdf:resource="http://purl.org/dc/dcmitype/StillImage" />
        <cc:license
           rdf:resource="http://web.resource.org/cc/PublicDomain" />
        <dc:language>en</dc:language>
        <dc:title></dc:title>
      </cc:Work>
    </rdf:RDF>
  </metadata>
  <defs
     id="defs4" />
  <path
     id="path828-6"
     d="m 21.52031,1.52046 h 84.95938 c 11.11992,0 19.99985,8.87994 19.99985,19.99986 v 84.95937 c 0,11.11992 -8.87993,19.99985 -19.99985,19.99985 H 21.52031 c -11.11992,0 -19.9998502,-8.87993 -19.9998502,-19.99985 V 21.52032 C 1.5204598,10.4004 10.40039,1.52046 21.52031,1.52046 Z"
     style="fill:#550000;fill-opacity:1;fill-rule:evenodd;stroke:#ffffff;stroke-width:3.03997755px;stroke-linecap:butt;stroke-linejoin:miter;stroke-miterlimit:4;stroke-dasharray:none;stroke-opacity:1" />
  <g
     style="fill:#ffffff;fill-opacity:1"
     id="XMLID_326_"
     transform="matrix(0.20132677,0,0,0.20132677,14.000037,13.999993)">
    <path
       style="fill:#ffffff;fill-opacity:1"
       d="m 387.148,122.322 c 22.27,0 40.316,-18.027 40.316,-40.283 0,-22.271 -18.047,-40.298 -40.316,-40.298 -22.258,0 -40.287,18.027 -40.287,40.298 0,22.256 18.029,40.283 40.287,40.283 z"
       id="XMLID_331_" />
    <path
       style="fill:#ffffff;fill-opacity:1"
       d="M 495.139,266.286 437.664,140.39 c -3.104,-6.854 -10.138,-9.815 -17.268,-9.815 -24.82,0 -39.216,-0.009 -66.485,-0.009 -7.13,0 -14.162,2.961 -17.277,9.824 l -57.461,125.896 c -3.965,8.662 -0.146,18.885 8.506,22.837 2.324,1.053 4.758,1.562 7.143,1.562 6.549,0 12.811,-3.746 15.694,-10.086 l 27.786,-60.887 v 65.589 c 0,0.114 -0.059,0.214 -0.059,0.329 v 148.651 c 0,11.426 9.258,20.683 20.677,20.683 11.423,0 20.677,-9.257 20.677,-20.683 V 311.044 h 15.099 v 123.237 c 0,11.426 9.255,20.683 20.676,20.683 11.419,0 20.677,-9.257 20.677,-20.683 V 285.63 c 0,-0.091 -0.044,-0.156 -0.044,-0.247 v -65.671 l 27.789,60.887 c 2.879,6.339 9.145,10.086 15.684,10.086 2.388,0 4.829,-0.509 7.157,-1.562 8.65,-3.952 12.465,-14.175 8.504,-22.837 z"
       id="XMLID_330_" />
    <path
       style="fill:#ffffff;fill-opacity:1"
       d="m 109.554,122.322 c 22.26,0 40.29,-18.027 40.29,-40.283 0,-22.271 -18.03,-40.298 -40.29,-40.298 -22.27,0 -40.308,18.027 -40.308,40.298 0,22.256 18.038,40.283 40.308,40.283 z"
       id="XMLID_329_" />
    <path
       style="fill:#ffffff;fill-opacity:1"
       d="m 160.067,140.391 c -2.837,-6.233 -8.954,-9.824 -15.38,-9.947 l -70.313,-0.006 c -6.427,0.13 -12.507,3.72 -15.337,9.954 L 1.566,266.286 c -3.962,8.662 -0.146,18.885 8.504,22.837 2.326,1.053 4.767,1.562 7.154,1.562 6.541,0 12.805,-3.746 15.686,-10.086 L 50.793,241.42 35.221,314.731 c -0.527,2.47 0.095,5.039 1.678,7 1.594,1.964 3.979,3.1 6.497,3.1 H 60.655 V 434.28 c 0,11.426 9.256,20.683 20.678,20.683 11.42,0 20.677,-9.257 20.677,-20.683 V 324.832 h 15.097 v 109.449 c 0,11.426 9.258,20.683 20.678,20.683 11.42,0 20.677,-9.257 20.677,-20.683 V 324.832 h 17.199 c 2.517,0 4.905,-1.136 6.489,-3.1 1.59,-1.961 2.215,-4.531 1.686,-7 l -15.607,-73.492 17.959,39.359 c 2.883,6.339 9.146,10.086 15.694,10.086 2.39,0 4.819,-0.509 7.146,-1.562 8.653,-3.952 12.468,-14.175 8.505,-22.837 z"
       id="XMLID_328_" />
    <path
       style="fill:#ffffff;fill-opacity:1"
       d="m 249.369,71.315 c -7.624,0 -13.791,6.177 -13.791,13.791 v 327.729 c 0,7.615 6.167,13.79 13.791,13.79 7.621,0 13.791,-6.175 13.791,-13.79 V 85.106 c 0,-7.613 -6.17,-13.791 -13.791,-13.791 z"
       id="XMLID_327_" />
  </g>
</svg>
