<?xml version="1.0" encoding="UTF-8" standalone="no"?>
<svg
   xmlns:dc="http://purl.org/dc/elements/1.1/"
   xmlns:cc="http://creativecommons.org/ns#"
   xmlns:rdf="http://www.w3.org/1999/02/22-rdf-syntax-ns#"
   xmlns:svg="http://www.w3.org/2000/svg"
   xmlns="http://www.w3.org/2000/svg"
   id="svg2"
   height="580"
   width="580"
   version="1.0">
  <metadata
     id="metadata10">
    <rdf:RDF>
      <cc:Work
         rdf:about="">
        <dc:format>image/svg+xml</dc:format>
        <dc:type
           rdf:resource="http://purl.org/dc/dcmitype/StillImage" />
        <cc:license
           rdf:resource="http://web.resource.org/cc/PublicDomain" />
        <dc:language>en</dc:language>
        <dc:title></dc:title>
      </cc:Work>
    </rdf:RDF>
  </metadata>
  <defs
     id="defs4">
    <style
       id="style6"
       type="text/css">
   
    .fil0 {fill:#EF7900}
   
  </style>
  </defs>
  <path
     style="fill:#ffffff;fill-opacity:1;fill-rule:nonzero;stroke:#ffffff;stroke-width:8;stroke-linecap:round;stroke-miterlimit:4;stroke-dasharray:none;stroke-opacity:1"
     id="path1061-9"
     d="m 325.57842,145.12474 a 24.449793,20.293367 0 0 1 -24.72705,20.00473 24.449793,20.293367 0 0 1 -24.16916,-20.46904 24.449793,20.293367 0 0 1 24.59568,-20.116 24.449793,20.293367 0 0 1 24.30284,20.35971" />
  <path
     style="fill:none;fill-opacity:0.75;fill-rule:evenodd;stroke:#ffffff;stroke-width:40;stroke-linecap:round;stroke-linejoin:miter;stroke-miterlimit:4;stroke-dasharray:none;stroke-opacity:1"
     id="path1686-8"
     d="m 300.54222,162.32883 c 0,0.30653 0,0.61309 0,0.91962 0,24.33311 -16.3327,236.26221 -120.43035,375.21518" />
  <path
     style="fill:none;fill-opacity:0.75;fill-rule:evenodd;stroke:#ffffff;stroke-width:40;stroke-linecap:round;stroke-linejoin:miter;stroke-miterlimit:4;stroke-dasharray:none;stroke-opacity:1"
     id="path2308-8"
     d="m 300.2498,161.86904 c 0,0.30654 0,0.6131 0,0.91963 0,24.33305 16.3327,236.26221 120.43031,375.21527" />
  <path
     style="fill:none;fill-opacity:1;fill-rule:nonzero;stroke:#ffffff;stroke-width:8;stroke-linecap:round;stroke-miterlimit:4;stroke-dasharray:none;stroke-opacity:1"
     id="path4190-7"
     d="M 426.91733,40.632983 A 158.18843,141.83838 0 0 1 479.52422,155.54343 158.18843,141.83838 0 0 1 411.05643,263.52726" />
  <path
     style="display:block;visibility:visible;fill:none;fill-opacity:1;fill-rule:nonzero;stroke:#ffffff;stroke-width:8;stroke-linecap:round;stroke-linejoin:miter;stroke-miterlimit:4;stroke-dasharray:none;stroke-dashoffset:0;stroke-opacity:1;marker:none;marker-start:none;marker-mid:none;marker-end:none"
     id="path4196-6"
     d="m 384.28752,75.974478 a 100.83003,90.408432 0 0 1 38.07655,76.607262 100.83003,90.408432 0 0 1 -48.52527,71.70202" />
  <path
     style="display:block;visibility:visible;fill:none;fill-opacity:1;fill-rule:nonzero;stroke:#ffffff;stroke-width:8;stroke-linecap:round;stroke-linejoin:miter;stroke-miterlimit:4;stroke-dasharray:none;stroke-dashoffset:0;stroke-opacity:1;marker:none;marker-start:none;marker-mid:none;marker-end:none"
     id="path4198-0"
     d="m 353.29363,111.26183 a 50.808395,42.17123 0 0 1 19.18682,35.73364 50.808395,42.17123 0 0 1 -24.45195,33.44558" />
  <path
     transform="scale(-1,1)"
     style="fill:none;fill-opacity:1;fill-rule:nonzero;stroke:#ffffff;stroke-width:8;stroke-linecap:round;stroke-miterlimit:4;stroke-dasharray:none;stroke-opacity:1"
     id="path4209-9"
     d="m -178.98877,40.848742 a 158.18843,141.83838 0 0 1 52.60689,114.910438 158.18843,141.83838 0 0 1 -68.46779,107.98384" />
  <path
     transform="scale(-1,1)"
     style="display:block;visibility:visible;fill:none;fill-opacity:1;fill-rule:nonzero;stroke:#ffffff;stroke-width:8;stroke-linecap:round;stroke-linejoin:miter;stroke-miterlimit:4;stroke-dasharray:none;stroke-dashoffset:0;stroke-opacity:1;marker:none;marker-start:none;marker-mid:none;marker-end:none"
     id="path4210-9"
     d="m -221.6198,76.190206 a 100.83003,90.408432 0 0 1 38.07655,76.607254 100.83003,90.408432 0 0 1 -48.52526,71.70203" />
  <path
     transform="scale(-1,1)"
     style="display:block;visibility:visible;fill:none;fill-opacity:1;fill-rule:nonzero;stroke:#ffffff;stroke-width:8;stroke-linecap:round;stroke-linejoin:miter;stroke-miterlimit:4;stroke-dasharray:none;stroke-dashoffset:0;stroke-opacity:1;marker:none;marker-start:none;marker-mid:none;marker-end:none"
     id="path4212-6"
     d="m -252.62294,111.4619 a 50.808395,42.17123 0 0 1 19.18683,35.73364 50.808395,42.17123 0 0 1 -24.45195,33.44558" />
  <path
     style="opacity:1;fill:none;fill-rule:evenodd;stroke:#ffffff;stroke-width:20;stroke-linecap:round;stroke-linejoin:miter;stroke-miterlimit:4;stroke-dasharray:none;stroke-opacity:1"
     d="m 325.84839,314.36712 -68.50394,63.41286"
     id="path3758-0" />
  <path
     id="path3768-1"
     d="m 275.37692,314.36712 68.50394,63.41286"
     style="opacity:1;fill:none;fill-rule:evenodd;stroke:#ffffff;stroke-width:20;stroke-linecap:round;stroke-linejoin:miter;stroke-miterlimit:4;stroke-dasharray:none;stroke-opacity:1" />
  <path
     id="path3770-7"
     d="m 270.86852,377.59954 107.2311,99.26189"
     style="opacity:1;fill:none;fill-rule:evenodd;stroke:#ffffff;stroke-width:20;stroke-linecap:round;stroke-linejoin:miter;stroke-miterlimit:4;stroke-dasharray:none;stroke-opacity:1" />
  <path
     style="opacity:1;fill:none;fill-rule:evenodd;stroke:#ffffff;stroke-width:20;stroke-linecap:round;stroke-linejoin:miter;stroke-miterlimit:4;stroke-dasharray:none;stroke-opacity:1"
     d="m 330.01303,377.59954 -107.2311,99.26189"
     id="path3772-2" />
  <g
     id="g4615">
    <path
       d="m 358.45099,388.88488 a 11.516535,11.516535 0 0 1 -11.64713,11.35273 11.516535,11.516535 0 0 1 -11.38435,-11.61623 11.516535,11.516535 0 0 1 11.58525,-11.41587 11.516535,11.516535 0 0 1 11.44732,11.55418"
       id="path1061"
       style="fill:#ffffff;fill-opacity:1;fill-rule:nonzero;stroke:#000000;stroke-width:1.25;stroke-linecap:round;stroke-miterlimit:4;stroke-opacity:1"
       transform="matrix(2.1230164,0,0,1.7621071,-435.4189,-539.85832)" />
    <path
       d="m 300.54222,162.60258 c 0,0.30653 0,0.61309 0,0.91962 0,24.33311 -16.3327,236.26221 -120.43035,375.21518"
       id="path1686"
       style="fill:none;fill-opacity:0.75;fill-rule:evenodd;stroke:#000000;stroke-width:19.80927849;stroke-linecap:round;stroke-linejoin:miter;stroke-miterlimit:4;stroke-opacity:1" />
    <path
       d="m 300.2498,162.14279 c 0,0.30654 0,0.6131 0,0.91963 0,24.33305 16.3327,236.26221 120.43031,375.21527"
       id="path2308"
       style="fill:none;fill-opacity:0.75;fill-rule:evenodd;stroke:#000000;stroke-width:19.80927849;stroke-linecap:round;stroke-linejoin:miter;stroke-miterlimit:4;stroke-opacity:1" />
    <path
       d="M 659.80826,385.01245 A 377.16653,377.16653 0 0 1 785.23816,690.57413 377.16653,377.16653 0 0 1 621.99133,977.71708"
       id="path4190"
       style="fill:none;fill-opacity:1;fill-rule:nonzero;stroke:#000000;stroke-width:12.499156;stroke-linecap:round;stroke-miterlimit:4;stroke-dasharray:none;stroke-opacity:1"
       transform="matrix(0.4194127,0,0,0.376063,150.18538,-103.88221)" />
    <path
       d="m 559.42058,478.0061 a 240.40767,240.40767 0 0 1 90.7854,203.70857 240.40767,240.40767 0 0 1 -115.69814,190.66492"
       id="path4196"
       style="display:block;visibility:visible;fill:none;fill-opacity:1;fill-rule:nonzero;stroke:#000000;stroke-width:12.499156;stroke-linecap:round;stroke-linejoin:miter;stroke-miterlimit:4;stroke-dasharray:none;stroke-dashoffset:0;stroke-opacity:1;marker:none;marker-start:none;marker-mid:none;marker-end:none"
       transform="matrix(0.4194127,0,0,0.376063,149.65944,-103.51218)" />
    <path
       d="m 485.29511,571.71763 a 120.92362,120.92362 0 0 1 45.66451,102.4642 120.92362,120.92362 0 0 1 -58.19547,95.90331"
       id="path4198"
       style="display:block;visibility:visible;fill:none;fill-opacity:1;fill-rule:nonzero;stroke:#000000;stroke-width:12.499156;stroke-linecap:round;stroke-linejoin:miter;stroke-miterlimit:4;stroke-dasharray:none;stroke-dashoffset:0;stroke-opacity:1;marker:none;marker-start:none;marker-mid:none;marker-end:none"
       transform="matrix(0.4201693,0,0,0.3487427,149.38752,-87.84677)" />
    <path
       d="M 659.80826,385.01245 A 377.16653,377.16653 0 0 1 785.23816,690.57413 377.16653,377.16653 0 0 1 621.99133,977.71708"
       id="path4209"
       style="fill:none;fill-opacity:1;fill-rule:nonzero;stroke:#000000;stroke-width:12.499156;stroke-linecap:round;stroke-miterlimit:4;stroke-dasharray:none;stroke-opacity:1"
       transform="matrix(-0.4194127,0,0,0.376063,455.72073,-103.66646)" />
    <path
       d="m 559.42058,478.0061 a 240.40767,240.40767 0 0 1 90.7854,203.70857 240.40767,240.40767 0 0 1 -115.69814,190.66492"
       id="path4210"
       style="display:block;visibility:visible;fill:none;fill-opacity:1;fill-rule:nonzero;stroke:#000000;stroke-width:12.499156;stroke-linecap:round;stroke-linejoin:miter;stroke-miterlimit:4;stroke-dasharray:none;stroke-dashoffset:0;stroke-opacity:1;marker:none;marker-start:none;marker-mid:none;marker-end:none"
       transform="matrix(-0.4194127,0,0,0.376063,456.24791,-103.29644)" />
    <path
       d="m 485.29511,571.71763 a 120.92362,120.92362 0 0 1 45.66451,102.4642 120.92362,120.92362 0 0 1 -58.19547,95.90331"
       id="path4212"
       style="display:block;visibility:visible;fill:none;fill-opacity:1;fill-rule:nonzero;stroke:#000000;stroke-width:12.499156;stroke-linecap:round;stroke-linejoin:miter;stroke-miterlimit:4;stroke-dasharray:none;stroke-dashoffset:0;stroke-opacity:1;marker:none;marker-start:none;marker-mid:none;marker-end:none"
       transform="matrix(-0.4201693,0,0,0.3487427,456.52906,-87.64671)" />
    <path
       id="path3758"
       d="m 325.84839,314.64087 -68.50394,63.41286"
       style="opacity:1;fill:none;fill-rule:evenodd;stroke:#000000;stroke-width:12.53017044;stroke-linecap:round;stroke-linejoin:miter;stroke-miterlimit:4;stroke-dasharray:none;stroke-opacity:1" />
    <path
       style="opacity:1;fill:none;fill-rule:evenodd;stroke:#000000;stroke-width:12.53017044;stroke-linecap:round;stroke-linejoin:miter;stroke-miterlimit:4;stroke-dasharray:none;stroke-opacity:1"
       d="m 275.37692,314.64087 68.50394,63.41286"
       id="path3768" />
    <path
       style="opacity:1;fill:none;fill-rule:evenodd;stroke:#000000;stroke-width:15.42174816;stroke-linecap:round;stroke-linejoin:miter;stroke-miterlimit:4;stroke-dasharray:none;stroke-opacity:1"
       d="m 270.86852,377.87329 107.2311,99.26189"
       id="path3770" />
    <path
       id="path3772"
       d="m 330.01303,377.87329 -107.2311,99.26189"
       style="opacity:1;fill:none;fill-rule:evenodd;stroke:#000000;stroke-width:15.42174816;stroke-linecap:round;stroke-linejoin:miter;stroke-miterlimit:4;stroke-dasharray:none;stroke-opacity:1" />
  </g>
</svg>
