<?xml version="1.0" encoding="UTF-8" standalone="no"?>
<svg
   xmlns:dc="http://purl.org/dc/elements/1.1/"
   xmlns:cc="http://creativecommons.org/ns#"
   xmlns:rdf="http://www.w3.org/1999/02/22-rdf-syntax-ns#"
   xmlns:svg="http://www.w3.org/2000/svg"
   xmlns="http://www.w3.org/2000/svg"
   id="svg9"
   version="1.1"
   viewBox="0 0 128 128"
   height="128"
   width="128">
  <metadata
     id="metadata15">
    <rdf:RDF>
      <cc:Work
         rdf:about="">
        <dc:format>image/svg+xml</dc:format>
        <dc:type
           rdf:resource="http://purl.org/dc/dcmitype/StillImage" />
        <dc:title></dc:title>
      </cc:Work>
    </rdf:RDF>
  </metadata>
  <defs
     id="defs13" />
  <g
     style="stroke-width:47.61904907"
     transform="matrix(0.021,0,0,0.021,1,1)"
     id="surface831">
    <path
       id="path2"
       transform="matrix(10,0,0,-10,3000,3000)"
       d="M 300,0 C 300,79.564844 268.39297,155.87109 212.13203,212.13203 155.87109,268.39297 79.564844,300 0,300 -79.564844,300 -155.87109,268.39297 -212.13203,212.13203 -268.39297,155.87109 -300,79.564844 -300,0 c 0,-79.564844 31.60703,-155.87109 87.86797,-212.13203 C -155.87109,-268.39297 -79.564844,-300 0,-300 c 79.564844,0 155.87109,31.60703 212.13203,87.86797 C 268.39297,-155.87109 300,-79.564844 300,0"
       style="fill:#f0f0e8;fill-opacity:1;fill-rule:evenodd;stroke:#282828;stroke-width:9.52380943;stroke-linecap:butt;stroke-linejoin:miter;stroke-miterlimit:3;stroke-opacity:1" />
    <path
       id="path4"
       d="M 5850,3000 C 5850,2244.1328 5549.7344,1519.2227 5015.2539,984.74609 4480.7773,450.26562 3755.8672,150 3000,150 2244.1328,150 1519.2227,450.26562 984.74609,984.74609 450.26562,1519.2227 150,2244.1328 150,3000 150,3755.8672 450.26562,4480.7773 984.74609,5015.2539 1519.2227,5549.7344 2244.1328,5850 3000,5850 3755.8672,5850 4480.7773,5549.7344 5015.2539,5015.2539 5549.7344,4480.7773 5850,3755.8672 5850,3000 m -750,0 C 5100,2443.0469 4878.75,1908.9023 4484.9258,1515.0742 4091.0977,1121.25 3556.9531,900 3000,900 2443.0469,900 1908.9023,1121.25 1515.0742,1515.0742 1121.25,1908.9023 900,2443.0469 900,3000 c 0,556.9531 221.25,1091.0977 615.0742,1484.9258 C 1908.9023,4878.75 2443.0469,5100 3000,5100 3556.9531,5100 4091.0977,4878.75 4484.9258,4484.9258 4878.75,4091.0977 5100,3556.9531 5100,3000"
       style="fill:#ba1c0f;fill-opacity:1;fill-rule:evenodd;stroke:none;stroke-width:47.61904907" />
    <path
       id="path6"
       d="m 2730,1890 h -221.8867 c -118.3594,0 -222.9219,77.0859 -257.9219,190.1523 l -196.0586,633.3086 C 2009.9844,2704.5078 1965.0469,2700 1920,2700 c -179.0195,0 -350.7109,71.1172 -477.2969,197.7031 C 1316.1172,3024.2891 1245,3195.9805 1245,3375 c 0,179.0195 71.1172,350.7109 197.7031,477.2969 C 1569.2891,3978.8828 1740.9805,4050 1920,4050 c 179.0195,0 350.7109,-71.1172 477.2969,-197.7031 C 2523.8828,3725.7109 2595,3554.0195 2595,3375 c 0,-132.6172 -39.0664,-262.3008 -112.3203,-372.8516 -73.2539,-110.5507 -177.4531,-197.0742 -299.582,-248.7617 l 53.6484,-173.2969 797.9766,885.2969 C 3060.3242,3493.7852 3096.7656,3510 3135,3510 h 283.6367 c 31.1172,152.4414 113.9414,289.4531 234.4571,387.8516 C 3773.6094,3996.2539 3924.4141,4050 4080,4050 c 179.0195,0 350.7109,-71.1172 477.2969,-197.7031 C 4683.8828,3725.7109 4755,3554.0195 4755,3375 4755,3195.9805 4683.8828,3024.2891 4557.2969,2897.7031 4430.7109,2771.1172 4259.0195,2700 4080,2700 c -71.0508,0 -141.6523,11.2188 -209.2031,33.2383 L 3675,2295 3725.625,2160 H 3877.5 v -135 h -573.75 c -18.6406,0 -33.75,15.1094 -33.75,33.75 0,15.6094 10.7031,29.1836 25.8867,32.8203 l 285.5586,68.4297 -50.625,135 H 2325 l 54.1523,-174.9219 c 17.5,-56.5351 69.7813,-95.0781 128.961,-95.0781 H 2730 v -135 m -446.7891,540 845.3047,937.8086 L 3480.1953,2430 H 2283.2109 M 3270,3375 h 135 c 0,-119.418 31.6797,-236.6992 91.8125,-339.875 60.1289,-103.1758 146.5547,-188.5547 250.457,-247.4219 L 3607.5273,2474.9297 3270,3375 M 2013.957,2843.2383 C 1982.9375,2837.7578 1951.5,2835 1920,2835 c -143.2187,0 -280.5664,56.8945 -381.8359,158.1641 C 1436.8945,3094.4336 1380,3231.7813 1380,3375 c 0,143.2188 56.8945,280.5664 158.1641,381.8359 C 1639.4336,3858.1055 1776.7813,3915 1920,3915 c 143.2188,0 280.5664,-56.8945 381.8359,-158.1641 C 2403.1055,3655.5664 2460,3518.2188 2460,3375 c 0,-103.7812 -29.9062,-205.3672 -86.1406,-292.5937 -56.2344,-87.2266 -136.4102,-156.4024 -230.9375,-199.2461 l -158.4414,511.8007 c -8.75,28.2657 -34.8907,47.5391 -64.4805,47.5391 -37.2773,0 -67.5,-30.2227 -67.5,-67.5 0,-6.7695 1.0195,-13.4961 3.0195,-19.9609 l 158.4414,-511.8008 M 3540,3375 h 469.6602 L 3802.6523,2911.6641 C 3639.7305,3009.1914 3540,3185.1172 3540,3375 m 17.1484,135 c 29.9297,115.9141 97.5274,218.5977 192.1719,291.9063 C 3843.9609,3875.2188 3960.2852,3915 4080,3915 c 143.2187,0 280.5664,-56.8945 381.8359,-158.1641 C 4563.1055,3655.5664 4620,3518.2188 4620,3375 4620,3231.7813 4563.1055,3094.4336 4461.8359,2993.1641 4360.5664,2891.8945 4223.2187,2835 4080,2835 c -52.0586,0 -103.8477,7.5273 -153.7539,22.3516 l 249.1328,557.6132 c 3.8711,8.6641 5.8711,18.0469 5.8711,27.5352 0,37.2773 -30.2227,67.5 -67.5,67.5 h -556.6016"
       style="fill:#282828;fill-opacity:1;fill-rule:evenodd;stroke:none;stroke-width:47.61904907" />
  </g>
</svg>
