<?xml version="1.0" encoding="UTF-8" standalone="no"?>
<svg
   xmlns:dc="http://purl.org/dc/elements/1.1/"
   xmlns:cc="http://creativecommons.org/ns#"
   xmlns:rdf="http://www.w3.org/1999/02/22-rdf-syntax-ns#"
   xmlns:svg="http://www.w3.org/2000/svg"
   xmlns="http://www.w3.org/2000/svg"
   id="svg13"
   version="1.1"
   viewBox="0 0 128 128"
   height="128"
   width="128">
  <metadata
     id="metadata19">
    <rdf:RDF>
      <cc:Work
         rdf:about="">
        <dc:format>image/svg+xml</dc:format>
        <dc:type
           rdf:resource="http://purl.org/dc/dcmitype/StillImage" />
        <dc:title></dc:title>
      </cc:Work>
    </rdf:RDF>
  </metadata>
  <defs
     id="defs17" />
  <g
     style="stroke-width:47.61904907"
     transform="matrix(0.021,0,0,0.021,1,1)"
     id="surface801">
    <path
       id="path2"
       transform="matrix(10,0,0,-10,3000,3000)"
       d="M 300,0 C 300,79.564844 268.39297,155.87109 212.13203,212.13203 155.87109,268.39297 79.564844,300 0,300 -79.564844,300 -155.87109,268.39297 -212.13203,212.13203 -268.39297,155.87109 -300,79.564844 -300,0 c 0,-79.564844 31.60703,-155.87109 87.86797,-212.13203 C -155.87109,-268.39297 -79.564844,-300 0,-300 c 79.564844,0 155.87109,31.60703 212.13203,87.86797 C 268.39297,-155.87109 300,-79.564844 300,0"
       style="fill:#f0f0e8;fill-opacity:1;fill-rule:evenodd;stroke:#282828;stroke-width:9.52380943;stroke-linecap:butt;stroke-linejoin:miter;stroke-miterlimit:3;stroke-opacity:1" />
    <path
       id="path4"
       d="M 5850,3000 C 5850,2244.1328 5549.7344,1519.2227 5015.2539,984.74609 4480.7773,450.26562 3755.8672,150 3000,150 2244.1328,150 1519.2227,450.26562 984.74609,984.74609 450.26562,1519.2227 150,2244.1328 150,3000 150,3755.8672 450.26562,4480.7773 984.74609,5015.2539 1519.2227,5549.7344 2244.1328,5850 3000,5850 3755.8672,5850 4480.7773,5549.7344 5015.2539,5015.2539 5549.7344,4480.7773 5850,3755.8672 5850,3000 m -750,0 C 5100,2443.0469 4878.75,1908.9023 4484.9258,1515.0742 4091.0977,1121.25 3556.9531,900 3000,900 2443.0469,900 1908.9023,1121.25 1515.0742,1515.0742 1121.25,1908.9023 900,2443.0469 900,3000 c 0,556.9531 221.25,1091.0977 615.0742,1484.9258 C 1908.9023,4878.75 2443.0469,5100 3000,5100 3556.9531,5100 4091.0977,4878.75 4484.9258,4484.9258 4878.75,4091.0977 5100,3556.9531 5100,3000"
       style="fill:#ba1c0f;fill-opacity:1;fill-rule:evenodd;stroke:none;stroke-width:47.61904907" />
    <path
       id="path6"
       d="m 1025,2950 v -100 h 3950 v 100 H 1025"
       style="fill:#282828;fill-opacity:1;fill-rule:evenodd;stroke:none;stroke-width:47.61904907" />
    <path
       id="path8"
       d="m 2643.2031,2403.3984 c 0,-191.4218 -155.1797,-346.6015 -346.6015,-346.6015 -191.4219,0 -346.6016,155.1797 -346.6016,346.6015 0,191.4219 155.1797,346.6016 346.6016,346.6016 191.4218,0 346.6015,-155.1797 346.6015,-346.6016 m -122.332,0 c 0,-123.8632 -100.4063,-224.2695 -224.2695,-224.2695 -123.8594,0 -224.2696,100.4063 -224.2696,224.2695 0,123.8594 100.4102,224.2696 224.2696,224.2696 123.8632,0 224.2695,-100.4102 224.2695,-224.2696 m 1529.1289,0 c 0,-191.4218 -155.1797,-346.6015 -346.6016,-346.6015 -191.4218,0 -346.6015,155.1797 -346.6015,346.6015 0,191.4219 155.1797,346.6016 346.6015,346.6016 C 3894.8203,2750 4050,2594.8203 4050,2403.3984 m -122.332,0 c 0,-123.8632 -100.4102,-224.2695 -224.2696,-224.2695 -123.8632,0 -224.2695,100.4063 -224.2695,224.2695 0,123.8594 100.4063,224.2696 224.2695,224.2696 123.8594,0 224.2696,-100.4102 224.2696,-224.2696 m -583.2227,122.3282 c -13.4219,-39.3868 -20.2695,-80.7149 -20.2695,-122.3282 0,-100.5781 39.9531,-197.0351 111.0703,-268.1523 71.1172,-71.1172 167.5742,-111.0703 268.1523,-111.0703 h 122.3321 c 22.5195,0 40.7734,-29.211 40.7734,-65.2422 0,-36.0352 -18.2539,-65.2461 -40.7734,-65.2461 H 3505.75 c -5.3594,-20.7578 -14.7578,-40.2578 -27.6641,-57.3828 l -79.6679,-105.7227 -216.4492,163.1094 h -314.4922 c -42.4922,0 -77.8633,32.6289 -81.2891,74.9844 v 0 c -80.168,-17.5039 -148.9219,-68.668 -188.7187,-140.4258 l 341.3476,-257.2266 223.5195,296.6211 216.4493,-163.1054 -203.5118,-270.0704 c -30.8164,-40.8984 -79.0546,-64.9492 -130.2617,-64.9492 -35.4179,0 -69.875,11.5313 -98.1601,32.8438 l -385.1875,290.2617 c -0.01,-0.9375 -0.012,-1.875 -0.012,-2.8125 0,-22.8242 2.7383,-45.5703 8.1524,-67.7422 -440.3867,132.9883 -375.1445,271.6289 -309.9024,403.8906 12.1993,-1.1836 24.4454,-1.7773 36.6993,-1.7773 83.0937,0 163.8906,27.289 229.9648,77.6797 66.0703,50.3906 113.7656,121.0859 135.75,201.2187 l 8.4805,38.7774 c 41.7265,204.2656 257.8437,171.6445 673.6523,183.8789 M 3149.8125,1367.3164 c 21.3828,-32.1289 32.793,-69.8633 32.793,-108.457 0,-108.0977 -87.6289,-195.7266 -195.7266,-195.7266 -93.4844,0 -173.918,66.1055 -192.0234,157.8164 l 134.8437,-19.2656 v 95.293 l -133.4101,19.0586 v 114.3554 l 72.9961,-10.4297 57.9336,-43.6562 c 33.9414,-25.5781 75.289,-39.4141 117.7929,-39.4141 37.1094,0 73.4571,10.5508 104.8008,30.4219"
       style="fill:#282828;fill-opacity:1;fill-rule:evenodd;stroke:none;stroke-width:47.61904907" />
    <path
       id="path10"
       d="m 2000,3914.2852 c 0,-30.9102 10.0273,-60.9844 28.5703,-85.7149 l 28.5742,-38.0937 c 19.9961,-26.6641 36.8164,-55.5703 50.1133,-86.1328 l 188.3438,-432.8008 c 18.9062,-43.4453 61.7773,-71.543 109.1601,-71.543 h 1190.4766 c 47.3828,0 90.2539,28.0977 109.1601,71.543 l 188.3438,432.8008 c 13.2969,30.5625 30.1172,59.4687 50.1133,86.1328 l 28.5742,38.0937 c 18.543,24.7305 28.5703,54.8047 28.5703,85.7149 v 309.5234 c 0,65.75 -53.3008,119.0508 -119.0469,119.0508 H 2119.0469 c -65.7461,0 -119.0469,-53.3008 -119.0469,-119.0508 v -309.5234 m 119.0469,476.1914 h 285.7148 v 261.9062 c 0,39.4492 -31.9804,71.4258 -71.4297,71.4258 h -142.8554 c -39.4493,0 -71.4297,-31.9766 -71.4297,-71.4258 v -261.9062 m 1476.1914,0 h 285.7148 v 261.9062 c 0,39.4492 -31.9804,71.4258 -71.4297,71.4258 H 3666.668 c -39.4492,0 -71.4297,-31.9766 -71.4297,-71.4258 v -261.9062 m -1369.0469,-666.668 163.6875,-376.1445 c 7.5625,-17.375 24.7109,-28.6172 43.6641,-28.6172 h 1132.914 c 18.9532,0 36.1016,11.2422 43.6641,28.6172 l 163.6875,376.1445 H 2226.1914 m 178.5703,261.9062 c 0,-78.8984 -63.957,-142.8554 -142.8554,-142.8554 -78.8985,0 -142.8594,63.957 -142.8594,142.8554 0,78.8985 63.9609,142.8555 142.8594,142.8555 78.8984,0 142.8554,-63.957 142.8554,-142.8555 m 1476.1914,0 c 0,-78.8984 -63.9609,-142.8554 -142.8593,-142.8554 -78.8985,0 -142.8555,63.957 -142.8555,142.8554 0,78.8985 63.957,142.8555 142.8555,142.8555 78.8984,0 142.8593,-63.957 142.8593,-142.8555"
       style="fill:#282828;fill-opacity:1;fill-rule:evenodd;stroke:none;stroke-width:47.61904907" />
  </g>
</svg>
