<?xml version="1.0" encoding="UTF-8" standalone="no"?>
<svg
   xmlns:dc="http://purl.org/dc/elements/1.1/"
   xmlns:cc="http://creativecommons.org/ns#"
   xmlns:rdf="http://www.w3.org/1999/02/22-rdf-syntax-ns#"
   xmlns:svg="http://www.w3.org/2000/svg"
   xmlns="http://www.w3.org/2000/svg"
   id="svg9"
   version="1.1"
   viewBox="0 0 128 128"
   height="128"
   width="128">
  <metadata
     id="metadata15">
    <rdf:RDF>
      <cc:Work
         rdf:about="">
        <dc:format>image/svg+xml</dc:format>
        <dc:type
           rdf:resource="http://purl.org/dc/dcmitype/StillImage" />
        <dc:title></dc:title>
      </cc:Work>
    </rdf:RDF>
  </metadata>
  <defs
     id="defs13" />
  <g
     style="stroke-width:47.61904907"
     transform="matrix(0.021,0,0,0.021,1,1)"
     id="surface836">
    <path
       id="path2"
       transform="matrix(10,0,0,-10,3000,3000)"
       d="M 300,0 C 300,79.564844 268.39297,155.87109 212.13203,212.13203 155.87109,268.39297 79.564844,300 0,300 -79.564844,300 -155.87109,268.39297 -212.13203,212.13203 -268.39297,155.87109 -300,79.564844 -300,0 c 0,-79.564844 31.60703,-155.87109 87.86797,-212.13203 C -155.87109,-268.39297 -79.564844,-300 0,-300 c 79.564844,0 155.87109,31.60703 212.13203,87.86797 C 268.39297,-155.87109 300,-79.564844 300,0"
       style="fill:#f0f0e8;fill-opacity:1;fill-rule:evenodd;stroke:#282828;stroke-width:9.52380943;stroke-linecap:butt;stroke-linejoin:miter;stroke-miterlimit:3;stroke-opacity:1" />
    <path
       id="path4"
       d="M 5850,3000 C 5850,2244.1328 5549.7344,1519.2227 5015.2539,984.74609 4480.7773,450.26562 3755.8672,150 3000,150 2244.1328,150 1519.2227,450.26562 984.74609,984.74609 450.26562,1519.2227 150,2244.1328 150,3000 150,3755.8672 450.26562,4480.7773 984.74609,5015.2539 1519.2227,5549.7344 2244.1328,5850 3000,5850 3755.8672,5850 4480.7773,5549.7344 5015.2539,5015.2539 5549.7344,4480.7773 5850,3755.8672 5850,3000 m -750,0 C 5100,2443.0469 4878.75,1908.9023 4484.9258,1515.0742 4091.0977,1121.25 3556.9531,900 3000,900 2443.0469,900 1908.9023,1121.25 1515.0742,1515.0742 1121.25,1908.9023 900,2443.0469 900,3000 c 0,556.9531 221.25,1091.0977 615.0742,1484.9258 C 1908.9023,4878.75 2443.0469,5100 3000,5100 3556.9531,5100 4091.0977,4878.75 4484.9258,4484.9258 4878.75,4091.0977 5100,3556.9531 5100,3000"
       style="fill:#ba1c0f;fill-opacity:1;fill-rule:evenodd;stroke:none;stroke-width:47.61904907" />
    <path
       id="path6"
       d="M 3069,3315.5977 2417.3867,4515.6953 C 2369.1016,4604.625 2276.0234,4660 2174.832,4660 c -46,0 -91.2695,-11.4961 -131.6953,-33.4453 L 2776.2773,3276.3008 C 2787.25,3256.0859 2793,3233.4492 2793,3210.4492 V 3176.5 h 552 v 33.9492 c 0,23 5.75,45.6367 16.7227,65.8516 L 3909.8125,4285.75 c 21.9492,40.4258 33.4453,85.6953 33.4453,131.6953 0,101.1914 -55.375,194.2695 -144.3047,242.5547 L 3069,3315.5977 M 3345,2306.9805 V 3107.5 h -552 v -662.0312 l -358.5117,552.0625 c -44.5391,68.582 -120.7617,109.9687 -202.5391,109.9687 -46.6875,0 -92.375,-13.5312 -131.5312,-38.9609 L 2779.6602,2022.5977 C 2843.2852,1924.6211 2952.1758,1865.5 3069,1865.5 c 81.1094,0 159.6289,28.5781 221.7617,80.7148 l 463.2969,388.75 C 3800.9297,2374.293 3828,2432.3477 3828,2493.5352 V 2831.5 c 0,133.375 -108.125,241.5 -241.5,241.5 V 2509.625 L 3345,2306.9805 M 3207,1486 c 0,-152.4297 -123.5703,-276 -276,-276 -152.4297,0 -276,123.5703 -276,276 0,152.4297 123.5703,276 276,276 152.4297,0 276,-123.5703 276,-276"
       style="fill:#282828;fill-opacity:1;fill-rule:evenodd;stroke:none;stroke-width:47.61904907" />
  </g>
</svg>
