<?xml version="1.0" encoding="UTF-8" standalone="no"?>
<svg
   xmlns:dc="http://purl.org/dc/elements/1.1/"
   xmlns:cc="http://creativecommons.org/ns#"
   xmlns:rdf="http://www.w3.org/1999/02/22-rdf-syntax-ns#"
   xmlns:svg="http://www.w3.org/2000/svg"
   xmlns="http://www.w3.org/2000/svg"
   id="svg8"
   version="1.1"
   viewBox="0 0 33.866666 33.866668"
   height="128"
   width="128">
  <defs
     id="defs2" />
  <metadata
     id="metadata5">
    <rdf:RDF>
      <cc:Work
         rdf:about="">
        <dc:format>image/svg+xml</dc:format>
        <dc:type
           rdf:resource="http://purl.org/dc/dcmitype/StillImage" />
        <dc:title></dc:title>
      </cc:Work>
    </rdf:RDF>
  </metadata>
  <path
     d="m 19.196395,6.2450457 -1.360087,-1.2128355 -0.645082,1.1e-6 C 13.711289,4.3486074 6.8400307,2.0839331 6.8400307,2.0839331 c 0,0 -2.5045588,1.9534217 -3.6478195,2.9482975 l -1.0582548,-6.381e-4 3.11e-4,2.6521335 2.3220505,0.00137 c 0,0 4.782e-4,-0.5916381 4.782e-4,-1.0503931 H 5.3781173 V 17.285184 H 4.499019 v 1.732083 H 9.1616171 L 9.1727771,17.30219 8.2894943,17.28518 V 9.3632317 h 1.0091415 c 0.4113886,0 0.5322603,-0.2257807 0.612931,-0.6292091 L 10.356021,6.6347074 h 6.031959 v 0.9028951 c 0,0.3809112 0.247282,0.7049217 0.589646,0.8205666 v 2.0307389 l 0.338698,-3.7e-5 V 8.3581321 c 0.34236,-0.1156448 0.58489,-0.4396849 0.589643,-0.8205664 V 6.6347074 l 1.29043,0.00789 z M 6.8400307,2.9033249 7.6413238,5.032213 H 6.0256944 Z M 8.218439,5.0322132 7.5440987,2.9491383 15.18912,5.0322132 Z M 6.1064878,3.383728 5.4485793,5.0322132 H 4.0342772 Z M 3.9040183,7.261189 H 2.6878741 V 5.4553987 H 3.9040183 Z M 5.9309254,7.0399614 6.5092936,7.9798193 5.9309254,8.9196783 Z m 0.9028943,5.2999206 0.6846894,1.112587 H 6.1491673 Z m -0.9028943,0.412493 v -1.87968 l 0.5783682,0.939859 z m 1.2274205,-0.939858 0.5783698,-0.939859 v 1.87968 z M 6.8338197,11.285152 6.1491305,10.172565 H 7.5184722 Z M 7.5185091,14.005262 6.8338197,15.11785 6.1491305,14.005262 Z M 7.7367157,8.9196783 7.1583459,7.9798193 7.7367157,7.0399614 Z M 7.5185091,9.6197723 H 6.1491673 L 6.8338568,8.5071839 Z M 6.5092936,15.645214 5.9309254,16.585072 v -1.87968 z m 0.3245261,0.527364 0.6846894,1.112589 H 6.1491673 Z m 0.3245262,-0.527364 0.5783698,-0.939858 v 1.879679 z M 6.8338197,7.4524557 6.3305942,6.634691 h 1.006488 z M 8.6323581,18.464458 H 4.9847542 v -0.6265 H 8.6323581 Z M 9.29865,9.0301261 H 8.2895084 V 7.5191596 H 9.8576336 L 9.6058187,8.7783105 C 9.5766293,8.9242479 9.4474616,9.0301261 9.29865,9.0301261 Z M 9.9681929,6.9663656 H 8.2895084 V 6.634691 h 1.7450196 z m 7.4976751,0.5712196 c 0,0.172729 -0.140519,0.3132492 -0.313247,0.3132492 -0.17273,0 -0.313251,-0.1405202 -0.313251,-0.3132492 V 6.634691 h 0.626498 z M 4.4563179,6.2153609 4.456811,5.4553987 H 17.6278 l 0.814554,0.7599622 z"
     id="path2"
     style="fill:#8c8c8c;fill-opacity:1;stroke-width:0.264583;stroke-miterlimit:4;stroke-dasharray:none" />
</svg>
