<?xml version="1.0" encoding="UTF-8" standalone="no"?>
<svg
   xmlns:dc="http://purl.org/dc/elements/1.1/"
   xmlns:cc="http://creativecommons.org/ns#"
   xmlns:rdf="http://www.w3.org/1999/02/22-rdf-syntax-ns#"
   xmlns:svg="http://www.w3.org/2000/svg"
   xmlns="http://www.w3.org/2000/svg"
   id="svg8"
   version="1.1"
   viewBox="0 0 128 128"
   height="128"
   width="128">
  <defs
     id="defs2" />
  <metadata
     id="metadata5">
    <rdf:RDF>
      <cc:Work
         rdf:about="">
        <dc:format>image/svg+xml</dc:format>
        <dc:type
           rdf:resource="http://purl.org/dc/dcmitype/StillImage" />
        <dc:title></dc:title>
      </cc:Work>
    </rdf:RDF>
  </metadata>
  <g
     style="stroke-width:1.14325035;stroke:#000000;stroke-opacity:0.70588237"
     transform="matrix(6.281867,0,0,6.2690638,-30.90432,-1739.8623)"
     id="layer1">
    <path
       style="fill:#963434;fill-opacity:0.44221114;fill-rule:evenodd;stroke:#000000;stroke-width:0.31870162;stroke-linecap:round;stroke-linejoin:round;stroke-miterlimit:4;stroke-dasharray:none;stroke-opacity:0.70588237"
       d="m 8.6138535,290.97246 c -1.2e-6,0.004 -2.92e-5,0.009 -3.16e-5,0.0124 4.242e-4,-0.004 9.274e-4,-0.009 0.00146,-0.0124 z m 3.9023635,7.3e-4 c 3.99e-4,0.004 7.3e-4,0.007 9.95e-4,0.0109 3.3e-5,-0.004 -4e-6,-0.007 3.2e-5,-0.0109 z m 9.95e-4,0.0143 c -0.0017,0.43985 -0.874998,0.79605 -1.951711,0.79609 -1.0760098,-4e-5 -1.9490026,-0.35579 -1.9517119,-0.79535 -0.048875,2.26074 -0.2342052,3.31984 -1.0827775,4.06007 1.3926667,0.51982 1.7444078,-0.72437 2.0193844,-0.72398 0.565757,7.9e-4 0.3418032,1.14508 1.147561,1.12906 0.805759,-0.0161 0.575176,-1.13151 1.074428,-1.12848 0.310115,0.002 0.770354,1.31564 2.165464,0.78407 -0.962346,-0.85384 -1.343764,-2.00851 -1.420637,-4.12148 z"
       id="path819" />
    <ellipse
       style="opacity:1;fill:#d4ac82;fill-opacity:0.41708548;fill-rule:nonzero;stroke:#000000;stroke-width:0.31870162;stroke-linecap:round;stroke-linejoin:round;stroke-miterlimit:4;stroke-dasharray:none;stroke-dashoffset:0;stroke-opacity:0.70588237;paint-order:normal"
       id="path817"
       ry="0.79735744"
       rx="1.9518646"
       cy="290.98633"
       cx="10.565499" />
    <path
       cx="94.747047"
       cy="104.83321"
       rx="31.404167"
       ry="11.759858"
       id="path840"
       style="opacity:1;fill:#ffffff;fill-opacity:1;fill-rule:nonzero;stroke:#000000;stroke-width:3.19611454;stroke-linecap:round;stroke-linejoin:round;stroke-miterlimit:4;stroke-dasharray:none;stroke-dashoffset:0;stroke-opacity:0.70588237;paint-order:normal"
       d="" />
    <path
       style="fill:none;fill-rule:evenodd;stroke:#000000;stroke-width:0.31870162;stroke-linecap:round;stroke-linejoin:round;stroke-miterlimit:4;stroke-dasharray:none;stroke-opacity:0.70588237"
       d="m 9.1405712,293.69507 c 0.3089423,-0.55159 0.2515345,-1.33087 0.2515345,-1.33087"
       id="path844" />
  </g>
  <g
     style="stroke-width:1.63664663;stroke:#000000;stroke-opacity:0.70588237"
     transform="matrix(4.3976942,0,0,4.3695756,48.285407,-1248.6518)"
     id="layer1-9">
    <path
       style="fill:#963434;fill-opacity:0.44221114;fill-rule:evenodd;stroke:#000000;stroke-width:0.45624471;stroke-linecap:round;stroke-linejoin:round;stroke-miterlimit:4;stroke-dasharray:none;stroke-opacity:0.70588237"
       d="m 8.6138535,290.97246 c -1.2e-6,0.004 -2.92e-5,0.009 -3.16e-5,0.0124 4.242e-4,-0.004 9.274e-4,-0.009 0.00146,-0.0124 z m 3.9023635,7.3e-4 c 3.99e-4,0.004 7.3e-4,0.007 9.95e-4,0.0109 3.3e-5,-0.004 -4e-6,-0.007 3.2e-5,-0.0109 z m 9.95e-4,0.0143 c -0.0017,0.43985 -0.874998,0.79605 -1.951711,0.79609 -1.0760098,-4e-5 -1.9490026,-0.35579 -1.9517119,-0.79535 -0.048875,2.26074 -0.2342052,3.31984 -1.0827775,4.06007 1.3926667,0.51982 1.7444078,-0.72437 2.0193844,-0.72398 0.565757,7.9e-4 0.3418032,1.14508 1.147561,1.12906 0.805759,-0.0161 0.575176,-1.13151 1.074428,-1.12848 0.310115,0.002 0.770354,1.31564 2.165464,0.78407 -0.962346,-0.85384 -1.343764,-2.00851 -1.420637,-4.12148 z"
       id="path819-4" />
    <ellipse
       style="opacity:1;fill:#d4ac82;fill-opacity:0.41708548;fill-rule:nonzero;stroke:#000000;stroke-width:0.45624471;stroke-linecap:round;stroke-linejoin:round;stroke-miterlimit:4;stroke-dasharray:none;stroke-dashoffset:0;stroke-opacity:0.70588237;paint-order:normal"
       id="path817-3"
       ry="0.79735744"
       rx="1.9518646"
       cy="290.98633"
       cx="10.565499" />
    <path
       cx="94.747047"
       cy="104.83321"
       rx="31.404167"
       ry="11.759858"
       id="path840-9"
       style="opacity:1;fill:#ffffff;fill-opacity:1;fill-rule:nonzero;stroke:#000000;stroke-width:4.57547235;stroke-linecap:round;stroke-linejoin:round;stroke-miterlimit:4;stroke-dasharray:none;stroke-dashoffset:0;stroke-opacity:0.70588237;paint-order:normal"
       d="" />
    <path
       style="fill:none;fill-rule:evenodd;stroke:#000000;stroke-width:0.45624471;stroke-linecap:round;stroke-linejoin:round;stroke-miterlimit:4;stroke-dasharray:none;stroke-opacity:0.70588237"
       d="m 9.1405712,293.69507 c 0.3089423,-0.55159 0.2515345,-1.33087 0.2515345,-1.33087"
       id="path844-1" />
  </g>
</svg>
