<?xml version="1.0" encoding="UTF-8" standalone="no"?>
<svg
   xmlns:dc="http://purl.org/dc/elements/1.1/"
   xmlns:cc="http://creativecommons.org/ns#"
   xmlns:rdf="http://www.w3.org/1999/02/22-rdf-syntax-ns#"
   xmlns:svg="http://www.w3.org/2000/svg"
   xmlns="http://www.w3.org/2000/svg"
   width="128"
   height="128"
   viewBox="0 0 128 128"
   version="1.1"
   id="svg8">
  <defs
     id="defs2" />
  <metadata
     id="metadata5">
    <rdf:RDF>
      <cc:Work
         rdf:about="">
        <dc:format>image/svg+xml</dc:format>
        <dc:type
           rdf:resource="http://purl.org/dc/dcmitype/StillImage" />
        <dc:title></dc:title>
      </cc:Work>
    </rdf:RDF>
  </metadata>
  <g
     style="fill:#1e6822;fill-opacity:0.47058824;stroke:none;stroke-opacity:0.88950351"
     id="g12"
     transform="matrix(1.9504161,0,0,2.7305825,6.0359076,-3.2746901)">
    <g
       style="fill:#1e6822;fill-opacity:0.47058824;stroke:none;stroke-opacity:0.88950351"
       id="g10">
      <path
         id="path2"
         d="m 13.179,18.096 h 3.577 C 14.89,13.304 19.712,4.758 19.712,4.758 11.009,10.387 13.179,18.096 13.179,18.096 Z"
         style="fill:#1e6822;fill-opacity:0.47058824;stroke:none;stroke-opacity:0.88950351" />
      <path
         id="path4"
         d="m 19.712,2.662 c -7.162,2.58 -8.796,6.235 -8.796,6.235 0,0 1.656,3.447 1.196,4.909 1.908,-7.714 7.6,-11.144 7.6,-11.144 z"
         style="fill:#1e6822;fill-opacity:0.47058824;stroke:none;stroke-opacity:0.88950351" />
      <path
         id="path6"
         d="m 0,4.288 c 0,0 4.824,8.546 2.956,13.338 H 6.534 C 6.534,17.627 8.704,9.918 0,4.288 Z"
         style="fill:#1e6822;fill-opacity:0.47058824;stroke:none;stroke-opacity:0.88950351" />
      <path
         id="path8"
         d="m 3.387,1.616 c 0,0 5.887,10.432 3.608,16.281 h 4.367 c 0,-10e-4 2.648,-9.411 -7.975,-16.281 z"
         style="fill:#1e6822;fill-opacity:0.47058824;stroke:none;stroke-opacity:0.88950351" />
    </g>
  </g>
  <g
     transform="matrix(1.9504161,0,0,2.7305825,70.849467,62.081242)"
     id="g882"
     style="fill:#1e6822;fill-opacity:0.47058824;stroke:none;stroke-opacity:0.88950351">
    <g
       id="g880"
       style="fill:#1e6822;fill-opacity:0.47058824;stroke:none;stroke-opacity:0.88950351">
      <path
         style="fill:#1e6822;fill-opacity:0.47058824;stroke:none;stroke-opacity:0.88950351"
         d="m 13.179,18.096 h 3.577 C 14.89,13.304 19.712,4.758 19.712,4.758 11.009,10.387 13.179,18.096 13.179,18.096 Z"
         id="path872" />
      <path
         style="fill:#1e6822;fill-opacity:0.47058824;stroke:none;stroke-opacity:0.88950351"
         d="m 19.712,2.662 c -7.162,2.58 -8.796,6.235 -8.796,6.235 0,0 1.656,3.447 1.196,4.909 1.908,-7.714 7.6,-11.144 7.6,-11.144 z"
         id="path874" />
      <path
         style="fill:#1e6822;fill-opacity:0.47058824;stroke:none;stroke-opacity:0.88950351"
         d="m 0,4.288 c 0,0 4.824,8.546 2.956,13.338 H 6.534 C 6.534,17.627 8.704,9.918 0,4.288 Z"
         id="path876" />
      <path
         style="fill:#1e6822;fill-opacity:0.47058824;stroke:none;stroke-opacity:0.88950351"
         d="m 3.387,1.616 c 0,0 5.887,10.432 3.608,16.281 h 4.367 c 0,-10e-4 2.648,-9.411 -7.975,-16.281 z"
         id="path878" />
    </g>
  </g>
</svg>
