<?xml version="1.0" encoding="UTF-8" standalone="no"?>
<svg
   xmlns:dc="http://purl.org/dc/elements/1.1/"
   xmlns:cc="http://creativecommons.org/ns#"
   xmlns:rdf="http://www.w3.org/1999/02/22-rdf-syntax-ns#"
   xmlns:svg="http://www.w3.org/2000/svg"
   xmlns="http://www.w3.org/2000/svg"
   id="svg8"
   version="1.1"
   viewBox="0 0 23.8125 23.812501"
   height="90"
   width="90">
  <defs
     id="defs2" />
  <metadata
     id="metadata5">
    <rdf:RDF>
      <cc:Work
         rdf:about="">
        <dc:format>image/svg+xml</dc:format>
        <dc:type
           rdf:resource="http://purl.org/dc/dcmitype/StillImage" />
        <dc:title></dc:title>
      </cc:Work>
    </rdf:RDF>
  </metadata>
  <path
     style="fill:#35982b;fill-opacity:0.70588237;stroke:none;stroke-width:0.26458335px;stroke-linecap:butt;stroke-linejoin:miter;stroke-opacity:1"
     d="m 4.2721578,21.166667 0.2912883,-2.912883 -1.019509,-0.436932 c 0,0 -1.1355305,0 -1.0799883,-0.728221 0.055543,-0.728221 -0.8133855,-1.019508 -0.085165,-1.74773 0.7282207,-0.72822 -0.055543,-1.3037 1.4008992,-1.3037 1.4564414,0 0.7282207,-0.72822 2.1846626,0 1.4564412,0.728221 1.430266,0.266703 1.430266,0.670927 0,0.404225 0.7117526,0.398762 0.4581038,0.861882 -0.4113412,0.75104 -0.373129,0.381288 -0.6218625,0.993321 -0.248733,0.612033 0.099832,0.5253 -0.3371005,0.962232 C 6.45682,17.962496 6.4580542,18.253784 6.0198876,18.253784 H 5.2916668 v 2.912883"
     id="path844" />
  <path
     style="fill:#35982b;fill-opacity:0.70588237;stroke:none;stroke-width:0.26458335px;stroke-linecap:butt;stroke-linejoin:miter;stroke-opacity:1"
     d="m 17.793733,9.3553406 0.238327,-2.3832671 -0.834143,-0.35749 c 0,0 -0.929071,0 -0.883627,-0.5958175 C 16.35973,5.4229494 15.648793,5.184623 16.24461,4.5888056 16.840427,3.992989 16.19917,3.5221418 17.3908,3.5221418 c 1.191634,0 0.595817,-0.5958166 1.787451,0 1.191634,0.5958174 1.170218,0.2182117 1.170218,0.5489403 0,0.3307293 0.582343,0.3262601 0.374812,0.7051758 -0.336552,0.6144875 -0.305287,0.3119635 -0.508797,0.8127175 -0.203509,0.5007539 0.08168,0.4297906 -0.275809,0.7872807 -0.35749,0.3574902 -0.356481,0.5958174 -0.714981,0.5958174 h -0.595816 v 2.3832671"
     id="path844-0" />
</svg>
