<?xml version="1.0" encoding="UTF-8" standalone="no"?>
<svg
   xmlns:dc="http://purl.org/dc/elements/1.1/"
   xmlns:cc="http://creativecommons.org/ns#"
   xmlns:rdf="http://www.w3.org/1999/02/22-rdf-syntax-ns#"
   xmlns:svg="http://www.w3.org/2000/svg"
   xmlns="http://www.w3.org/2000/svg"
   id="svg8"
   version="1.1"
   viewBox="0 0 128 128"
   height="128"
   width="128">
  <defs
     id="defs2" />
  <metadata
     id="metadata5">
    <rdf:RDF>
      <cc:Work
         rdf:about="">
        <dc:format>image/svg+xml</dc:format>
        <dc:type
           rdf:resource="http://purl.org/dc/dcmitype/StillImage" />
        <dc:title></dc:title>
      </cc:Work>
    </rdf:RDF>
  </metadata>
  <g
     transform="matrix(0.2391963,0,0,0.2391963,10.066123,21.398615)"
     id="g10"
     style="stroke-width:4.18066692">
    <g
       id="g8"
       style="stroke-width:4.18066692">
      <path
         d="m 299.41649,159.89552 c -3.52166,-2.96582 -8.77583,-2.5175 -11.74333,1.00583 -2.965,3.52085 -2.51583,8.77585 1.00583,11.74335 22.05917,18.58083 22.74417,51.40666 1.7025,81.68166 -2.62666,3.77916 -1.6925,8.97249 2.08667,11.59833 1.4475,1.0075 3.1075,1.49083 4.74667,1.49083 2.63666,0 5.2325,-1.24833 6.85333,-3.5775 12.65667,-18.21 18.9425,-37.74416 18.18417,-56.49081 -0.76,-18.83668 -8.87084,-35.68751 -22.83584,-47.45169 z"
         id="path2"
         style="fill:#35982b;fill-opacity:0.70588235;stroke-width:4.18066692" />
      <path
         d="m 342.16233,123.0097 c -12.96833,-12.9675 -27.75417,-19.27085 -45.205,-19.27085 -16.115,0 -31.60667,5.47167 -45.27334,10.29917 -9.86333,3.48333 -19.18416,6.77583 -26.20416,6.99418 -7.02,-0.21835 -16.3425,-3.51085 -26.20584,-6.99418 -13.66833,-4.8275 -29.16165,-10.29917 -45.275,-10.29917 -17.45083,0 -32.23832,6.30335 -45.20666,19.27085 -41.024998,41.02665 -26.811664,86.67251 -18.318331,113.94332 l 0.4375,1.41419 c 7.799167,25.09081 37.078331,106.96165 86.425841,106.96165 26.29915,0 35.16249,-4.56584 41.63415,-7.9025 2.75917,-1.4225 4.0625,-2.09584 6.53,-2.20167 2.8825,0.11667 4.4925,0.9 7.6175,2.42333 6.64917,3.2425 15.75667,7.68084 40.5025,7.68084 49.3475,0 78.62667,-81.87001 86.42417,-106.96165 l 0.43834,-1.4075 c 8.49333,-27.2725 22.71083,-72.92001 -18.32167,-113.95001 z m 2.4075,108.99416 -0.44,1.41585 c -3.36583,10.82831 -12.80083,38.52998 -27.68834,61.81581 -9.7475,15.25084 -25.09083,33.42667 -42.8225,33.42667 -20.89833,0 -27.71916,-3.3225 -33.20083,-5.995 -3.96333,-1.93 -8.06167,-3.93 -14.69833,-4.11083 l -0.2325,-0.007 -0.23084,0.007 c -6.40916,0.1825 -10.4,2.24 -13.9225,4.05416 -5.23083,2.69667 -11.74166,6.05167 -33.9975,6.05167 -17.72916,0 -33.07334,-18.17667 -42.82082,-33.4275 -14.88917,-23.285 -24.32334,-50.98667 -27.6875,-61.81498 l -0.4425,-1.42085 c -7.850004,-25.20665 -19.711671,-63.29834 14.1925,-97.20251 9.8175,-9.81915 20.43582,-14.39165 33.41998,-14.39165 13.25668,0 26.71253,4.7525 39.72334,9.34915 11.245,3.97 21.865,7.72 31.5625,7.94585 l 0.195,0.005 0.19334,-0.005 c 9.69916,-0.22585 20.31916,-3.97585 31.56083,-7.94585 13.01083,-4.59665 26.46667,-9.34915 39.72333,-9.34915 12.98334,0 23.60167,4.57165 33.42001,14.39165 33.90833,33.905 22.045,71.99917 14.19333,97.20751 z"
         id="path4"
         style="fill:#35982b;fill-opacity:0.70588235;stroke-width:4.18066692" />
      <path
         d="m 239.84649,107.52302 h 0.002 c 13.4875,0 35.12,-5.88832 51.70917,-22.479168 21.71666,-21.7175 28.165,-57.742499 17.12666,-68.780829 -3.57416,-3.57417 -9.33333,-5.3875 -17.1175,-5.3875 -13.45,0 -35.05165,5.89668 -51.6675,22.51167 -10.22,10.22333 -17.685,23.56416 -21.01833,37.570009 -3.2875,13.81665 -1.8325,25.485 3.895,31.212498 3.55083,3.55082 9.29418,5.35165 17.07083,5.35332 z m -4.41083,-34.069168 c 1.615,-6.11 5.8775,-17.908329 16.25,-28.281649 12.17583,-12.17751 28.80417,-17.63001 39.88,-17.63001 2.67417,0 4.56167,0.002 5.1825,0.60833 4.37417,4.28083 -0.6025,28.73333 -16.97583,45.109179 -12.155,12.155 -28.81,17.595817 -39.925,17.595817 -2.82084,0 -4.71084,-0.08917 -5.30417,-0.644167 -1.48833,-1.39165 -1.47917,-7.79415 0.8925,-16.7575 z"
         id="path6"
         style="fill:#35982b;fill-opacity:0.70588235;stroke-width:4.18066692" />
    </g>
  </g>
</svg>
