<?xml version="1.0" encoding="UTF-8" standalone="no"?>
<svg
   xmlns:dc="http://purl.org/dc/elements/1.1/"
   xmlns:cc="http://creativecommons.org/ns#"
   xmlns:rdf="http://www.w3.org/1999/02/22-rdf-syntax-ns#"
   xmlns:svg="http://www.w3.org/2000/svg"
   xmlns="http://www.w3.org/2000/svg"
   id="svg8"
   version="1.1"
   viewBox="0 0 26.458333 26.458334"
   height="100"
   width="100">
  <defs
     id="defs2" />
  <metadata
     id="metadata5">
    <rdf:RDF>
      <cc:Work
         rdf:about="">
        <dc:format>image/svg+xml</dc:format>
        <dc:type
           rdf:resource="http://purl.org/dc/dcmitype/StillImage" />
        <dc:title></dc:title>
      </cc:Work>
    </rdf:RDF>
  </metadata>
  <g
     transform="translate(0,-270.54166)"
     id="layer1">
    <rect
       y="270.54166"
       x="-6.645202e-07"
       height="26.458334"
       width="26.458334"
       id="rect815"
       style="color:#000000;overflow:visible;opacity:1;vector-effect:none;fill:#f4dd3e;fill-opacity:0.40331492;fill-rule:evenodd;stroke:none;stroke-width:0.79375005;stroke-linecap:butt;stroke-linejoin:miter;stroke-miterlimit:4;stroke-dasharray:none;stroke-dashoffset:0.60000002;stroke-opacity:1;marker:none;paint-order:normal" />
    <g
       transform="translate(-0.8061523,-0.58598665)"
       id="text959"
       style="font-style:normal;font-weight:normal;font-size:10.58333302px;line-height:52.91666412px;font-family:sans-serif;letter-spacing:0px;word-spacing:0px;fill:#fffbf1;fill-opacity:1;stroke:none;stroke-width:0.26458332px;stroke-linecap:butt;stroke-linejoin:miter;stroke-opacity:1"
       aria-label="P">
      <path
         id="path983"
         style="font-style:normal;font-variant:normal;font-weight:bold;font-stretch:normal;font-family:sans-serif;-inkscape-font-specification:'sans-serif Bold';stroke-width:0.26458332px;fill:#fffbf1;fill-opacity:1"
         d="m 3.4519856,273.77348 h 3.302124 q 1.4727782,0 2.25826,0.65629 0.7906494,0.65112 0.7906494,1.86035 0,1.2144 -0.7906494,1.87069 -0.7854818,0.65112 -2.25826,0.65112 H 5.4415282 v 2.67684 H 3.4519856 Z m 1.9895426,1.44177 v 2.15491 h 1.100708 q 0.578776,0 0.8940023,-0.27905 0.3152262,-0.28423 0.3152262,-0.80099 0,-0.51676 -0.3152262,-0.79582 -0.3152263,-0.27905 -0.8940023,-0.27905 z" />
    </g>
    <g
       transform="translate(13.74593,12.64318)"
       id="text959-1"
       style="font-style:normal;font-weight:normal;font-size:10.58333302px;line-height:52.91666412px;font-family:sans-serif;letter-spacing:0px;word-spacing:0px;fill:#fffbf1;fill-opacity:1;stroke:none;stroke-width:0.26458332px;stroke-linecap:butt;stroke-linejoin:miter;stroke-opacity:1"
       aria-label="P">
      <path
         id="path983-4"
         style="font-style:normal;font-variant:normal;font-weight:bold;font-stretch:normal;font-family:sans-serif;-inkscape-font-specification:'sans-serif Bold';stroke-width:0.26458332px;fill:#fffbf1;fill-opacity:1"
         d="m 3.4519856,273.77348 h 3.302124 q 1.4727782,0 2.25826,0.65629 0.7906494,0.65112 0.7906494,1.86035 0,1.2144 -0.7906494,1.87069 -0.7854818,0.65112 -2.25826,0.65112 H 5.4415282 v 2.67684 H 3.4519856 Z m 1.9895426,1.44177 v 2.15491 h 1.100708 q 0.578776,0 0.8940023,-0.27905 0.3152262,-0.28423 0.3152262,-0.80099 0,-0.51676 -0.3152262,-0.79582 -0.3152263,-0.27905 -0.8940023,-0.27905 z" />
    </g>
  </g>
</svg>
