<?xml version="1.0" encoding="UTF-8" standalone="no"?>
<svg
   xmlns:dc="http://purl.org/dc/elements/1.1/"
   xmlns:cc="http://creativecommons.org/ns#"
   xmlns:rdf="http://www.w3.org/1999/02/22-rdf-syntax-ns#"
   xmlns:svg="http://www.w3.org/2000/svg"
   xmlns="http://www.w3.org/2000/svg"
   width="128"
   height="128"
   viewBox="0 0 128 128"
   version="1.1"
   id="svg8">
  <defs
     id="defs2" />
  <metadata
     id="metadata5">
    <rdf:RDF>
      <cc:Work
         rdf:about="">
        <dc:format>image/svg+xml</dc:format>
        <dc:type
           rdf:resource="http://purl.org/dc/dcmitype/StillImage" />
        <dc:title></dc:title>
      </cc:Work>
    </rdf:RDF>
  </metadata>
  <path
     d="m 71.130674,24.82983 c 3.287728,-4.356819 5.31,-10.112727 5.31,-16.4399999 h -2.727272 c 0,11.7286359 -7.564087,21.2986359 -17.001815,21.7731809 -1.069088,-0.628636 -2.267728,-1.052726 -3.548185,-1.224545 -0.623175,-4.663636 -4.617272,-8.275908 -9.45,-8.275908 -2.974087,0 -5.710903,1.395 -7.494544,3.668181 -1.748175,-2.228181 -4.459087,-3.668181 -7.505456,-3.668181 -5.263632,0 -9.545447,4.281817 -9.545447,9.545453 0,2.101364 0.69,4.089546 1.911815,5.715 -4.215,0.99 -7.366359,4.772727 -7.366359,9.285 0,2.989091 1.382719,5.659089 3.539991,7.409999 -3.650447,1.341819 -6.267272,4.843636 -6.267272,8.953636 0,1.625459 0.410456,3.182733 1.185,4.58455 -2.3672716,1.738636 -3.9122716,4.532731 -3.9122716,7.688177 0,5.263643 4.2818246,9.545457 9.5454566,9.545457 3.415912,0 6.409087,-1.809546 8.097271,-4.513632 1.609097,1.148178 3.548185,1.786364 5.540457,1.786364 3.822272,0 7.116815,-2.263635 8.64,-5.514547 1.491815,0.923183 3.208631,1.42364 4.995,1.42364 4.245,0 7.849087,-2.787282 9.084544,-6.627282 1.389543,0.759554 2.946815,1.172729 4.551815,1.172729 5.263641,0 9.545457,-4.281815 9.545457,-9.545456 0,-2.072727 -0.672272,-3.988636 -1.798632,-5.555453 2.757272,-1.719546 4.525903,-4.760455 4.525903,-8.080909 0,-5.263637 -4.236815,-9.576818 -9.545456,-9.534546 0,-0.0041 0,-0.0069 0,-0.01091 0,-2.196819 -0.752719,-4.216363 -2.004544,-5.830909 3.310913,-0.679091 6.346369,-2.311364 8.914097,-4.659546 0.895903,8.941363 8.46136,15.945 17.635904,15.945 h 1.363641 v -1.363636 c 0,-9.265909 -7.148185,-16.881818 -16.219098,-17.650907 z M 58.59613,39.634829 c -9.37e-4,0.0041 -0.0038,0.0081 -0.0038,0.01227 -0.02457,0.133636 -0.07228,0.259092 -0.105,0.39 -0.0586,0.233181 -0.117271,0.466363 -0.197728,0.688636 -0.06544,0.179999 -0.15,0.350454 -0.230455,0.522273 -0.07631,0.163637 -0.152729,0.325909 -0.24136,0.482727 -0.100907,0.177273 -0.211369,0.349092 -0.327272,0.516817 -0.09272,0.133636 -0.190913,0.263182 -0.293185,0.39 -0.130912,0.162274 -0.263183,0.323183 -0.409087,0.473182 -0.117281,0.121364 -0.244096,0.230454 -0.369553,0.342274 -0.147272,0.132272 -0.290447,0.268637 -0.448631,0.387272 -0.283641,0.211364 -0.579544,0.405 -0.894544,0.571364 -0.08588,0.04636 -0.181368,0.07636 -0.268641,0.118636 -0.265912,0.125454 -0.537272,0.241364 -0.820912,0.332727 -0.105,0.03408 -0.214088,0.05727 -0.320447,0.08592 -0.336825,0.09 -0.676368,0.170456 -1.032272,0.208637 -0.03412,-0.01908 -0.06957,-0.03273 -0.10364,-0.05181 -0.655912,-0.375 -1.359543,-0.673635 -2.101359,-0.886363 -0.09956,-0.02864 -0.200456,-0.05181 -0.301368,-0.07773 -0.278185,-0.06955 -0.561817,-0.126818 -0.849545,-0.171819 -0.105,-0.01637 -0.21,-0.03545 -0.316368,-0.04909 -0.370904,-0.045 -0.747272,-0.075 -1.129087,-0.07636 -0.0065,0 -0.0136,-0.0014 -0.02044,-0.0014 -0.624545,-0.467728 -1.152272,-1.032274 -1.57636,-1.662274 l -0.08728,-0.136361 c -0.53864,-0.842728 -0.876825,-1.774092 -1.005,-2.768182 l -0.02315,-0.159546 c -0.02587,-0.238636 -0.04228,-0.481364 -0.04228,-0.726819 0,-3.759545 3.058632,-6.818181 6.818185,-6.818181 3.759544,0 6.818175,3.058636 6.818175,6.818181 0,0.425455 -0.04228,0.841365 -0.117271,1.245 z m -4.842271,17.037272 c -0.122729,0.225 -0.263185,0.439091 -0.410457,0.647728 -0.0464,0.06545 -0.0914,0.132272 -0.140447,0.197727 -0.130912,0.173182 -0.275456,0.336818 -0.424096,0.496364 -0.07632,0.08181 -0.15,0.166364 -0.230457,0.244091 -0.137728,0.135 -0.285,0.257726 -0.43363,0.381818 -0.100918,0.08319 -0.200457,0.169091 -0.306817,0.246818 -0.145912,0.107727 -0.302728,0.201819 -0.458183,0.298637 -0.12,0.07364 -0.237273,0.151363 -0.36137,0.216817 -0.03685,0.01908 -0.07772,0.03409 -0.114544,0.05181 -0.02044,-0.015 -0.0436,-0.02591 -0.06413,-0.04091 -0.769096,-0.580909 -1.625456,-1.045909 -2.55,-1.374545 -0.06,-0.02181 -0.117271,-0.045 -0.177271,-0.06545 -0.432272,-0.143182 -0.876825,-0.255 -1.333641,-0.336818 -0.08587,-0.015 -0.171816,-0.02727 -0.259088,-0.03955 C 46.028816,57.528458 45.55836,57.48073 45.077,57.48073 c -0.499087,0 -0.996815,0.03955 -1.487728,0.117272 0.0065,-0.045 0.0038,-0.09 0.01087,-0.135 0.06685,-0.44591 0.113175,-0.894546 0.113175,-1.34591 0,-0.372272 -0.02728,-0.737727 -0.06815,-1.09909 -0.01368,-0.122728 -0.03685,-0.244092 -0.05588,-0.366818 -0.03685,-0.238637 -0.08044,-0.474546 -0.135,-0.707728 -0.03131,-0.136364 -0.06685,-0.272727 -0.105,-0.407727 -0.06412,-0.230455 -0.139088,-0.454091 -0.220913,-0.677727 -0.04228,-0.114546 -0.08043,-0.231818 -0.126815,-0.345 -0.13636,-0.334092 -0.287728,-0.658637 -0.459543,-0.972273 -9.38e-4,-0.0027 -0.0028,-0.0055 -0.0037,-0.0081 0.07088,-0.05181 0.130903,-0.118637 0.200446,-0.173182 0.297272,-0.230455 0.582272,-0.470455 0.846825,-0.73091 0.06544,-0.06545 0.125447,-0.135 0.189544,-0.201818 0.274088,-0.286363 0.531815,-0.585 0.76636,-0.901363 0.04087,-0.05591 0.07912,-0.111819 0.11864,-0.167728 0.248185,-0.347727 0.470456,-0.710453 0.669543,-1.089545 0.01913,-0.03682 0.03957,-0.075 0.05868,-0.111819 0.21136,-0.417272 0.394088,-0.846817 0.54272,-1.294089 9.37e-4,-0.0055 0.0038,-0.0095 0.0065,-0.015 0.624544,-0.182728 1.249088,-0.275456 1.866816,-0.275456 0.41864,0 0.82364,0.05045 1.221815,0.124092 0.118642,0.02181 0.235913,0.05045 0.353185,0.07773 0.293184,0.06955 0.579544,0.159545 0.856359,0.265909 0.10364,0.03955 0.21,0.07363 0.312281,0.118636 0.369544,0.163636 0.726817,0.351819 1.058176,0.575455 l 0.0095,0.0069 c 0.3,0.203181 0.571368,0.443181 0.835912,0.69 0.255,0.24 0.48,0.503181 0.694088,0.774546 0.06956,0.08864 0.14864,0.166363 0.212728,0.25909 0.226368,0.320455 0.415912,0.662728 0.585,1.014545 0.02869,0.06137 0.06957,0.11591 0.09683,0.177274 0.175903,0.398181 0.306815,0.812727 0.40363,1.238181 0.0065,0.03 0.02044,0.05727 0.02728,0.08727 0.09272,0.436364 0.137728,0.885 0.141825,1.336364 l -0.0286,0.478636 c -0.05869,0.985909 -0.332728,1.924092 -0.774544,2.765454 -0.0164,0.03681 -0.03543,0.07364 -0.05588,0.110455 z M 34.759771,62.178466 C 34.472043,62.070737 34.178858,61.97801 33.878858,61.89892 33.798428,61.8771 33.719315,61.85665 33.637499,61.83755 33.359315,61.7721 33.077043,61.720277 32.790683,61.679369 c -0.08588,-0.01227 -0.169096,-0.02864 -0.255,-0.03955 -0.36,-0.04091 -0.724096,-0.06818 -1.095,-0.06818 -0.38864,0 -0.792281,0.02864 -1.220456,0.08864 -0.04772,-0.03408 -0.09545,-0.06819 -0.143184,-0.103639 0,-0.309546 -0.01631,-0.617727 -0.04772,-0.923182 -0.02044,-0.20591 -0.05588,-0.407728 -0.09,-0.61091 -0.01632,-0.09545 -0.02457,-0.192271 -0.0436,-0.286363 -0.04913,-0.250908 -0.113185,-0.496364 -0.181368,-0.740454 -0.01228,-0.04364 -0.02044,-0.08864 -0.03412,-0.132273 -0.0764,-0.259092 -0.167728,-0.511364 -0.264544,-0.76091 -0.01087,-0.02864 -0.02044,-0.05864 -0.0314,-0.08727 -0.100918,-0.249545 -0.214088,-0.492272 -0.335456,-0.730909 -0.015,-0.03 -0.0286,-0.06 -0.0436,-0.09 -0.118641,-0.230455 -0.249544,-0.452727 -0.387271,-0.670909 -0.02457,-0.03955 -0.0464,-0.08045 -0.07228,-0.118637 -0.13364,-0.207273 -0.278185,-0.405 -0.426825,-0.601363 -0.03685,-0.04773 -0.07088,-0.09681 -0.107728,-0.144546 -0.147272,-0.185454 -0.302728,-0.362727 -0.463632,-0.537272 -0.03413,-0.03681 -0.06413,-0.07773 -0.09955,-0.114547 0.08043,-0.490908 0.215447,-0.970908 0.402272,-1.434544 0.379088,-0.208637 0.737728,-0.45 1.084088,-0.707728 0.0314,-0.02318 0.06272,-0.04636 0.09408,-0.06955 0.685912,-0.522272 1.296825,-1.133183 1.819097,-1.819091 0.02457,-0.03136 0.04772,-0.06273 0.07088,-0.09545 0.25364,-0.34091 0.490912,-0.695455 0.698183,-1.069092 0.03272,-0.01363 0.06412,-0.02727 0.09681,-0.04091 0.355912,-0.139091 0.71864,-0.249546 1.086825,-0.325908 0.06131,-0.01227 0.124087,-0.02045 0.186815,-0.03136 0.38864,-0.06955 0.78136,-0.114546 1.180913,-0.114546 0.43363,0 0.855,0.05045 1.266815,0.128184 0.05315,0.0095 0.107728,0.01636 0.159544,0.02727 0.39,0.08319 0.767728,0.204545 1.130456,0.351818 0.06132,0.02455 0.12136,0.05045 0.18136,0.07636 0.355912,0.156818 0.698184,0.340909 1.02,0.553636 0.04912,0.03273 0.09682,0.07092 0.145912,0.105 0.287728,0.201819 0.557728,0.426819 0.81,0.669546 0.045,0.04363 0.09272,0.08045 0.13636,0.125454 0.23864,0.242727 0.44864,0.511364 0.649096,0.786819 0.110457,0.151363 0.208632,0.309545 0.305457,0.467727 0.124087,0.203181 0.23863,0.411818 0.340902,0.628636 0.06957,0.14591 0.13637,0.293182 0.195,0.444545 0.100908,0.260455 0.18137,0.529092 0.249545,0.803183 0.03272,0.128182 0.07228,0.253636 0.09683,0.383182 0.08043,0.411818 0.130903,0.833181 0.130903,1.266818 0,0.410453 -0.04772,0.820909 -0.128175,1.228636 -0.03685,0.185454 -0.105,0.369545 -0.158185,0.553636 -0.07369,0.255 -0.135,0.51 -0.24,0.762273 -1.554543,0.855 -2.825456,2.150455 -3.698185,3.72955 -0.290455,0.125453 -0.56863,0.226363 -0.835903,0.30409 -0.32728,-0.174545 -0.668184,-0.325909 -1.015912,-0.462277 -0.04913,-0.01908 -0.09955,-0.03545 -0.15,-0.05455 z M 32.804315,45.208011 c 0,-0.424091 -0.03685,-0.838636 -0.0914,-1.247729 -0.01228,-0.09 -0.02587,-0.178635 -0.04087,-0.267271 -0.06272,-0.391364 -0.144543,-0.774546 -0.25364,-1.149546 -0.0056,-0.01908 -0.0095,-0.03819 -0.015,-0.05727 -0.122718,-0.413181 -0.276815,-0.812728 -0.452718,-1.201364 -0.02587,-0.05591 -0.05456,-0.110453 -0.08044,-0.167727 -0.163642,-0.343637 -0.346369,-0.676364 -0.548185,-0.996818 -0.02044,-0.03273 -0.03544,-0.07091 -0.05728,-0.103639 0.199087,-0.285 0.425456,-0.561819 0.676359,-0.826364 0.075,-0.02727 0.145913,-0.06273 0.220913,-0.09273 0.158184,-0.06136 0.315,-0.126818 0.470457,-0.196362 0.125455,-0.05727 0.249543,-0.117274 0.37363,-0.18 0.155457,-0.07773 0.306825,-0.159547 0.456825,-0.246819 0.12,-0.06819 0.237272,-0.140455 0.353175,-0.215455 0.141825,-0.09 0.282272,-0.184091 0.418641,-0.280909 0.12,-0.08592 0.237272,-0.174545 0.354544,-0.264545 0.122728,-0.09681 0.242728,-0.195 0.36,-0.29591 0.06,-0.05181 0.125456,-0.09819 0.184087,-0.151362 0.891825,-0.242728 1.786369,-0.275456 2.648185,-0.163638 0.28364,0.03681 0.565913,0.08727 0.84,0.159546 0.105,0.02727 0.20864,0.05864 0.310913,0.09 0.304087,0.09545 0.601358,0.21 0.889087,0.347727 0.05315,0.02455 0.107728,0.04773 0.159543,0.07364 0.72,0.368181 1.378641,0.863181 1.939097,1.475453 l 0.08588,0.09409 c 0.165,0.189546 0.331369,0.379092 0.474544,0.589092 0.02043,0.126818 0.05315,0.249545 0.07912,0.373635 0.05315,0.261819 0.115904,0.519547 0.190904,0.773184 0.0614,0.21 0.124096,0.42 0.200455,0.625908 0.06,0.160909 0.129545,0.316363 0.197728,0.473181 0.06815,0.156819 0.139097,0.310911 0.215457,0.465 0.08185,0.163637 0.16636,0.324546 0.25636,0.482728 0.02044,0.03545 0.03685,0.07364 0.05868,0.109091 0.02044,0.201818 0.03413,0.405 0.03413,0.609545 0,0.458182 -0.05588,0.906818 -0.143175,1.344546 l -0.06815,0.278182 c -0.347728,1.416818 -1.13864,2.664544 -2.228185,3.585 -0.03544,0.03 -0.07228,0.05864 -0.107727,0.08863 -0.09,0.07227 -0.197728,0.124091 -0.291816,0.192273 -0.207272,-0.204545 -0.422728,-0.402273 -0.647728,-0.587728 -0.227729,-0.188181 -0.465,-0.364091 -0.707729,-0.529091 -0.0056,-0.0041 -0.01088,-0.0081 -0.01632,-0.01227 -0.767728,-0.520908 -1.605,-0.923181 -2.488641,-1.198636 -0.0028,-0.0014 -0.0065,-0.0027 -0.0095,-0.0041 -0.264544,-0.08181 -0.533185,-0.148636 -0.805913,-0.207272 -0.03956,-0.0081 -0.07631,-0.02045 -0.115903,-0.02864 -0.249544,-0.05045 -0.503184,-0.08455 -0.756815,-0.115909 -0.06412,-0.0081 -0.126825,-0.02181 -0.190913,-0.02864 -0.319087,-0.03273 -0.642272,-0.04909 -0.966816,-0.04909 -0.445913,0 -0.886368,0.04227 -1.321368,0.102268 -0.05185,0.0069 -0.106361,0.0041 -0.158185,0.01227 0.0065,-0.045 0.0038,-0.09 0.01087,-0.135 0.0614,-0.439091 0.105,-0.886363 0.105,-1.343182 z M 37.70113,26.996647 c 1.179544,-2.207726 3.484097,-3.606817 6.012272,-3.606817 3.332728,0 6.114553,2.404091 6.703641,5.569091 -0.04912,0.0081 -0.09545,0.02592 -0.144544,0.03409 -0.422728,0.07227 -0.84,0.165 -1.240912,0.291817 -0.02587,0.0081 -0.05185,0.02045 -0.07772,0.02864 -0.380456,0.124091 -0.747273,0.275455 -1.105903,0.444546 -0.0886,0.04091 -0.175913,0.08319 -0.263185,0.126817 -0.369543,0.188183 -0.728185,0.394092 -1.069097,0.625911 -0.03815,0.02591 -0.07228,0.05591 -0.110446,0.08181 -0.308185,0.216818 -0.6,0.454091 -0.879554,0.706364 -0.07088,0.06273 -0.140446,0.125454 -0.21,0.190909 -0.295903,0.282272 -0.576815,0.580909 -0.835903,0.898636 -0.03815,0.04636 -0.07088,0.09681 -0.107728,0.144547 -0.225,0.289089 -0.432272,0.590453 -0.623184,0.904089 -0.04772,0.07773 -0.09681,0.154092 -0.141816,0.234547 -0.204544,0.357272 -0.387272,0.726817 -0.545457,1.11 -0.02728,0.06818 -0.04912,0.137726 -0.07632,0.205908 -0.130913,0.340909 -0.24,0.69 -0.331369,1.047273 -0.015,0.05727 -0.03957,0.109091 -0.05315,0.166363 -0.713175,-0.534545 -1.498631,-0.951818 -2.326359,-1.266818 -0.07772,-0.03 -0.156816,-0.05592 -0.237272,-0.08319 -0.387273,-0.136353 -0.782729,-0.246808 -1.187729,-0.331353 -0.07772,-0.01636 -0.152729,-0.03681 -0.230457,-0.05045 -0.08457,-0.015 -0.166359,-0.04227 -0.252272,-0.05591 -0.257728,-0.32182 -0.481358,-0.655911 -0.668183,-0.998184 0.01087,-0.03136 0.015,-0.06545 0.02587,-0.09681 0.155455,-0.45 0.280912,-0.913637 0.368183,-1.392273 0.015,-0.07909 0.02315,-0.158181 0.03685,-0.237273 0.07912,-0.482727 0.129543,-0.975 0.129543,-1.480908 0,-0.505911 -0.05043,-0.998183 -0.126815,-1.482274 -0.01228,-0.08045 -0.02185,-0.159545 -0.03685,-0.238637 -0.08728,-0.478636 -0.212729,-0.942272 -0.369544,-1.393636 -0.01087,-0.03273 -0.01368,-0.06545 -0.02457,-0.09681 z M 28.713402,23.38983 c 2.802281,0 5.213185,1.703181 6.259097,4.126363 0.163631,0.381818 0.282272,0.774546 0.375,1.172728 0.01087,0.04637 0.03272,0.08864 0.04228,0.136364 0.09408,0.452726 0.141815,0.915 0.141815,1.382726 0,0.467727 -0.04772,0.93 -0.141815,1.382727 -0.0095,0.04773 -0.0314,0.08864 -0.04228,0.136363 -0.0914,0.398181 -0.21,0.79091 -0.375,1.172728 -0.501816,1.160453 -1.32,2.149091 -2.341369,2.870453 -0.07088,0.05045 -0.143175,0.100908 -0.215447,0.147274 -0.31364,0.204545 -0.64364,0.387273 -0.99,0.538637 -0.0614,0.02591 -0.124096,0.04636 -0.185456,0.07227 -0.784097,0.313636 -1.633641,0.497728 -2.526825,0.497728 -0.204544,0 -0.405,-0.01227 -0.604087,-0.03273 -0.03272,-0.01908 -0.06815,-0.03545 -0.102268,-0.05455 -0.169088,-0.09819 -0.342272,-0.188183 -0.518185,-0.275455 -0.09272,-0.04636 -0.185455,-0.09136 -0.278175,-0.135 -0.18,-0.08181 -0.361368,-0.156818 -0.546825,-0.227728 -0.09,-0.03408 -0.181359,-0.06818 -0.272728,-0.09955 -0.199087,-0.06955 -0.399544,-0.132273 -0.604087,-0.188182 -0.075,-0.02045 -0.14864,-0.03955 -0.22364,-0.05727 -0.225,-0.05592 -0.45136,-0.105 -0.683175,-0.144546 -0.02044,-0.0041 -0.03956,-0.0095 -0.06,-0.01227 -1.836825,-1.279091 -2.925,-3.349091 -2.925,-5.590909 -5e-6,-3.759542 3.058626,-6.818178 6.81817,-6.818178 z M 16.440683,45.208011 c 0,-3.759546 3.058632,-6.818182 6.818175,-6.818182 0.402272,0 0.790913,0.05181 1.174097,0.118635 0.110447,0.01908 0.220903,0.03681 0.33,0.06137 0.347728,0.07909 0.684543,0.184091 1.009088,0.313637 0.09272,0.03681 0.184087,0.07637 0.275455,0.117272 0.34636,0.156818 0.683185,0.331365 0.995457,0.541365 l 0.03815,0.02455 c 0.647729,0.440455 1.201369,1.000909 1.665,1.630909 0.102268,0.139092 0.197729,0.282272 0.289097,0.426819 0.13636,0.219546 0.260457,0.448636 0.370903,0.683182 0.06413,0.135 0.129554,0.27 0.185457,0.409091 0.107727,0.274091 0.190912,0.559091 0.263184,0.848181 0.03,0.12 0.06957,0.237274 0.09272,0.358635 0.07912,0.417275 0.129544,0.845456 0.129544,1.284546 0,0.421365 -0.05043,0.830455 -0.124088,1.231365 -0.0136,0.07092 -0.02044,0.141817 -0.03685,0.211363 -0.0736,0.339546 -0.184088,0.665454 -0.306815,0.984546 -0.05185,0.135 -0.105,0.268636 -0.16636,0.400908 -0.08315,0.181365 -0.185456,0.350455 -0.28364,0.523637 -0.106361,0.185455 -0.203185,0.376363 -0.325913,0.55091 -0.111815,0.159545 -0.245447,0.3 -0.370903,0.448636 -0.259097,0.309545 -0.544097,0.594545 -0.853641,0.853636 -0.148631,0.124091 -0.287728,0.257728 -0.447271,0.368181 -0.175904,0.124092 -0.368185,0.222274 -0.55636,0.328637 -0.991369,0.567273 -2.124544,0.916363 -3.346369,0.916363 -3.759543,0 -6.818175,-3.058636 -6.818175,-6.818182 z m -1.87364,19.658185 c -0.560457,-1.005 -0.853632,-2.127273 -0.853632,-3.29455 0,-3.759545 3.058632,-6.818181 6.818175,-6.818181 1.8,0 3.429544,0.714545 4.648641,1.86 0.255,0.238636 0.48,0.501817 0.692728,0.773181 0.06957,0.08864 0.15,0.167727 0.215447,0.260455 0.225,0.317727 0.413184,0.658636 0.580913,1.009091 0.03,0.06273 0.07228,0.12 0.09955,0.18409 0.174545,0.395455 0.305457,0.81 0.402272,1.231364 0.0065,0.03136 0.02185,0.06136 0.02869,0.09273 0.09819,0.459545 0.15,0.931363 0.15,1.407273 0,0.315 -0.02728,0.636818 -0.08043,0.97364 -0.69,0.338182 -1.322728,0.775909 -1.913185,1.268182 -0.114543,0.09409 -0.235902,0.18 -0.345,0.28091 -0.185447,0.169091 -0.351815,0.357272 -0.52363,0.541364 -0.148642,0.158181 -0.30137,0.312272 -0.439097,0.48 -0.139088,0.171817 -0.263175,0.354545 -0.39,0.535908 -0.100908,0.143181 -0.216816,0.275455 -0.309545,0.424092 -0.03,-0.02181 -0.06413,-0.03681 -0.09545,-0.05727 -0.33272,-0.231819 -0.680447,-0.443181 -1.041816,-0.632727 -0.10636,-0.05591 -0.215456,-0.105 -0.323184,-0.156818 -0.31772,-0.151364 -0.643632,-0.286364 -0.979088,-0.402274 -0.07772,-0.02727 -0.151359,-0.06 -0.230457,-0.08455 -0.396815,-0.125455 -0.807271,-0.218183 -1.224543,-0.291818 -0.107728,-0.01908 -0.216815,-0.03408 -0.324544,-0.04909 -0.436368,-0.06 -0.875456,-0.102279 -1.325456,-0.102279 -0.51,0 -1.007728,0.05181 -1.495912,0.129545 -0.08043,0.01227 -0.160903,0.02182 -0.24,0.03682 -0.48136,0.08863 -0.94772,0.216817 -1.401816,0.375 -0.03272,0.01091 -0.06685,0.01363 -0.09955,0.02591 z m 3.237272,15.796366 c -3.759544,0 -6.818185,-3.058635 -6.818185,-6.818189 0,-2.724543 1.617281,-5.064541 3.934097,-6.154086 0.175903,-0.08181 0.354544,-0.155455 0.534543,-0.220908 0.186816,-0.06955 0.377728,-0.125455 0.57136,-0.178636 0.218185,-0.05727 0.436368,-0.115911 0.657272,-0.151364 0.130913,-0.02182 0.268641,-0.02591 0.402281,-0.04091 0.91636,-0.09136 1.839544,-0.0055 2.713632,0.260454 0.08315,0.02592 0.166368,0.04908 0.248183,0.07773 0.253632,0.08727 0.501817,0.192272 0.744545,0.309546 0.140455,0.06955 0.276815,0.144545 0.410455,0.223636 0.188185,0.107726 0.37636,0.215454 0.553632,0.340909 0.205913,0.147272 0.395456,0.312272 0.582272,0.481363 0.105,0.09409 0.220913,0.175912 0.320456,0.278182 0.135,0.13637 0.244097,0.295914 0.366825,0.444546 0.173175,0.20864 0.349088,0.414542 0.495,0.639543 0.100907,0.156825 0.178632,0.327282 0.267272,0.492282 0.114543,0.211358 0.235903,0.419998 0.327272,0.642272 0.0886,0.218175 0.145903,0.451357 0.212728,0.681815 0.05315,0.185455 0.124088,0.366815 0.162272,0.55636 0.08315,0.425455 0.132271,0.865912 0.132271,1.317271 0,0.432282 -0.05043,0.852282 -0.128183,1.262729 -0.0436,0.22364 -0.117272,0.443183 -0.184088,0.664096 -0.06957,0.235904 -0.124097,0.477272 -0.218184,0.702272 l -0.01088,0.0314 c -1.037728,2.440913 -3.460903,4.157723 -6.276816,4.157723 z m 13.636368,-2.727276 c -1.643184,0 -3.185456,-0.575457 -4.418185,-1.635 0.0065,-0.02587 0.0095,-0.05315 0.01632,-0.08043 0.08315,-0.324544 0.15,-0.654543 0.199097,-0.99 0.01228,-0.07772 0.02587,-0.155455 0.03544,-0.233175 0.045,-0.377728 0.0764,-0.760913 0.0764,-1.152281 0,-0.48136 -0.04772,-0.951816 -0.117272,-1.414088 -0.0136,-0.08728 -0.02457,-0.173184 -0.03956,-0.260456 -0.08044,-0.455456 -0.192273,-0.9 -0.335457,-1.330903 -0.02044,-0.0614 -0.045,-0.121368 -0.06685,-0.181368 -0.32864,-0.923185 -0.79364,-1.778181 -1.373184,-2.547272 -0.0095,-0.01227 -0.0164,-0.02727 -0.02587,-0.03955 0.07772,-0.152727 0.141815,-0.315 0.230456,-0.460909 0.0436,-0.07227 0.08315,-0.14591 0.129544,-0.215455 0.23864,-0.361363 0.505912,-0.702273 0.80864,-1.011819 0.02185,-0.02318 0.0464,-0.04227 0.06815,-0.06409 0.320455,-0.317727 0.668184,-0.609546 1.04864,-0.860455 9.37e-4,-0.0014 0.0028,-0.0027 0.0038,-0.0041 0.398185,-0.263182 0.826369,-0.486818 1.279097,-0.664091 l 0.100907,-0.03955 c 0.373641,-0.141817 0.759554,-0.250909 1.15637,-0.324545 0.174543,-0.03273 0.336815,-0.05455 0.49363,-0.07364 0.242729,-0.02727 0.484097,-0.05319 0.729554,-0.05319 0.410446,0 0.807271,0.05181 1.197271,0.121364 0.122729,0.02181 0.245447,0.04773 0.366817,0.07773 0.291815,0.06955 0.575455,0.159544 0.850912,0.264544 0.09817,0.03819 0.200446,0.06409 0.297271,0.107728 0.762272,0.332728 1.450904,0.800455 2.038632,1.373182 0.241368,0.234546 0.444543,0.495 0.645,0.756817 0.075,0.09819 0.165,0.181364 0.234543,0.283637 0.155457,0.226363 0.27,0.474546 0.396825,0.71591 0.488175,0.938178 0.790904,1.988178 0.790904,3.117265 0,0.413185 -0.05185,0.812728 -0.121359,1.205457 -0.015,0.08315 -0.02456,0.165 -0.04228,0.248184 -0.669543,3.062729 -3.395456,5.364544 -6.654543,5.364544 z m 13.63636,-4.090913 c -1.527272,0 -2.986369,-0.507271 -4.180913,-1.440001 0.0038,-0.02728 0.0028,-0.05456 0.0056,-0.08185 0.05043,-0.395456 0.08457,-0.79636 0.08457,-1.205457 0,-0.313631 -0.01772,-0.624543 -0.04772,-0.932728 -0.0085,-0.08185 -0.02315,-0.160903 -0.03272,-0.242718 -0.02728,-0.227728 -0.06,-0.454097 -0.103629,-0.677729 -0.0164,-0.08185 -0.03685,-0.162271 -0.05588,-0.244095 -0.04913,-0.220907 -0.103629,-0.439089 -0.169087,-0.654543 -0.02315,-0.075 -0.04772,-0.148636 -0.07228,-0.222275 -0.07088,-0.216817 -0.14864,-0.429543 -0.234543,-0.640908 -0.02869,-0.07092 -0.06,-0.141818 -0.0914,-0.212727 -0.0886,-0.203182 -0.185456,-0.402273 -0.289087,-0.6 -0.03957,-0.07636 -0.08044,-0.151364 -0.122728,-0.225 -0.100907,-0.178636 -0.207272,-0.353182 -0.319088,-0.525 -0.05728,-0.08727 -0.113184,-0.175909 -0.173184,-0.261818 -0.100907,-0.144545 -0.208641,-0.285 -0.317728,-0.425455 -0.08185,-0.103639 -0.162272,-0.208636 -0.248185,-0.309545 -0.03,-0.03545 -0.05588,-0.07227 -0.08588,-0.106361 0.05728,-0.170453 0.139088,-0.327272 0.208632,-0.490908 l 0.154087,-0.313637 c 0.661343,-1.344542 1.764527,-2.449091 3.107702,-3.109091 l 0.357272,-0.175908 c 0.09956,-0.04091 0.196369,-0.08727 0.298641,-0.122728 0.215456,-0.07908 0.435,-0.136364 0.654543,-0.19091 0.113185,-0.02863 0.225,-0.05864 0.340913,-0.08181 0.199087,-0.03955 0.399544,-0.06545 0.6,-0.08592 0.132272,-0.01363 0.264544,-0.02455 0.398184,-0.03136 0.190903,-0.0081 0.380447,-0.0095 0.57136,-0.0027 0.261815,0.0095 0.518184,0.03955 0.771815,0.07773 0.268641,0.04091 0.531825,0.09819 0.793641,0.170454 0.196359,0.05455 0.392728,0.110454 0.582272,0.181364 0.18,0.06681 0.355912,0.143182 0.529087,0.225 0.200457,0.09545 0.394097,0.203182 0.583641,0.317727 0.129544,0.07773 0.264544,0.147273 0.39,0.233182 0.275456,0.192273 0.529087,0.409091 0.773184,0.638181 0.257719,0.242734 0.48136,0.508642 0.695447,0.780005 0.07369,0.09409 0.158185,0.177273 0.227728,0.275454 0.177272,0.252274 0.316369,0.523636 0.456825,0.795 0.07088,0.139091 0.160904,0.26591 0.223632,0.410455 0.111815,0.256363 0.18,0.530455 0.257728,0.800455 0.04912,0.16909 0.12,0.328636 0.156815,0.503181 0.0886,0.451364 0.139097,0.915 0.139097,1.386819 0,3.759542 -3.05864,6.818173 -6.818184,6.818173 z m 13.636359,-5.454541 c -1.479543,0 -2.91,-0.484091 -4.090903,-1.374546 0,-0.0069 -9.37e-4,-0.01227 -9.37e-4,-0.01773 -9.38e-4,-0.451363 -0.0436,-0.893182 -0.106361,-1.328182 -0.01228,-0.07908 -0.02315,-0.158181 -0.03685,-0.237273 -0.159554,-0.938182 -0.454097,-1.83 -0.865913,-2.655 -0.0065,-0.01363 -0.01369,-0.02727 -0.02044,-0.04091 -0.219544,-0.432277 -0.469087,-0.845459 -0.748631,-1.238187 -9.38e-4,-0.0027 -0.0028,-0.0055 -0.0038,-0.0081 0.651815,-0.406363 1.239544,-0.894545 1.76864,-1.438636 0.0914,-0.09409 0.178632,-0.190909 0.265904,-0.287727 0.204553,-0.227727 0.395456,-0.465 0.576825,-0.710455 0.08043,-0.10909 0.166359,-0.212727 0.241359,-0.324545 0.208641,-0.309545 0.398184,-0.631364 0.568641,-0.962727 0.100907,-0.193637 0.185446,-0.395455 0.272728,-0.59591 0.06685,-0.155453 0.132272,-0.312272 0.190903,-0.471817 0.0914,-0.245455 0.177272,-0.49091 0.249544,-0.744546 0.01088,-0.03955 0.01772,-0.07908 0.0286,-0.118637 0.07228,-0.27 0.144545,-0.54 0.193632,-0.816817 0.51,-0.13091 1.146825,-0.264546 1.517728,-0.264546 0.451368,0 0.891825,0.04908 1.31864,0.133636 0.188185,0.03682 0.366816,0.106361 0.549545,0.159546 0.231815,0.06681 0.467728,0.124091 0.68864,0.214091 0.216815,0.08863 0.42136,0.208637 0.628631,0.320454 0.170457,0.09136 0.346369,0.170455 0.507272,0.275455 0.219544,0.143181 0.421369,0.315 0.625912,0.484091 1.513632,1.250454 2.499545,3.118637 2.499545,5.230909 0,3.759549 -3.058642,6.818185 -6.818185,6.818185 z m 9.545457,-20.454548 c 0,2.56909 -1.474087,4.921363 -3.735,6.072273 -0.02457,-0.01908 -0.05185,-0.03137 -0.07632,-0.04908 -0.769097,-0.580909 -1.625457,-1.045909 -2.55,-1.374546 -0.06,-0.02181 -0.117272,-0.045 -0.177272,-0.06545 -0.432272,-0.143182 -0.876825,-0.255001 -1.33364,-0.336819 -0.08588,-0.015 -0.171817,-0.02727 -0.259088,-0.03955 -0.462272,-0.06819 -0.932729,-0.11591 -1.414097,-0.11591 -0.03272,0 -0.155447,0.01091 -0.312272,0.02727 -0.380456,0.01227 -0.759543,0.04091 -1.135903,0.09955 -0.0038,-0.02864 -0.0136,-0.05727 -0.01772,-0.08592 -0.05044,-0.36 -0.121369,-0.711818 -0.21,-1.056819 -0.0164,-0.06137 -0.03,-0.122727 -0.04772,-0.18409 -0.230457,-0.825 -0.56864,-1.602274 -0.999544,-2.32091 -0.02315,-0.03955 -0.0464,-0.07773 -0.07088,-0.115909 -0.225,-0.362727 -0.465,-0.715908 -0.735,-1.044544 0.03815,-0.01364 0.07228,-0.03409 0.109087,-0.04773 0.291825,-0.110455 0.575457,-0.23591 0.852273,-0.372273 0.04228,-0.02181 0.08315,-0.04364 0.125456,-0.06545 0.3,-0.155455 0.590456,-0.324546 0.871369,-0.508636 0.0056,-0.0041 0.01088,-0.0069 0.01632,-0.01091 1.843641,-1.219092 3.237273,-3.050455 3.882273,-5.207728 3.904097,-0.245455 7.217727,2.911363 7.217727,6.803181 z m 2.795456,-20.386363 c 7.130457,0.677726 12.822272,6.369545 13.5,13.5 -7.130456,-0.677727 -12.822272,-6.369546 -13.5,-13.5 z"
     id="path2"
     style="fill:#1e6822;fill-opacity:0.70588235;stroke-width:0.9375" />
</svg>
