<?xml version="1.0" encoding="UTF-8" standalone="no"?>
<svg
   xmlns:dc="http://purl.org/dc/elements/1.1/"
   xmlns:cc="http://creativecommons.org/ns#"
   xmlns:rdf="http://www.w3.org/1999/02/22-rdf-syntax-ns#"
   xmlns:svg="http://www.w3.org/2000/svg"
   xmlns="http://www.w3.org/2000/svg"
   viewBox="0 0 128 128"
   version="1.1"
   id="svg3800"
   height="128"
   width="128">
  <defs
     id="defs3802" />
  <metadata
     id="metadata3805">
    <rdf:RDF>
      <cc:Work
         rdf:about="">
        <dc:format>image/svg+xml</dc:format>
        <dc:type
           rdf:resource="http://purl.org/dc/dcmitype/StillImage" />
        <dc:title></dc:title>
      </cc:Work>
    </rdf:RDF>
  </metadata>
  <g
     style="stroke:#ffffff;stroke-width:0.11388642;stroke-opacity:1"
     transform="matrix(8.7756445,0,0,8.7857143,16.190635,27.191809)"
     id="g105">
    <path
       id="rect818"
       transform="translate(-1.5520395,-2.8104498)"
       d="M 4,0 5,2 H 6 L 5,4 6,6 5,8 6,10 5,12 H 9 L 8,10 9,8 8,6 9,4 8,2 H 9 L 10,0 Z M 7,3 A 1,1 0 0 1 8,4 1,1 0 0 1 7,5 1,1 0 0 1 6,4 1,1 0 0 1 7,3 Z M 7,7 A 1,1 0 0 1 8,8 1,1 0 0 1 7,9 1,1 0 0 1 6,8 1,1 0 0 1 7,7 Z m -4,6 v 1 h 8 v -1 z"
       style="opacity:1;fill:#000000;fill-opacity:1;stroke:#ffffff;stroke-width:0.56943214;stroke-linecap:square;stroke-miterlimit:4;stroke-dasharray:none;stroke-opacity:1;paint-order:markers stroke fill" />
  </g>
</svg>
