<?xml version="1.0" encoding="UTF-8" standalone="no"?>
<svg
   xmlns:dc="http://purl.org/dc/elements/1.1/"
   xmlns:cc="http://creativecommons.org/ns#"
   xmlns:rdf="http://www.w3.org/1999/02/22-rdf-syntax-ns#"
   xmlns:svg="http://www.w3.org/2000/svg"
   xmlns="http://www.w3.org/2000/svg"
   id="svg2"
   height="128"
   width="128"
   version="1.0">
  <metadata
     id="metadata2975">
    <rdf:RDF>
      <cc:Work
         rdf:about="">
        <dc:format>image/svg+xml</dc:format>
        <dc:type
           rdf:resource="http://purl.org/dc/dcmitype/StillImage" />
        <cc:license
           rdf:resource="http://web.resource.org/cc/PublicDomain" />
        <dc:language>en</dc:language>
        <dc:title></dc:title>
      </cc:Work>
    </rdf:RDF>
  </metadata>
  <defs
     id="defs4">
    <symbol
       id="symbol-university"
       viewBox="244.5 110 489 219.9">
      <path
         d="m 79,43 57,119 c 0,0 21,-96 104,-96 83,0 124,106 124,106 L 407,39 489,22 0,17 Z"
         id="path4460" />
      <path
         style="fill:none;stroke:#000000;stroke-width:20"
         d="M 94,176 73,215"
         id="path4462" />
      <path
         d="M 300,19 C 300,29.5 277.4,38 249.5,38 221.6,38 199,29.5 199,19 199,8.5 221.6,0 249.5,0 277.4,0 300,8.5 300,19 Z"
         id="path4464" />
      <path
         style="stroke:#000000;stroke-width:20"
         ill="none"
         d="M 112,216 96,178 64,88 C 64,88 55,80 60,53 65,26 76,29 76,29"
         id="path4466" />
    </symbol>
  </defs>
  <rect
     ry="20"
     rx="20"
     y="1.5"
     x="1.5"
     height="125"
     width="125"
     id="rect826"
     style="color:#000000;overflow:visible;opacity:1;vector-effect:none;fill:#971583;fill-opacity:1;fill-rule:evenodd;stroke:#ffffff;stroke-width:3;stroke-linecap:butt;stroke-linejoin:miter;stroke-miterlimit:4;stroke-dasharray:none;stroke-dashoffset:0;stroke-opacity:1;marker:none;paint-order:normal" />
  <g
     transform="matrix(48.14969,0,0,48.14969,-536.27327,-485.30675)"
     style="display:none;stroke:#757575;stroke-opacity:1"
     id="layer3">
    <rect
       y="1"
       x="1"
       height="10"
       width="10"
       id="rect4134"
       style="display:inline;fill:none;stroke:#757575;stroke-width:0.1;stroke-miterlimit:4;stroke-dasharray:none;stroke-opacity:1" />
    <rect
       y="2"
       x="2"
       height="8"
       width="8"
       id="rect4136"
       style="display:inline;fill:none;stroke:#757575;stroke-width:0.1;stroke-miterlimit:4;stroke-dasharray:none;stroke-opacity:1" />
  </g>
  <g
     transform="matrix(1.3973279,-0.2437849,0.2437849,1.3973279,-185.07402,-508.18331)"
     id="g3338" />
  <path
     id="path7165"
     d="m 44.845413,26.491218 c -4.36733,0.05373 -8.743999,1.087427 -12.786974,3.139282 -0.04545,0.02096 -0.08779,0.0454 -0.133072,0.06654 -0.05972,0.0307 -0.121894,0.05354 -0.181461,0.08468 v 0.0061 C 14.655811,37.902349 9.7630251,59.354719 17.704848,75.165197 28.734812,98.248262 56.954474,106.14008 79.571067,98.851948 100.30969,93.126304 117.59932,72.710903 113.30473,49.651732 c -0.0267,-0.143378 -0.0442,-0.285878 -0.0726,-0.429458 h -0.0121 C 110.80284,33.198543 94.361187,23.580849 79.220217,27.350135 c -5.44259,1.355182 -10.29046,3.607229 -14.61973,6.484219 -5.525045,-4.900367 -12.615555,-7.430969 -19.755094,-7.343136 z m 41.911514,4.070784 c 0.53898,-0.03792 1.04679,0.306104 1.19765,0.846818 l 1.19764,4.282488 c 0.008,0.02506 0.018,0.05309 0.0242,0.07863 0.15144,0.623836 -0.23508,1.251857 -0.85892,1.403301 -0.62383,0.151442 -1.25186,-0.235079 -1.4033,-0.858917 l -1.19764,-4.282487 c -0.17242,-0.617959 0.18652,-1.255084 0.80447,-1.427495 0.0773,-0.02155 0.15891,-0.03692 0.2359,-0.04234 z m -33.655023,2.703774 c 0.641397,-0.02672 1.183017,0.471562 1.209742,1.112962 0.02672,0.641397 -0.471564,1.183015 -1.112963,1.209742 l -4.433705,0.338727 c -0.639727,0.04844 -1.197596,-0.430896 -1.246035,-1.070622 -0.04844,-0.639727 0.430894,-1.197598 1.070622,-1.246034 l 4.433705,-0.338728 c 0.02613,-0.0029 0.05236,-0.0049 0.07863,-0.0061 z m -21.539461,2.171487 c 0.07717,0.0015 0.151629,0.01257 0.229852,0.03024 l 4.342976,0.97384 c 0.02584,0.0049 0.04714,0.01152 0.07258,0.01814 0.62102,0.162612 0.997335,0.800428 0.834723,1.421448 -0.162608,0.621017 -0.800428,0.991283 -1.421446,0.828673 l -4.336926,-0.979892 c -0.625791,-0.141361 -1.018425,-0.759364 -0.877064,-1.385155 0.123695,-0.547566 0.615104,-0.918284 1.155303,-0.907305 z m 41.058654,1.282326 c 0.37313,0.0022 0.73914,0.186384 0.96174,0.52019 0.35617,0.534088 0.21351,1.252791 -0.32058,1.608956 l -3.61713,2.594896 c -0.52138,0.373848 -1.24115,0.255239 -1.61501,-0.266142 -0.37384,-0.52138 -0.25523,-1.247206 0.26615,-1.621056 l 3.61108,-2.594896 c 0.0208,-0.01606 0.0386,-0.02773 0.0605,-0.04234 0.20028,-0.133562 0.42938,-0.200954 0.65326,-0.199607 z m 31.973483,2.679578 c 0.6414,-0.02672 1.18302,0.471566 1.20974,1.112964 0.0267,0.641397 -0.47156,1.183017 -1.11296,1.209742 l -4.4337,0.338727 c -0.639733,0.04844 -1.197603,-0.430894 -1.246043,-1.070622 -0.0484,-0.639727 0.4309,-1.197596 1.070623,-1.246034 l 4.43371,-0.338728 c 0.0261,-0.0029 0.0524,-0.0049 0.0786,-0.0061 z m -59.452779,1.288376 c 3.07016,0.01268 6.156515,0.907877 8.679899,2.600945 -7.014623,7.80579 -13.008829,18.877469 -16.91223,27.606389 -1.083433,2.311338 -0.837502,5.024712 0.647211,7.101186 1.484714,2.076474 3.976944,3.193178 6.514463,2.915478 2.537515,-0.277699 4.727668,-1.903799 5.728129,-4.252242 3.634021,-8.126522 9.063169,-17.765705 14.758884,-24.025551 5.24142,5.577927 11.0725,14.654632 13.5129,21.769416 0.79057,2.422659 2.82426,4.228813 5.32286,4.730091 2.4986,0.501281 5.0744,-0.380366 6.73827,-2.310606 1.66386,-1.930241 2.15856,-4.607004 1.29442,-7.004408 -3.01998,-8.804529 -9.6036,-19.277285 -15.76906,-26.039807 2.20691,-1.169748 4.52135,-2.111178 6.97416,-2.721918 0.90696,-0.225784 1.83105,-0.345994 2.75822,-0.368973 6.49013,-0.160857 13.06089,4.434178 13.91808,10.83929 l 0.0302,0.217754 0.0423,0.217754 c 2.863823,14.490019 -9.53599,29.412773 -23.85006,33.36469 l -0.14517,0.04234 -0.14517,0.04234 C 58.928353,90.668155 37.762897,84.384977 30.388995,68.95317 l -0.03024,-0.06049 -0.03024,-0.06653 c -4.520035,-8.998428 -1.396138,-22.207068 7.63952,-26.37238 l 0.157267,-0.07258 0.157266,-0.08468 c 2.092649,-1.094185 4.471336,-1.618823 6.85924,-1.608958 z m -20.78337,7.790739 c 0.35791,0.01532 0.705148,0.198899 0.919403,0.52019 0.356165,0.534089 0.21351,1.25884 -0.320581,1.615006 l -3.611081,2.594896 c -0.521378,0.373847 -1.247207,0.249187 -1.621055,-0.27219 -0.373846,-0.52138 -0.255235,-1.247208 0.266144,-1.621056 l 3.61108,-2.588848 c 0.02082,-0.01606 0.04467,-0.03378 0.06654,-0.04839 0.166903,-0.111301 0.351672,-0.176617 0.538335,-0.193557 0.05133,-0.0047 0.100087,-0.0082 0.151219,-0.0061 z m 53.404066,3.635276 c 0.4955,0.0048 0.95082,0.329131 1.10087,0.828673 0.18467,0.614817 -0.16547,1.267022 -0.78029,1.451692 l -4.2099,1.421446 c -0.60783,0.205295 -1.27059,-0.118018 -1.47589,-0.725845 -0.20529,-0.607825 0.12407,-1.264541 0.7319,-1.469836 l 4.2099,-1.427496 c 0.0246,-0.0093 0.0474,-0.01661 0.0726,-0.0242 0.11527,-0.03462 0.23648,-0.05555 0.35082,-0.05444 z M 56.35611,52.797062 c 0.641399,-0.02673 1.183019,0.471564 1.209742,1.112962 0.02672,0.641399 -0.471564,1.183017 -1.112963,1.209744 l -4.433705,0.338727 c -0.639726,0.04844 -1.197596,-0.430896 -1.246033,-1.070622 -0.04844,-0.639727 0.430894,-1.197598 1.070622,-1.246034 l 4.433705,-0.338727 c 0.02613,-0.0029 0.05236,-0.0049 0.07863,-0.0061 z m 48.95827,0.459702 c 0.22368,-0.0051 0.45088,0.05742 0.65326,0.187511 l 3.74415,2.401338 c 0.0226,0.01343 0.0449,0.0274 0.0665,0.04234 0.52793,0.365231 0.66161,1.087074 0.29638,1.615005 -0.36523,0.527932 -1.09312,0.661618 -1.62105,0.296387 l -3.7381,-2.401338 c -0.53969,-0.346898 -0.69772,-1.069271 -0.35083,-1.608957 0.21681,-0.337304 0.57684,-0.523759 0.94965,-0.532287 z M 80.932027,65.209017 c 0.0772,0.0015 0.15162,0.01257 0.22985,0.03024 l 4.33692,0.979891 c 0.0258,0.0049 0.0532,0.0055 0.0786,0.01209 0.62101,0.162612 0.99128,0.800433 0.82867,1.421448 -0.16261,0.621017 -0.79438,0.991285 -1.4154,0.828673 l -4.33693,-0.973843 c -0.62579,-0.14136 -1.01842,-0.765413 -0.87706,-1.391202 0.1237,-0.547569 0.61511,-0.918285 1.15531,-0.907308 z m -36.957628,1.022232 c 0.223686,-0.0051 0.45088,0.05137 0.653262,0.181463 l 3.744152,2.401338 c 0.0226,0.01343 0.04489,0.02741 0.06653,0.04234 0.527932,0.365231 0.65557,1.093123 0.290339,1.621053 -0.365234,0.527932 -1.087074,0.661618 -1.615006,0.296388 l -3.744152,-2.407387 c -0.539686,-0.346898 -0.691674,-1.063223 -0.344777,-1.602909 0.216811,-0.337302 0.576837,-0.523757 0.949647,-0.532287 z m -19.513142,0.266144 c 0.641399,-0.02672 1.183019,0.471564 1.209744,1.112963 0.02673,0.641398 -0.471566,1.183018 -1.112963,1.209741 l -4.433706,0.33873 c -0.639726,0.04844 -1.197595,-0.430897 -1.246034,-1.070622 -0.04844,-0.639727 0.430895,-1.197598 1.070622,-1.246035 l 4.433705,-0.338729 c 0.02613,-0.0029 0.05236,-0.0049 0.07863,-0.0061 z m 80.502293,2.879186 c 0.37313,0.0022 0.73915,0.186383 0.96175,0.520189 0.35617,0.534089 0.20746,1.252793 -0.32663,1.608959 l -3.61108,2.594896 c -0.52138,0.373847 -1.24721,0.255237 -1.62106,-0.266143 -0.373843,-0.521379 -0.25523,-1.247207 0.26615,-1.621055 l 3.61713,-2.594896 c 0.0208,-0.01606 0.0386,-0.02773 0.0605,-0.04234 0.20029,-0.13356 0.42939,-0.200953 0.65326,-0.199607 z m -75.844786,7.802838 c 0.495,0.01459 0.942636,0.350776 1.082721,0.852868 l 1.197644,4.282486 c 0.0079,0.02507 0.01797,0.04704 0.02419,0.07259 0.151441,0.623836 -0.235084,1.251858 -0.858918,1.403302 -0.623831,0.151441 -1.251854,-0.229034 -1.403296,-0.852868 l -1.197644,-4.282489 c -0.172412,-0.617957 0.19257,-1.261129 0.810529,-1.433543 0.115865,-0.03233 0.230544,-0.04571 0.344774,-0.04234 z m 64.261503,2.649334 c 0.64093,-0.02836 1.18138,0.472033 1.20974,1.112963 l 0.19961,4.439755 c 0.002,0.02621 0.006,0.05234 0.006,0.07863 0.007,0.641921 -0.51339,1.166843 -1.15531,1.17345 -0.64192,0.0066 -1.16683,-0.507334 -1.17345,-1.149254 l -0.1996,-4.439755 c -0.0284,-0.64093 0.47203,-1.187424 1.11296,-1.215791 z m -52.684268,8.843216 c 0.07717,0.0015 0.157676,0.01257 0.235898,0.03024 l 4.336927,0.97989 c 0.02584,0.0049 0.05319,0.01152 0.07863,0.01814 0.621017,0.16261 0.991285,0.794381 0.828673,1.415398 -0.162607,0.621018 -0.800428,0.991286 -1.421445,0.828674 l -4.336925,-0.973838 c -0.625791,-0.141363 -1.018424,-0.765415 -0.877064,-1.391204 0.123695,-0.547567 0.615105,-0.918283 1.155306,-0.907306 z m 40.562658,1.983977 c 0.64139,-0.02672 1.18301,0.471564 1.20974,1.112963 0.0267,0.641398 -0.47157,1.183018 -1.11297,1.209741 l -4.4337,0.338729 c -0.63973,0.04844 -1.1976,-0.430894 -1.24603,-1.070621 -0.0484,-0.639728 0.43089,-1.197598 1.07062,-1.246035 l 4.4337,-0.338729 c 0.0261,-0.0029 0.0524,-0.0049 0.0786,-0.0061 z m -23.348029,1.12506 c 0.223686,-0.0051 0.450878,0.05138 0.653263,0.181463 l 3.744156,2.401338 c 0.0226,0.01343 0.0449,0.0274 0.0665,0.04234 0.52793,0.365231 0.65557,1.093121 0.29034,1.621053 -0.36523,0.527932 -1.08707,0.661618 -1.61501,0.296386 l -3.744148,-2.407385 c -0.539686,-0.346898 -0.691675,-1.063223 -0.344777,-1.602909 0.21681,-0.337304 0.576837,-0.523759 0.949646,-0.532287 z"
     style="fill:#ffffff;fill-opacity:1;fill-rule:evenodd;stroke:none;stroke-width:72.95391083;stroke-linecap:round;stroke-linejoin:miter;stroke-miterlimit:4;stroke-dasharray:none;stroke-opacity:1" />
  <path
     id="path7219"
     d="m 44.880741,26.526059 c -4.36733,0.05373 -8.743999,1.087427 -12.786973,3.139282 -0.04545,0.02096 -0.08779,0.0454 -0.133073,0.06654 -0.05972,0.0307 -0.121893,0.05354 -0.18146,0.08468 v 0.0061 C 14.69114,37.93719 9.7983551,59.38956 17.740177,75.200036 28.770141,98.283103 56.989803,106.17492 79.606387,98.886787 100.34502,93.161143 117.63466,72.745743 113.34005,49.686573 c -0.0267,-0.143378 -0.0442,-0.285878 -0.0726,-0.429458 h -0.0121 C 110.83818,33.233384 94.396527,23.61569 79.255547,27.384976 c -5.44258,1.355182 -10.29045,3.607229 -14.61973,6.484219 -5.525036,-4.900367 -12.615546,-7.430969 -19.755086,-7.343136 z m 40.544506,14.196324 c 6.49014,-0.160856 13.06089,4.434179 13.91809,10.839291 l 0.0302,0.217754 0.0423,0.217752 c 2.863803,14.490021 -9.53601,29.412775 -23.85008,33.364692 l -0.14517,0.04234 -0.14516,0.04234 C 58.963681,90.702996 37.798226,84.419816 30.424322,68.98801 l -0.03024,-0.06049 -0.03024,-0.06654 C 25.843801,59.86256 28.967699,46.65392 38.003357,42.488608 l 0.157266,-0.07259 0.157267,-0.08468 c 4.783197,-2.500997 11.05312,-2.017914 15.539138,0.991987 -7.014623,7.80579 -12.168025,17.195856 -16.071425,25.924776 -1.083431,2.311339 -0.83503,5.027477 0.649682,7.103951 1.484715,2.076473 3.97455,3.189947 6.512067,2.912247 2.53752,-0.277701 4.727595,-1.903332 5.728055,-4.251778 3.634021,-8.126519 8.222364,-16.08409 13.91808,-22.343936 5.24142,5.577927 9.39089,12.132213 11.83129,19.246997 0.79056,2.422659 2.82521,4.231372 5.32381,4.732652 2.4986,0.501278 5.07345,-0.382661 6.73732,-2.312902 1.66385,-1.930241 2.15856,-4.607269 1.29442,-7.004672 -3.01999,-8.80453 -7.92199,-16.754869 -14.08746,-23.517389 2.20693,-1.169748 4.52136,-2.111178 6.97418,-2.721921 0.90695,-0.225781 1.83104,-0.345991 2.7582,-0.368971 z"
     style="opacity:0.1;fill:#ffffff;fill-opacity:1;fill-rule:evenodd;stroke:none;stroke-width:72.95391083;stroke-linecap:round;stroke-linejoin:miter;stroke-miterlimit:4;stroke-dasharray:none;stroke-opacity:1" />
</svg>
