<?xml version="1.0" encoding="UTF-8" standalone="no"?>
<svg
   xmlns:dc="http://purl.org/dc/elements/1.1/"
   xmlns:cc="http://creativecommons.org/ns#"
   xmlns:rdf="http://www.w3.org/1999/02/22-rdf-syntax-ns#"
   xmlns:svg="http://www.w3.org/2000/svg"
   xmlns="http://www.w3.org/2000/svg"
   version="1.0"
   width="128"
   height="128"
   id="svg2">
  <metadata
     id="metadata1976">
    <rdf:RDF>
      <cc:Work
         rdf:about="">
        <dc:format>image/svg+xml</dc:format>
        <dc:type
           rdf:resource="http://purl.org/dc/dcmitype/StillImage" />
        <cc:license
           rdf:resource="http://web.resource.org/cc/PublicDomain" />
        <dc:language>en</dc:language>
        <dc:title></dc:title>
      </cc:Work>
    </rdf:RDF>
  </metadata>
  <defs
     id="defs4">
    <marker
       viewBox="0 0 10 10"
       refY="5"
       refX="10"
       orient="auto"
       markerWidth="4"
       markerUnits="strokeWidth"
       markerHeight="3"
       id="ArrowStart">
      <path
         id="path2111"
         d="M 10,0 0,5 10,10 Z" />
    </marker>
    <marker
       viewBox="0 0 10 10"
       refY="5"
       refX="0"
       orient="auto"
       markerWidth="4"
       markerUnits="strokeWidth"
       markerHeight="3"
       id="ArrowEnd">
      <path
         id="path2108"
         d="M 0,0 10,5 0,10 Z" />
    </marker>
  </defs>
  <path
     style="opacity:1;fill:#ffffff;fill-opacity:1;stroke:#0092da;stroke-width:5.96933174;stroke-miterlimit:4;stroke-dasharray:none;stroke-dashoffset:0;stroke-opacity:1"
     id="path3276"
     d="M 125.01534,64 A 61.015338,61.015338 0 1 1 2.984664,64 61.015338,61.015338 0 1 1 125.01534,64 Z" />
  <path
     style="fill:#0092da;fill-opacity:1;stroke:none;stroke-width:0.22443351"
     d="m 63.6879,15.740273 c 0.11893,0 0.242487,0.0046 0.362658,0.0055 0.121006,-8.97e-4 0.242916,-0.0055 0.36266,-0.0055 z m 0.362658,0.0055 c -8.44443,0.06691 -19.885449,2.4446 -24.660801,4.434329 -4.84378,2.018243 -8.07394,4.037457 -9.082957,9.082956 l -3.632081,27.974185 v 38.540746 h 6.258611 v 6.044311 c 0,7.36969 10.780859,7.36969 10.780859,0 v -6.044315 h 19.913267 0.06044 20.699029 v 6.044315 c 0,7.36969 10.786353,7.36969 10.786353,0 V 95.777985 H 101.4319 V 57.237237 L 97.799808,29.263052 c -1.00901,-5.045499 -4.23917,-7.064714 -9.082952,-9.082957 -4.77582,-1.989924 -16.221628,-4.367867 -24.666298,-4.434328 z M 48.676021,22.806631 H 63.6879 79.430591 c 3.027467,2e-6 3.027469,4.53873 0,4.53873 h -15.77566 -14.97891 c -3.027467,0 -3.027469,-4.53873 0,-4.53873 z m -8.165318,9.126914 h 23.144228 23.935484 c 3.198023,0 4.035065,1.62331 4.42334,4.088156 l 2.829833,20.286917 c 0.26363,1.944546 -0.302618,3.873853 -2.989183,3.873855 H 63.6879 36.246714 c -2.686568,0 -3.247318,-1.929311 -2.983694,-3.873855 l 2.829838,-20.286919 c 0.388279,-2.464846 1.219818,-4.088156 4.417845,-4.088156 z m -2.181449,41.414543 c 2.856913,-2e-6 5.170637,2.319218 5.170637,5.176131 0,2.856915 -2.313724,5.170636 -5.170637,5.170636 -2.856912,2e-6 -5.17613,-2.313724 -5.17613,-5.170636 0,-2.856911 2.319218,-5.176131 5.17613,-5.176131 z m 51.448104,0 c 2.856913,0 5.17063,2.31922 5.17064,5.176131 0,2.856912 -2.313727,5.170638 -5.17064,5.170636 -2.856913,0 -5.176133,-2.313721 -5.17613,-5.170636 0,-2.856913 2.319219,-5.176133 5.17613,-5.176131 z"
     id="path2115" />
  <g
     id="g2117"
     transform="matrix(1.1975036,0,0,1.1975036,80.128205,-417.42417)"
     style="fill:#000000">
    <g
       id="g2119"
       style="fill:#000000">
      <g
         id="g2121"
         style="fill:#000000">
        <path
           id="path2125"
           style="fill:#000000;stroke:none"
           d="" />
      </g>
      <g
         id="g2127"
         style="fill:#000000">
        <path
           id="path2131"
           style="fill:#000000;stroke:none"
           d="" />
      </g>
    </g>
  </g>
</svg>
