<?xml version="1.0" encoding="UTF-8" standalone="no"?>
<svg
   xmlns:dc="http://purl.org/dc/elements/1.1/"
   xmlns:cc="http://creativecommons.org/ns#"
   xmlns:rdf="http://www.w3.org/1999/02/22-rdf-syntax-ns#"
   xmlns:svg="http://www.w3.org/2000/svg"
   xmlns="http://www.w3.org/2000/svg"
   id="svg2"
   height="128"
   width="128"
   version="1.0">
  <metadata
     id="metadata2975">
    <rdf:RDF>
      <cc:Work
         rdf:about="">
        <dc:format>image/svg+xml</dc:format>
        <dc:type
           rdf:resource="http://purl.org/dc/dcmitype/StillImage" />
        <cc:license
           rdf:resource="http://web.resource.org/cc/PublicDomain" />
        <dc:language>en</dc:language>
        <dc:title></dc:title>
      </cc:Work>
    </rdf:RDF>
  </metadata>
  <defs
     id="defs4" />
  <path
     style="fill:#000080;fill-opacity:1;fill-rule:evenodd;stroke:#ffffff;stroke-width:3.03997755px;stroke-linecap:butt;stroke-linejoin:miter;stroke-miterlimit:4;stroke-dasharray:none;stroke-opacity:1"
     d="m 21.52031,1.520455 h 84.95938 c 11.11992,0 19.99985,8.87994 19.99985,19.99986 V 106.4797 c 0,11.11992 -8.87993,19.99985 -19.99985,19.99985 H 21.52031 c -11.11992,0 -19.99985,-8.87993 -19.99985,-19.99985 V 21.520315 c 0,-11.11992 8.87993,-19.99986 19.99985,-19.99986 z"
     id="path828" />
  <path
     id="path2443"
     d="M 63.617086,35.572535 C 63.289141,37.356344 21.161995,114.5373 21.161995,114.5373 l 84.791755,-0.13848 z"
     style="fill:none;fill-rule:evenodd;stroke:#ffffff;stroke-width:5.66811323;stroke-linecap:butt;stroke-linejoin:miter;stroke-miterlimit:4;stroke-dasharray:none;stroke-opacity:1" />
  <path
     style="fill:#ffffff;fill-opacity:1;fill-rule:evenodd;stroke:#ffffff;stroke-width:5.66811323;stroke-linecap:butt;stroke-linejoin:miter;stroke-miterlimit:4;stroke-dasharray:none;stroke-opacity:1"
     d="m 63.617086,40.735845 c -0.160616,0.873636 -2.773874,5.285712 2.787478,24.531603 5.793959,20.050865 21.346711,49.269852 21.346711,49.269852 l 18.202475,-0.13848 z"
     id="path2383" />
  <path
     id="path3155"
     d="M 64.351406,40.735845 C 64.51202,41.609481 67.12528,46.021557 61.56393,65.267448 55.769969,85.318313 40.217217,114.5373 40.217217,114.5373 l -18.20248,-0.13848 z"
     style="fill:#ffffff;fill-opacity:1;fill-rule:evenodd;stroke:#ffffff;stroke-width:5.66811323;stroke-linecap:butt;stroke-linejoin:miter;stroke-miterlimit:4;stroke-dasharray:none;stroke-opacity:1" />
  <path
     style="fill:none;fill-rule:evenodd;stroke:#ffffff;stroke-width:5.66811323;stroke-linecap:butt;stroke-linejoin:miter;stroke-miterlimit:4;stroke-dasharray:none;stroke-opacity:1"
     d="M 55.237628,19.566271 105.95375,114.39882 Z"
     id="path3157" />
  <path
     id="path3161"
     d="M 72.358586,20.082601 21.719802,114.39882 Z"
     style="fill:none;fill-rule:evenodd;stroke:#ffffff;stroke-width:5.66811323;stroke-linecap:butt;stroke-linejoin:miter;stroke-miterlimit:4;stroke-dasharray:none;stroke-opacity:1" />
</svg>
