<?xml version="1.0" encoding="UTF-8" standalone="no"?>
<svg
   xmlns:dc="http://purl.org/dc/elements/1.1/"
   xmlns:cc="http://creativecommons.org/ns#"
   xmlns:rdf="http://www.w3.org/1999/02/22-rdf-syntax-ns#"
   xmlns:svg="http://www.w3.org/2000/svg"
   xmlns="http://www.w3.org/2000/svg"
   id="svg2"
   height="128"
   width="128"
   version="1.0">
  <metadata
     id="metadata2975">
    <rdf:RDF>
      <cc:Work
         rdf:about="">
        <dc:format>image/svg+xml</dc:format>
        <dc:type
           rdf:resource="http://purl.org/dc/dcmitype/StillImage" />
        <cc:license
           rdf:resource="http://web.resource.org/cc/PublicDomain" />
        <dc:language>en</dc:language>
        <dc:title></dc:title>
      </cc:Work>
    </rdf:RDF>
  </metadata>
  <defs
     id="defs4">
    <symbol
       id="symbol-university"
       viewBox="244.5 110 489 219.9">
      <path
         d="m 79,43 57,119 c 0,0 21,-96 104,-96 83,0 124,106 124,106 L 407,39 489,22 0,17 Z"
         id="path4460" />
      <path
         style="fill:none;stroke:#000000;stroke-width:20"
         d="M 94,176 73,215"
         id="path4462" />
      <path
         d="M 300,19 C 300,29.5 277.4,38 249.5,38 221.6,38 199,29.5 199,19 199,8.5 221.6,0 249.5,0 277.4,0 300,8.5 300,19 Z"
         id="path4464" />
      <path
         style="stroke:#000000;stroke-width:20"
         ill="none"
         d="M 112,216 96,178 64,88 C 64,88 55,80 60,53 65,26 76,29 76,29"
         id="path4466" />
    </symbol>
  </defs>
  <path
     style="fill:#000080;fill-opacity:1;fill-rule:evenodd;stroke:#ffffff;stroke-width:3.03997755px;stroke-linecap:butt;stroke-linejoin:miter;stroke-miterlimit:4;stroke-dasharray:none;stroke-opacity:1"
     d="m 21.520311,1.52046 h 84.959379 c 11.11992,0 19.99985,8.87994 19.99985,19.99986 v 84.95937 c 0,11.11992 -8.87993,19.99985 -19.99985,19.99985 H 21.520311 c -11.11992,0 -19.999851,-8.87993 -19.999851,-19.99985 V 21.52032 c 0,-11.11992 8.879931,-19.99986 19.999851,-19.99986 z"
     id="path828" />
  <g
     transform="matrix(48.14969,0,0,48.14969,-536.27327,-485.30675)"
     style="display:none;stroke:#757575;stroke-opacity:1"
     id="layer3">
    <rect
       y="1"
       x="1"
       height="10"
       width="10"
       id="rect4134"
       style="display:inline;fill:none;stroke:#757575;stroke-width:0.1;stroke-miterlimit:4;stroke-dasharray:none;stroke-opacity:1" />
    <rect
       y="2"
       x="2"
       height="8"
       width="8"
       id="rect4136"
       style="display:inline;fill:none;stroke:#757575;stroke-width:0.1;stroke-miterlimit:4;stroke-dasharray:none;stroke-opacity:1" />
  </g>
  <path
     id="flowRoot3192"
     d="m 96.004786,59.542201 c -9.5e-5,2.431547 -1.1904,3.647298 -3.570915,3.647256 H 79.801318 c -2.383284,4.2e-5 -3.574888,-1.215709 -3.57481,-3.647256 v -5.912396 c -7.8e-5,-2.349546 1.191526,-3.524346 3.57481,-3.524403 h 12.632553 c 2.380515,5.7e-5 3.57082,1.174857 3.570915,3.524403 z m -35.98175,0.126685 c -6.1e-5,2.347082 -1.234496,3.520605 -3.703315,3.52056 H 29.014087 c -2.383234,4.5e-5 -3.574834,-1.173478 -3.574808,-3.52056 v -6.039089 c -2.6e-5,-2.349547 1.191574,-3.524349 3.574808,-3.524404 h 27.305634 c 2.468819,5.5e-5 3.703254,1.174857 3.703315,3.524404 z m 56.017044,28.306549 h -9.19014 v -31.45087 c -1.1e-4,-4.865514 -1.72261,-8.975391 -5.16752,-12.329647 -3.445098,-3.354132 -7.592342,-5.031227 -12.441734,-5.031295 H 29.524218 c -4.935182,6.8e-5 -9.103845,1.677163 -12.505993,5.031295 -3.402186,3.354256 -5.103268,7.464133 -5.103255,12.329647 v 22.267463 c -1.3e-5,3.521863 1.275961,6.540766 3.827928,9.056714 2.551934,2.515981 5.614013,3.773965 9.186251,3.77395 H 45.47457 c 0.254376,-3.606286 1.70039,-6.667421 4.338061,-9.18341 2.63757,-2.515938 5.828157,-3.77392 9.57177,-3.773948 3.65782,2.8e-5 6.82634,1.25801 9.505566,3.773948 2.679089,2.515989 4.104338,5.534892 4.275754,9.056717 H 119.611 c -1.3e-4,-2.347024 -1.19043,-3.520545 -3.57092,-3.520564 z M 59.384401,96.77876 c -1.191665,1.1e-5 -2.212573,-0.419105 -3.062735,-1.257342 -0.850274,-0.83822 -1.275383,-1.844732 -1.275324,-3.019546 -5.9e-5,-1.256688 0.42505,-2.283678 1.275324,-3.08097 0.850162,-0.79726 1.87107,-1.1959 3.062735,-1.195917 1.188945,1.7e-5 2.209205,0.398657 3.060785,1.195917 0.851453,0.797292 1.277208,1.824282 1.277273,3.08097 -6.5e-5,1.174814 -0.42582,2.181326 -1.277273,3.019546 -0.85158,0.838237 -1.87184,1.257353 -3.060785,1.257342 z m 0,-14.212784 c -2.809025,2.6e-5 -5.191579,0.964306 -7.147676,2.892852 -1.9562,1.928586 -2.934274,4.276265 -2.934224,7.043044 -5e-5,2.684905 0.978024,4.991631 2.934224,6.920189 1.956097,1.928579 4.338651,2.892849 7.147676,2.892849 2.720634,0 5.059705,-0.96427 7.017219,-2.892849 1.957379,-1.928558 2.936102,-4.235284 2.936172,-6.920189 -7e-5,-2.766779 -0.978793,-5.114458 -2.936172,-7.043044 -1.957514,-1.928546 -4.296585,-2.892826 -7.017219,-2.892852 z"
     style="font-style:normal;font-variant:normal;font-weight:normal;font-stretch:normal;font-size:40px;line-height:125%;font-family:NPSPICT3;-inkscape-font-specification:NPSPICT3;text-align:start;writing-mode:lr-tb;text-anchor:start;fill:#ffffff;fill-opacity:1;stroke:none;stroke-width:3.16749883px;stroke-linecap:butt;stroke-linejoin:miter;stroke-opacity:1" />
</svg>
