<?xml version="1.0" encoding="UTF-8" standalone="no"?>
<svg
   xmlns:dc="http://purl.org/dc/elements/1.1/"
   xmlns:cc="http://creativecommons.org/ns#"
   xmlns:rdf="http://www.w3.org/1999/02/22-rdf-syntax-ns#"
   xmlns:svg="http://www.w3.org/2000/svg"
   xmlns="http://www.w3.org/2000/svg"
   id="svg2"
   height="128"
   width="128"
   version="1.0">
  <metadata
     id="metadata10">
    <rdf:RDF>
      <cc:Work
         rdf:about="">
        <dc:format>image/svg+xml</dc:format>
        <dc:type
           rdf:resource="http://purl.org/dc/dcmitype/StillImage" />
        <cc:license
           rdf:resource="http://web.resource.org/cc/PublicDomain" />
        <dc:language>en</dc:language>
        <dc:title></dc:title>
      </cc:Work>
    </rdf:RDF>
  </metadata>
  <defs
     id="defs4">
    <style
       id="style6"
       type="text/css">
   
    .fil0 {fill:#EF7900}
   
  </style>
    <marker
       id="ArrowStart"
       markerHeight="3"
       markerUnits="strokeWidth"
       markerWidth="4"
       orient="auto"
       refX="10"
       refY="5"
       viewBox="0 0 10 10">
      <path
         d="M 10,0 0,5 10,10 Z"
         id="path2295" />
    </marker>
    <marker
       id="ArrowEnd"
       markerHeight="3"
       markerUnits="strokeWidth"
       markerWidth="4"
       orient="auto"
       refX="0"
       refY="5"
       viewBox="0 0 10 10">
      <path
         d="M 0,0 10,5 0,10 Z"
         id="path2292" />
    </marker>
    <marker
       id="marker8025"
       markerHeight="3"
       markerUnits="strokeWidth"
       markerWidth="4"
       orient="auto"
       refX="10"
       refY="5"
       viewBox="0 0 10 10">
      <path
         d="M 10,0 0,5 10,10 Z"
         id="path8027" />
    </marker>
    <marker
       id="marker8021"
       markerHeight="3"
       markerUnits="strokeWidth"
       markerWidth="4"
       orient="auto"
       refX="0"
       refY="5"
       viewBox="0 0 10 10">
      <path
         d="M 0,0 10,5 0,10 Z"
         id="path8023" />
    </marker>
  </defs>
  <path
     style="fill:#971583;fill-opacity:1;fill-rule:evenodd;stroke:#ffffff;stroke-width:3.03997755px;stroke-linecap:butt;stroke-linejoin:miter;stroke-miterlimit:4;stroke-dasharray:none;stroke-opacity:1"
     d="m 21.520314,1.52046 h 84.959376 c 11.11992,0 19.99985,8.87994 19.99985,19.99986 v 84.95937 c 0,11.11992 -8.87993,19.99985 -19.99985,19.99985 H 21.520314 c -11.119918,0 -19.999852,-8.87993 -19.999852,-19.99985 V 21.52032 c 0,-11.11992 8.879934,-19.99986 19.999852,-19.99986 z"
     id="path828" />
  <g
     transform="translate(879.29125,-415.19488)"
     id="g2319">
    <path
       d=""
       style="fill:#ffffff;stroke:none"
       id="path2323" />
  </g>
  <g
     transform="translate(879.29125,-415.19488)"
     id="g2325">
    <path
       d=""
       style="fill:#ffffff;stroke:none"
       id="path2329" />
  </g>
  <path
     id="path1897"
     d="m 54.951724,24.662066 c -1.871983,0 -3.737931,1.352969 -3.737931,3.51724 l -0.04138,69.572416 h 3.848275 l 0.03448,5.503448 35.331035,-0.0207 0.02758,-5.482758 3.310345,0.02759 V 27.462076 c 2e-6,-1.499824 -0.868773,-2.799999 -2.503448,-2.799999 z m 5.910345,7.689654 h 23.151724 c 1.281825,0 2.289657,0.522044 2.289655,2.289657 v 18.289655 c 0,1.238887 -0.662261,2.137929 -2.075861,2.137929 l -23.303449,-0.06207 c -1.345825,0 -2.503448,-0.994287 -2.503448,-2.441379 l 0.117241,-17.986208 c 0,-1.439712 0.997471,-2.227586 2.324138,-2.227586 z"
     style="fill:#ffffff;fill-opacity:1;fill-rule:evenodd;stroke:none;stroke-width:0.22068965px;stroke-linecap:butt;stroke-linejoin:miter;stroke-opacity:1" />
  <path
     id="path1899"
     style="fill:#ffffff;fill-opacity:1;fill-rule:evenodd;stroke:none;stroke-width:0.22068965px;stroke-linecap:butt;stroke-linejoin:miter;stroke-opacity:1"
     d="m 51.383638,48.575535 -3.535803,-0.02094 c -0.02293,14.387432 0.08193,42.781773 0.141853,43.267606 0.127911,1.037089 0.05056,2.111512 -0.215716,3.090335 C 42.231026,108.87626 25.176584,103.14067 26.84188,88.875195 26.80727,75.54279 26.81606,69.135092 26.92207,51.725943 h 2.52002 c 0.117235,10.072509 0.545648,27.581236 0.570107,39.349365 -0.404938,9.265402 10.617128,12.318062 14.069127,2.372903 1.538324,-17.40837 -0.05783,-36.383984 -0.08676,-54.575979 2.243204,-6.668638 4.718346,-7.306966 7.230254,-6.989341" />
  <path
     style="color:#000000;overflow:visible;opacity:1;vector-effect:none;fill:#fffff0;fill-opacity:1;fill-rule:evenodd;stroke:none;stroke-width:1.76551723;stroke-linecap:square;stroke-linejoin:miter;stroke-miterlimit:4;stroke-dasharray:none;stroke-dashoffset:0;stroke-opacity:1;marker:none;paint-order:markers stroke fill"
     id="path876"
     d="m 33.883476,49.271894 a 5.5444912,5.5444913 0 0 1 -5.54449,5.54449 5.5444912,5.5444913 0 0 1 -5.544492,-5.54449 h 5.544492 z" />
  <path
     style="fill:none;fill-rule:evenodd;stroke:#ffffff;stroke-width:1.10344827;stroke-linecap:butt;stroke-linejoin:miter;stroke-miterlimit:4;stroke-dasharray:none;stroke-opacity:1"
     d="m 26.231099,45.525421 v 3.766948"
     id="path882" />
  <path
     style="fill:none;fill-rule:evenodd;stroke:#ffffff;stroke-width:1.10344827;stroke-linecap:butt;stroke-linejoin:miter;stroke-miterlimit:4;stroke-dasharray:none;stroke-opacity:1"
     d="m 30.440678,45.525421 v 3.766948"
     id="path882-0" />
  <text
     xml:space="preserve"
     style="font-style:normal;font-weight:normal;font-size:57.94664383px;line-height:289.73321533px;font-family:sans-serif;letter-spacing:0px;word-spacing:0px;fill:#008000;fill-opacity:1;stroke:none;stroke-width:0.23575296px;stroke-linecap:butt;stroke-linejoin:miter;stroke-opacity:1"
     x="52.854496"
     y="91.366364"
     id="text918"><tspan
       id="tspan916"
       x="52.854496"
       y="91.366364"
       style="font-style:italic;font-variant:normal;font-weight:bold;font-stretch:normal;font-family:sans-serif;-inkscape-font-specification:'sans-serif Bold Italic';fill:#008000;fill-opacity:1;stroke-width:0.04777844px">e</tspan></text>
</svg>
