<?xml version="1.0" encoding="UTF-8" standalone="no"?>
<svg
   xmlns:dc="http://purl.org/dc/elements/1.1/"
   xmlns:cc="http://creativecommons.org/ns#"
   xmlns:rdf="http://www.w3.org/1999/02/22-rdf-syntax-ns#"
   xmlns:svg="http://www.w3.org/2000/svg"
   xmlns="http://www.w3.org/2000/svg"
   version="1.0"
   width="128"
   height="128"
   id="svg2">
  <metadata
     id="metadata10">
    <rdf:RDF>
      <cc:Work
         rdf:about="">
        <dc:format>image/svg+xml</dc:format>
        <dc:type
           rdf:resource="http://purl.org/dc/dcmitype/StillImage" />
        <cc:license
           rdf:resource="http://web.resource.org/cc/PublicDomain" />
        <dc:language>en</dc:language>
        <dc:title></dc:title>
      </cc:Work>
    </rdf:RDF>
  </metadata>
  <defs
     id="defs4">
    <style
       type="text/css"
       id="style6">
   
    .fil0 {fill:#EF7900}
   
  </style>
    <marker
       viewBox="0 0 10 10"
       refY="5"
       refX="10"
       orient="auto"
       markerWidth="4"
       markerUnits="strokeWidth"
       markerHeight="3"
       id="ArrowStart">
      <path
         id="path2295"
         d="M 10,0 0,5 10,10 Z" />
    </marker>
    <marker
       viewBox="0 0 10 10"
       refY="5"
       refX="0"
       orient="auto"
       markerWidth="4"
       markerUnits="strokeWidth"
       markerHeight="3"
       id="ArrowEnd">
      <path
         id="path2292"
         d="M 0,0 10,5 0,10 Z" />
    </marker>
    <marker
       viewBox="0 0 10 10"
       refY="5"
       refX="10"
       orient="auto"
       markerWidth="4"
       markerUnits="strokeWidth"
       markerHeight="3"
       id="marker8025">
      <path
         id="path8027"
         d="M 10,0 0,5 10,10 Z" />
    </marker>
    <marker
       viewBox="0 0 10 10"
       refY="5"
       refX="0"
       orient="auto"
       markerWidth="4"
       markerUnits="strokeWidth"
       markerHeight="3"
       id="marker8021">
      <path
         id="path8023"
         d="M 0,0 10,5 0,10 Z" />
    </marker>
  </defs>
  <path
     style="fill:#971583;fill-opacity:1;fill-rule:evenodd;stroke:#ffffff;stroke-width:3.03997755px;stroke-linecap:butt;stroke-linejoin:miter;stroke-miterlimit:4;stroke-dasharray:none;stroke-opacity:1"
     d="m 21.520325,1.52046 h 84.959365 c 11.11991,0 19.99985,8.879941 19.99985,19.999861 v 84.959369 c 0,11.11992 -8.87994,19.99985 -19.99985,19.99985 H 21.520325 c -11.11992,0 -19.99986,-8.87993 -19.99986,-19.99985 V 21.520321 c 0,-11.11992 8.87994,-19.999861 19.99986,-19.999861 z"
     id="path828" />
  <g
     id="g2319"
     transform="translate(879.29125,-415.19488)">
    <path
       id="path2323"
       style="fill:#ffffff;stroke:none"
       d="" />
  </g>
  <g
     id="g2325"
     transform="translate(879.29125,-415.19488)">
    <path
       id="path2329"
       style="fill:#ffffff;stroke:none"
       d="" />
  </g>
  <path
     style="fill:#ffffff;fill-opacity:1;fill-rule:evenodd;stroke:none;stroke-width:0.22068965px;stroke-linecap:butt;stroke-linejoin:miter;stroke-opacity:1"
     d="m 54.951724,24.662066 c -1.871983,0 -3.737931,1.352969 -3.737931,3.51724 l -0.04138,69.572416 h 3.848275 l 0.03448,5.503448 35.331035,-0.0207 0.02758,-5.482758 3.310345,0.02759 V 27.462076 c 2e-6,-1.499824 -0.868773,-2.799999 -2.503448,-2.799999 z m 5.910345,7.689654 h 23.151724 c 1.281825,0 2.289657,0.522044 2.289655,2.289657 v 18.289655 c 0,1.238887 -0.662261,2.137929 -2.075861,2.137929 l -23.303449,-0.06207 c -1.345825,0 -2.503448,-0.994287 -2.503448,-2.441379 l 0.117241,-17.986208 c 0,-1.439712 0.997471,-2.227586 2.324138,-2.227586 z"
     id="path1897" />
  <path
     d="m 51.383638,48.575535 -3.535803,-0.02094 c -0.02293,14.387432 0.08193,42.781773 0.141853,43.267606 0.127911,1.037089 0.05056,2.111512 -0.215716,3.090335 C 42.231026,108.87626 24.29523,102.46271 26.84188,88.875193 32.435215,75.397558 40.278204,66.277671 44.181657,50.381317 l 0.347486,11.816787 c -3.512977,6.836011 -9.710569,18.841706 -14.516948,28.877202 -0.404938,9.265404 10.617128,12.318064 14.069127,2.372903 1.538324,-17.40837 -0.05783,-36.383984 -0.08676,-54.575979 2.243204,-6.668638 4.718346,-7.306966 7.230254,-6.989341"
     style="fill:#ffffff;fill-opacity:1;fill-rule:evenodd;stroke:none;stroke-width:0.22068965px;stroke-linecap:butt;stroke-linejoin:miter;stroke-opacity:1"
     id="path1899" />
</svg>
