<?xml version="1.0" encoding="UTF-8" standalone="no"?>
<svg
   xmlns:dc="http://purl.org/dc/elements/1.1/"
   xmlns:cc="http://creativecommons.org/ns#"
   xmlns:rdf="http://www.w3.org/1999/02/22-rdf-syntax-ns#"
   xmlns:svg="http://www.w3.org/2000/svg"
   xmlns="http://www.w3.org/2000/svg"
   version="1.0"
   width="128"
   height="128"
   id="svg2">
  <metadata
     id="metadata2975">
    <rdf:RDF>
      <cc:Work
         rdf:about="">
        <dc:format>image/svg+xml</dc:format>
        <dc:type
           rdf:resource="http://purl.org/dc/dcmitype/StillImage" />
        <cc:license
           rdf:resource="http://web.resource.org/cc/PublicDomain" />
        <dc:language>en</dc:language>
        <dc:title></dc:title>
      </cc:Work>
    </rdf:RDF>
  </metadata>
  <defs
     id="defs4">
    <symbol
       viewBox="244.5 110 489 219.9"
       id="symbol-university">
      <path
         id="path4460"
         d="m 79,43 57,119 c 0,0 21,-96 104,-96 83,0 124,106 124,106 L 407,39 489,22 0,17 Z" />
      <path
         style="fill:none;stroke:#000000;stroke-width:20"
         id="path4462"
         d="M 94,176 73,215" />
      <path
         id="path4464"
         d="M 300,19 C 300,29.5 277.4,38 249.5,38 221.6,38 199,29.5 199,19 199,8.5 221.6,0 249.5,0 277.4,0 300,8.5 300,19 Z" />
      <path
         style="stroke:#000000;stroke-width:20"
         id="path4466"
         d="M 112,216 96,178 64,88 C 64,88 55,80 60,53 65,26 76,29 76,29"
         ill="none" />
    </symbol>
  </defs>
  <path
     style="fill:#000080;fill-opacity:1;fill-rule:evenodd;stroke:#ffffff;stroke-width:3.03997755px;stroke-linecap:butt;stroke-linejoin:miter;stroke-miterlimit:4;stroke-dasharray:none;stroke-opacity:1"
     d="m 21.520314,1.52046 h 84.959366 c 11.11992,0 19.99985,8.87994 19.99985,19.99986 v 84.95937 c 0,11.11992 -8.87993,19.99985 -19.99985,19.99985 H 21.520314 c -11.11991,0 -19.999848,-8.87993 -19.999848,-19.99985 V 21.52032 c 0,-11.11992 8.879938,-19.99986 19.999848,-19.99986 z"
     id="path828" />
  <g
     id="layer3"
     style="display:none;stroke:#757575;stroke-opacity:1"
     transform="matrix(48.14969,0,0,48.14969,-536.27327,-485.30675)">
    <rect
       style="display:inline;fill:none;stroke:#757575;stroke-width:0.1;stroke-miterlimit:4;stroke-dasharray:none;stroke-opacity:1"
       id="rect4134"
       width="10"
       height="10"
       x="1"
       y="1" />
    <rect
       style="display:inline;fill:none;stroke:#757575;stroke-width:0.1;stroke-miterlimit:4;stroke-dasharray:none;stroke-opacity:1"
       id="rect4136"
       width="8"
       height="8"
       x="2"
       y="2" />
  </g>
  <path
     style="fill:#ffffff;fill-opacity:1;fill-rule:evenodd;stroke:#ffffff;stroke-width:7.25077772;stroke-linecap:butt;stroke-linejoin:miter;stroke-miterlimit:4;stroke-dasharray:none;stroke-opacity:1"
     d="M 14.516431,65.721077 13.864516,115.86706"
     id="path2157" />
  <path
     style="fill:#ffffff;fill-opacity:1;fill-rule:evenodd;stroke:#ffffff;stroke-width:7.25077772;stroke-linecap:butt;stroke-linejoin:miter;stroke-miterlimit:4;stroke-dasharray:none;stroke-opacity:1"
     d="m 15.168347,97.223042 97.787393,0.642895"
     id="path2159" />
  <path
     style="fill:#ffffff;fill-opacity:1;fill-rule:evenodd;stroke:#ffffff;stroke-width:7.25077772;stroke-linecap:butt;stroke-linejoin:miter;stroke-miterlimit:4;stroke-dasharray:none;stroke-opacity:1"
     d="m 113.60766,113.93837 0.65191,-32.78776"
     id="path2161" />
  <rect
     rx="21.013769"
     style="fill:#ffffff;fill-opacity:1;stroke:#ffffff;stroke-width:8.33839417;stroke-miterlimit:4;stroke-dasharray:none;stroke-opacity:1"
     id="rect2163"
     width="51.501358"
     height="9.0005617"
     x="52.328411"
     y="78.900475"
     ry="21.013769" />
  <path
     style="fill:#ffffff;fill-opacity:1;stroke:#ffffff;stroke-width:10.72101688;stroke-miterlimit:4;stroke-dasharray:none;stroke-opacity:1"
     id="path2167"
     d="m 44.934718,69.89991 a 7.1122908,6.2102762 0 1 1 -14.224581,0 7.1122908,6.2102762 0 1 1 14.224581,0 z" />
  <rect
     rx="3.7524583"
     style="fill:#ffffff;fill-opacity:1;stroke:#ffffff;stroke-width:7.25077772;stroke-miterlimit:4;stroke-dasharray:none;stroke-opacity:1"
     id="rect2169"
     width="19.883436"
     height="1.6072431"
     x="23.317297"
     y="85.972343"
     ry="3.7524586" />
</svg>
