<?xml version="1.0" encoding="UTF-8" standalone="no"?>
<svg
   xmlns:dc="http://purl.org/dc/elements/1.1/"
   xmlns:cc="http://creativecommons.org/ns#"
   xmlns:rdf="http://www.w3.org/1999/02/22-rdf-syntax-ns#"
   xmlns:svg="http://www.w3.org/2000/svg"
   xmlns="http://www.w3.org/2000/svg"
   id="svg2"
   height="128"
   width="128"
   version="1.0">
  <defs
     id="defs3263" />
  <metadata
     id="metadata2975">
    <rdf:RDF>
      <cc:Work
         rdf:about="">
        <dc:format>image/svg+xml</dc:format>
        <dc:type
           rdf:resource="http://purl.org/dc/dcmitype/StillImage" />
        <cc:license
           rdf:resource="http://web.resource.org/cc/PublicDomain" />
        <dc:language>en</dc:language>
        <dc:title></dc:title>
      </cc:Work>
    </rdf:RDF>
  </metadata>
  <path
     id="path828-6"
     d="m 21.520307,1.5204605 h 84.959383 c 11.11992,0 19.99985,8.8799425 19.99985,19.9998625 v 84.959367 c 0,11.11992 -8.87993,19.99985 -19.99985,19.99985 H 21.520308 c -11.119917,0 -19.9998465,-8.87993 -19.9998465,-19.99985 V 21.520323 c 0,-11.11992 8.8799295,-19.9998625 19.9998455,-19.9998625 z"
     style="fill:#550000;fill-opacity:1;fill-rule:evenodd;stroke:#ffffff;stroke-width:3.03997755px;stroke-linecap:butt;stroke-linejoin:miter;stroke-miterlimit:4;stroke-dasharray:none;stroke-opacity:1" />
  <g
     transform="matrix(48.14969,0,0,48.14969,-536.27327,-485.30675)"
     style="display:none;stroke:#757575;stroke-opacity:1"
     id="layer3">
    <rect
       y="1"
       x="1"
       height="10"
       width="10"
       id="rect4134"
       style="display:inline;fill:none;stroke:#757575;stroke-width:0.1;stroke-miterlimit:4;stroke-dasharray:none;stroke-opacity:1" />
    <rect
       y="2"
       x="2"
       height="8"
       width="8"
       id="rect4136"
       style="display:inline;fill:none;stroke:#757575;stroke-width:0.1;stroke-miterlimit:4;stroke-dasharray:none;stroke-opacity:1" />
  </g>
  <path
     id="flowRoot3192"
     d="M 27.464852,41.951166 49.513689,64.107274 27.464852,86.15611 Z M 96.059066,37.796894 68.900282,64.851662 c -1.350141,1.350111 -3.05454,2.025153 -5.113197,2.025124 -2.130278,2.9e-5 -3.906189,-0.71077 -5.327735,-2.132397 L 31.511857,37.796894 Z M 100.32061,86.15611 78.271767,64.107274 100.32061,41.951166 Z m -68.916027,4.154268 22.156107,-22.048836 0.958931,0.958929 c 2.557091,2.485651 5.646242,3.728464 9.267463,3.728439 3.621113,2.5e-5 6.674511,-1.242788 9.160198,-3.728439 l 0.958926,-0.958929 22.152858,22.048836 z M 21.5,96.27523 h 85 V 31.724771 H 21.499999 Z"
     style="font-style:normal;font-variant:normal;font-weight:normal;font-stretch:normal;font-size:40px;line-height:125%;font-family:NPSPICT3;-inkscape-font-specification:NPSPICT3;text-align:start;writing-mode:lr-tb;text-anchor:start;fill:#ffffff;fill-opacity:1;stroke:none;stroke-width:0.22860236px;stroke-linecap:butt;stroke-linejoin:miter;stroke-opacity:1" />
</svg>
