<?xml version="1.0" encoding="UTF-8" standalone="no"?>
<svg
   xmlns:dc="http://purl.org/dc/elements/1.1/"
   xmlns:cc="http://creativecommons.org/ns#"
   xmlns:rdf="http://www.w3.org/1999/02/22-rdf-syntax-ns#"
   xmlns:svg="http://www.w3.org/2000/svg"
   xmlns="http://www.w3.org/2000/svg"
   width="128"
   height="128"
   viewBox="0 0 128 128"
   version="1.1"
   id="svg8">
  <defs
     id="defs2" />
  <metadata
     id="metadata5">
    <rdf:RDF>
      <cc:Work
         rdf:about="">
        <dc:format>image/svg+xml</dc:format>
        <dc:type
           rdf:resource="http://purl.org/dc/dcmitype/StillImage" />
        <dc:title></dc:title>
      </cc:Work>
    </rdf:RDF>
  </metadata>
  <g
     style="stroke-width:7.2833333;stroke-miterlimit:4;stroke-dasharray:none"
     id="g29"
     transform="matrix(0.27459954,0,0,0.27459954,24.901513,13.587889)" />
  <g
     transform="matrix(0.23904287,0,0,0.23904287,3.9998811,4.0000006)"
     id="g837"
     style="stroke:#ffffff;stroke-width:16.73340034;stroke-miterlimit:4;stroke-dasharray:none;stroke-opacity:1">
    <path
       d="m 286.136,410.955 c -3.892,-3.919 -10.224,-3.942 -14.143,-0.053 -3.92,3.891 -3.943,10.223 -0.053,14.143 l 4.963,5 c 1.955,1.969 4.526,2.955 7.098,2.955 2.547,0 5.095,-0.967 7.045,-2.902 3.92,-3.891 3.943,-10.223 0.053,-14.143 z"
       id="path833"
       style="stroke:#ffffff;stroke-width:16.73340034;stroke-miterlimit:4;stroke-dasharray:none;stroke-opacity:1" />
    <path
       d="m 347.783,500.499 c 1.551,0.959 3.358,1.503 5.246,1.503 0.739,0 1.49,-0.082 2.241,-0.254 5.384,-1.233 8.748,-6.597 7.516,-11.98 l -55.578,-242.69 h 79.561 v 2.669 h -3.605 c -5.522,0 -10,4.478 -10,10 0,5.522 4.478,10 10,10 h 3.605 v 3.322 h -3.605 c -5.522,0 -10,4.478 -10,10 0,5.522 4.478,10 10,10 h 3.605 v 3.605 c 0,5.522 4.478,10 10,10 5.522,0 10,-4.478 10,-10 v -3.605 h 3.604 c 5.522,0 10,-4.478 10,-10 0,-5.522 -4.478,-10 -10,-10 h -3.604 v -3.322 h 3.604 c 5.522,0 10,-4.478 10,-10 0,-5.522 -4.478,-10 -10,-10 h -3.604 v -12.351 c 0,-0.054 -0.007,-0.106 -0.008,-0.16 0.059,-3.694 -1.933,-7.205 -5.307,-8.993 L 304.732,176.96 v -38.402 h 82.037 v 3.322 h -3.605 c -5.522,0 -10,4.478 -10,10 0,5.522 4.478,10 10,10 h 3.605 v 3.322 h -3.605 c -5.522,0 -10,4.478 -10,10 0,5.522 4.478,10 10,10 h 3.605 v 3.605 c 0,5.522 4.478,10 10,10 5.522,0 10,-4.478 10,-10 v -3.605 h 3.604 c 5.522,0 10,-4.478 10,-10 0,-5.522 -4.478,-10 -10,-10 h -3.604 v -3.322 h 3.604 c 5.522,0 10,-4.478 10,-10 0,-5.522 -4.478,-10 -10,-10 h -3.604 v -12.351 c 0,-0.14 -0.015,-0.277 -0.021,-0.415 0.215,-3.839 -1.8,-7.538 -5.294,-9.391 l -62.76,-33.276 c -4.878,-2.587 -10.932,-0.728 -13.52,4.15 -2.587,4.88 -0.729,10.933 4.15,13.52 l 27.237,14.441 h -51.83 V 74.455 c 0,-0.058 -0.015,-0.116 -0.02,-0.174 -0.033,-1.908 -0.594,-3.803 -1.705,-5.44 L 259.276,4.386 C 257.415,1.643 254.315,0 251.001,0 c -3.314,0 -6.414,1.643 -8.275,4.386 l -42.334,62.398 -99.841,52.937 c -3.495,1.853 -5.509,5.552 -5.294,9.391 -0.006,0.139 -0.021,0.275 -0.021,0.415 v 12.351 H 91.63 c -5.522,0 -10,4.478 -10,10 0,5.522 4.478,10 10,10 h 3.605 V 165.2 H 91.63 c -5.522,0 -10,4.478 -10,10 0,5.522 4.478,10 10,10 h 3.605 v 3.605 c 0,5.522 4.478,10 10,10 5.522,0 10,-4.478 10,-10 V 185.2 h 3.604 c 5.522,0 10,-4.478 10,-10 0,-5.522 -4.478,-10 -10,-10 h -3.604 v -3.322 h 3.604 c 5.522,0 10,-4.478 10,-10 0,-5.522 -4.478,-10 -10,-10 h -3.604 v -3.322 h 82.036 v 38.402 l -96.721,51.283 c -3.374,1.789 -5.366,5.299 -5.307,8.994 -10e-4,0.054 -0.008,0.106 -0.008,0.16 v 12.351 H 91.63 c -5.522,0 -10,4.478 -10,10 0,5.522 4.478,10 10,10 h 3.605 v 3.322 H 91.63 c -5.522,0 -10,4.478 -10,10 0,5.522 4.478,10 10,10 h 3.605 v 3.605 c 0,5.522 4.478,10 10,10 5.522,0 10,-4.478 10,-10 v -3.605 h 3.604 c 5.522,0 10,-4.478 10,-10 0,-5.522 -4.478,-10 -10,-10 h -3.604 v -3.322 h 3.604 c 5.522,0 10,-4.478 10,-10 0,-5.522 -4.478,-10 -10,-10 h -3.604 v -2.669 h 79.56 l -55.578,242.69 c -1.232,5.384 2.132,10.747 7.516,11.98 0.832,0.191 1.66,0.259 2.475,0.24 0.081,0.002 0.162,0.012 0.243,0.012 2.56,0 5.118,-0.977 7.071,-2.929 l 99.107,-99.107 h 66.072 l 14.125,61.679 -22.753,-22.753 c -3.906,-3.904 -10.236,-3.904 -14.143,0 -3.905,3.905 -3.905,10.237 0,14.143 l 46.427,45.361 z m -155.08,-154.691 21.265,21.265 c 1.953,1.952 4.512,2.929 7.071,2.929 2.559,0 5.118,-0.977 7.071,-2.929 3.905,-3.905 3.905,-10.237 0,-14.143 l -25.456,-25.456 30.98,-25.789 c 4.245,-3.533 4.821,-9.839 1.288,-14.083 -3.531,-4.243 -9.838,-4.822 -14.083,-1.288 l -17.93,14.926 10.395,-45.39 86.309,71.844 -52.269,52.269 H 184.881 Z M 284.73,172.976 h -67.459 v -34.101 h 67.459 z m -50.323,74.42 h 52.354 l 12.331,53.844 z m -17.136,-20.319 v -34.102 h 67.459 v 34.102 z m 0,-108.52 V 84.455 h 67.459 v 34.102 z m 33.73,-90.745 24.86,36.644 H 226.14 Z m -53.73,63.264 v 27.481 h -51.829 z m 0,108.521 v 27.481 h -51.829 z m -30.943,261.383 13.973,-61.016 h 47.043 z m 109.301,-81.016 33.76,-33.76 7.731,33.76 z M 304.73,227.077 v -27.481 l 51.829,27.481 z"
       id="path835"
       style="stroke:#ffffff;stroke-width:16.73340034;stroke-miterlimit:4;stroke-dasharray:none;stroke-opacity:1" />
  </g>
  <g
     style="stroke-width:4.26666689"
     id="g6"
     transform="matrix(0.23904287,0,0,0.23904287,3.9998811,4.0000006)">
    <path
       style="stroke-width:4.26666689"
       id="path2"
       d="m 286.136,410.955 c -3.892,-3.919 -10.224,-3.942 -14.143,-0.053 -3.92,3.891 -3.943,10.223 -0.053,14.143 l 4.963,5 c 1.955,1.969 4.526,2.955 7.098,2.955 2.547,0 5.095,-0.967 7.045,-2.902 3.92,-3.891 3.943,-10.223 0.053,-14.143 z" />
    <path
       style="stroke-width:4.26666689"
       id="path4"
       d="m 347.783,500.499 c 1.551,0.959 3.358,1.503 5.246,1.503 0.739,0 1.49,-0.082 2.241,-0.254 5.384,-1.233 8.748,-6.597 7.516,-11.98 l -55.578,-242.69 h 79.561 v 2.669 h -3.605 c -5.522,0 -10,4.478 -10,10 0,5.522 4.478,10 10,10 h 3.605 v 3.322 h -3.605 c -5.522,0 -10,4.478 -10,10 0,5.522 4.478,10 10,10 h 3.605 v 3.605 c 0,5.522 4.478,10 10,10 5.522,0 10,-4.478 10,-10 v -3.605 h 3.604 c 5.522,0 10,-4.478 10,-10 0,-5.522 -4.478,-10 -10,-10 h -3.604 v -3.322 h 3.604 c 5.522,0 10,-4.478 10,-10 0,-5.522 -4.478,-10 -10,-10 h -3.604 v -12.351 c 0,-0.054 -0.007,-0.106 -0.008,-0.16 0.059,-3.694 -1.933,-7.205 -5.307,-8.993 L 304.732,176.96 v -38.402 h 82.037 v 3.322 h -3.605 c -5.522,0 -10,4.478 -10,10 0,5.522 4.478,10 10,10 h 3.605 v 3.322 h -3.605 c -5.522,0 -10,4.478 -10,10 0,5.522 4.478,10 10,10 h 3.605 v 3.605 c 0,5.522 4.478,10 10,10 5.522,0 10,-4.478 10,-10 v -3.605 h 3.604 c 5.522,0 10,-4.478 10,-10 0,-5.522 -4.478,-10 -10,-10 h -3.604 v -3.322 h 3.604 c 5.522,0 10,-4.478 10,-10 0,-5.522 -4.478,-10 -10,-10 h -3.604 v -12.351 c 0,-0.14 -0.015,-0.277 -0.021,-0.415 0.215,-3.839 -1.8,-7.538 -5.294,-9.391 l -62.76,-33.276 c -4.878,-2.587 -10.932,-0.728 -13.52,4.15 -2.587,4.88 -0.729,10.933 4.15,13.52 l 27.237,14.441 h -51.83 V 74.455 c 0,-0.058 -0.015,-0.116 -0.02,-0.174 -0.033,-1.908 -0.594,-3.803 -1.705,-5.44 L 259.276,4.386 C 257.415,1.643 254.315,0 251.001,0 c -3.314,0 -6.414,1.643 -8.275,4.386 l -42.334,62.398 -99.841,52.937 c -3.495,1.853 -5.509,5.552 -5.294,9.391 -0.006,0.139 -0.021,0.275 -0.021,0.415 v 12.351 H 91.63 c -5.522,0 -10,4.478 -10,10 0,5.522 4.478,10 10,10 h 3.605 V 165.2 H 91.63 c -5.522,0 -10,4.478 -10,10 0,5.522 4.478,10 10,10 h 3.605 v 3.605 c 0,5.522 4.478,10 10,10 5.522,0 10,-4.478 10,-10 V 185.2 h 3.604 c 5.522,0 10,-4.478 10,-10 0,-5.522 -4.478,-10 -10,-10 h -3.604 v -3.322 h 3.604 c 5.522,0 10,-4.478 10,-10 0,-5.522 -4.478,-10 -10,-10 h -3.604 v -3.322 h 82.036 v 38.402 l -96.721,51.283 c -3.374,1.789 -5.366,5.299 -5.307,8.994 -10e-4,0.054 -0.008,0.106 -0.008,0.16 v 12.351 H 91.63 c -5.522,0 -10,4.478 -10,10 0,5.522 4.478,10 10,10 h 3.605 v 3.322 H 91.63 c -5.522,0 -10,4.478 -10,10 0,5.522 4.478,10 10,10 h 3.605 v 3.605 c 0,5.522 4.478,10 10,10 5.522,0 10,-4.478 10,-10 v -3.605 h 3.604 c 5.522,0 10,-4.478 10,-10 0,-5.522 -4.478,-10 -10,-10 h -3.604 v -3.322 h 3.604 c 5.522,0 10,-4.478 10,-10 0,-5.522 -4.478,-10 -10,-10 h -3.604 v -2.669 h 79.56 l -55.578,242.69 c -1.232,5.384 2.132,10.747 7.516,11.98 0.832,0.191 1.66,0.259 2.475,0.24 0.081,0.002 0.162,0.012 0.243,0.012 2.56,0 5.118,-0.977 7.071,-2.929 l 99.107,-99.107 h 66.072 l 14.125,61.679 -22.753,-22.753 c -3.906,-3.904 -10.236,-3.904 -14.143,0 -3.905,3.905 -3.905,10.237 0,14.143 l 46.427,45.361 z m -155.08,-154.691 21.265,21.265 c 1.953,1.952 4.512,2.929 7.071,2.929 2.559,0 5.118,-0.977 7.071,-2.929 3.905,-3.905 3.905,-10.237 0,-14.143 l -25.456,-25.456 30.98,-25.789 c 4.245,-3.533 4.821,-9.839 1.288,-14.083 -3.531,-4.243 -9.838,-4.822 -14.083,-1.288 l -17.93,14.926 10.395,-45.39 86.309,71.844 -52.269,52.269 H 184.881 Z M 284.73,172.976 h -67.459 v -34.101 h 67.459 z m -50.323,74.42 h 52.354 l 12.331,53.844 z m -17.136,-20.319 v -34.102 h 67.459 v 34.102 z m 0,-108.52 V 84.455 h 67.459 v 34.102 z m 33.73,-90.745 24.86,36.644 H 226.14 Z m -53.73,63.264 v 27.481 h -51.829 z m 0,108.521 v 27.481 h -51.829 z m -30.943,261.383 13.973,-61.016 h 47.043 z m 109.301,-81.016 33.76,-33.76 7.731,33.76 z M 304.73,227.077 v -27.481 l 51.829,27.481 z" />
  </g>
</svg>
