<?xml version="1.0" encoding="UTF-8" standalone="no"?>
<svg
   xmlns:dc="http://purl.org/dc/elements/1.1/"
   xmlns:cc="http://creativecommons.org/ns#"
   xmlns:rdf="http://www.w3.org/1999/02/22-rdf-syntax-ns#"
   xmlns:svg="http://www.w3.org/2000/svg"
   xmlns="http://www.w3.org/2000/svg"
   id="svg2"
   height="128"
   width="128"
   version="1.0">
  <metadata
     id="metadata10">
    <rdf:RDF>
      <cc:Work
         rdf:about="">
        <dc:format>image/svg+xml</dc:format>
        <dc:type
           rdf:resource="http://purl.org/dc/dcmitype/StillImage" />
        <cc:license
           rdf:resource="http://web.resource.org/cc/PublicDomain" />
        <dc:language>en</dc:language>
        <dc:title></dc:title>
      </cc:Work>
    </rdf:RDF>
  </metadata>
  <defs
     id="defs4" />
  <path
     style="fill:#aa4400;fill-opacity:1;fill-rule:evenodd;stroke:#ffffff;stroke-width:3.03997755px;stroke-linecap:butt;stroke-linejoin:miter;stroke-miterlimit:4;stroke-dasharray:none;stroke-opacity:1"
     d="m 21.520309,1.52046 h 84.959381 c 11.11992,0 19.99985,8.87994 19.99985,19.99986 v 84.95937 c 0,11.11992 -8.87993,19.99985 -19.99985,19.99985 H 21.52031 c -11.119917,0 -19.999849,-8.87993 -19.999849,-19.99985 V 21.52032 c 0,-11.11992 8.879932,-19.99986 19.999848,-19.99986 z"
     id="path828" />
  <path
     id="path2209"
     style="fill:#ffffff;stroke-width:0.22068949"
     d="m 103.28883,17.152641 h -0.0553 c 0.0634,-0.05474 0.0982,-0.109918 0.0982,-0.165541 0,-1.310415 -17.88814,-2.372742 -39.954673,-2.372742 -22.066314,0 -39.954675,1.062327 -39.954675,2.372742 0,0.05562 0.03487,0.110802 0.09841,0.165541 h -0.09841 l 12.469814,95.114549 h 0.05627 c -0.110329,0.0596 -0.168804,0.12008 -0.168804,0.18122 0,0.90539 12.356006,1.63884 27.597786,1.63884 15.242002,0 27.597786,-0.73345 27.597786,-1.63884 0,-0.0611 -0.05869,-0.12184 -0.168804,-0.18122 z M 82.800038,105.3133 c -0.638807,0.59131 -38.527165,0.31422 -39.165972,-0.27709 L 31.788624,29.9355 c 20.979665,14.546653 34.777632,-1.975663 62.261012,-0.554189 z" />
  <path
     id="path2381"
     d="m 28.502154,26.275909 68.423308,0.554189 -11.080698,82.020042 -46.815947,0.55419 z"
     style="opacity:0.1;fill:#ffffff;fill-opacity:1;fill-rule:evenodd;stroke:none;stroke-width:0.22068949px;stroke-linecap:butt;stroke-linejoin:miter;stroke-opacity:1" />
</svg>
