<?xml version="1.0" encoding="UTF-8" standalone="no"?>
<svg
   xmlns:dc="http://purl.org/dc/elements/1.1/"
   xmlns:cc="http://creativecommons.org/ns#"
   xmlns:rdf="http://www.w3.org/1999/02/22-rdf-syntax-ns#"
   xmlns:svg="http://www.w3.org/2000/svg"
   xmlns="http://www.w3.org/2000/svg"
   id="svg837"
   version="1.1"
   viewBox="0 0 33.866666 33.866668"
   height="128"
   width="128">
  <defs
     id="defs831" />
  <metadata
     id="metadata834">
    <rdf:RDF>
      <cc:Work
         rdf:about="">
        <dc:format>image/svg+xml</dc:format>
        <dc:type
           rdf:resource="http://purl.org/dc/dcmitype/StillImage" />
        <dc:title></dc:title>
      </cc:Work>
    </rdf:RDF>
  </metadata>
  <g
     transform="translate(-3.6701968,-262.64793)"
     id="layer1">
    <path
       transform="matrix(1.796359,0,0,1.796359,-498.39182,-368.50272)"
       d="m 286.21875,355.15625 c -1.44195,-0.0306 -2.77799,1.10242 -2.96875,2.53125 -0.24418,1.39985 0.64709,2.88208 2,3.3125 0.68919,0.23452 1.48603,0.22228 2.15625,-0.0625 0.48904,0.40227 1.06349,0.78336 1.28125,1.40625 0.0862,0.31564 -0.18794,0.55719 -0.4375,0.6875 -0.60976,0.36193 -1.36782,0.76158 -1.5,1.53125 -0.11924,0.73756 0.51764,1.2783 1.0625,1.65625 0.36148,0.24095 0.71492,0.51282 1.09375,0.71875 0.13541,0.0186 0.2096,-0.17748 0.0937,-0.25 -0.52427,-0.38898 -1.12295,-0.81394 -1.3125,-1.46875 -0.0626,-0.27805 0.20266,-0.47397 0.4375,-0.53125 0.77682,-0.23707 1.69417,-0.45637 2.125,-1.21875 0.52128,-0.9517 0.2369,-2.13906 -0.28125,-3.03125 -0.25899,-0.45233 -0.57257,-0.8819 -0.90625,-1.28125 0.48657,-1.29895 -0.0817,-2.86469 -1.28125,-3.5625 -0.46041,-0.28625 -1.04579,-0.43754 -1.5625,-0.4375 z"
       id="path3004-2"
       style="fill:none;fill-opacity:1;stroke:#ffffff;stroke-width:2.22672653;stroke-miterlimit:4;stroke-dasharray:none;stroke-opacity:1" />
    <path
       transform="matrix(1.796359,0,0,1.796359,-498.38499,-368.50371)"
       d="m 286.21875,355.15625 c -1.44195,-0.0306 -2.77799,1.10242 -2.96875,2.53125 -0.24418,1.39985 0.64709,2.88208 2,3.3125 0.68919,0.23452 1.48603,0.22228 2.15625,-0.0625 0.48904,0.40227 1.06349,0.78336 1.28125,1.40625 0.0862,0.31564 -0.18794,0.55719 -0.4375,0.6875 -0.60976,0.36193 -1.36782,0.76158 -1.5,1.53125 -0.11924,0.73756 0.51764,1.2783 1.0625,1.65625 0.36148,0.24095 0.71492,0.51282 1.09375,0.71875 0.13541,0.0186 0.2096,-0.17748 0.0937,-0.25 -0.52427,-0.38898 -1.12295,-0.81394 -1.3125,-1.46875 -0.0626,-0.27805 0.20266,-0.47397 0.4375,-0.53125 0.77682,-0.23707 1.69417,-0.45637 2.125,-1.21875 0.52128,-0.9517 0.2369,-2.13906 -0.28125,-3.03125 -0.25899,-0.45233 -0.57257,-0.8819 -0.90625,-1.28125 0.48657,-1.29895 -0.0817,-2.86469 -1.28125,-3.5625 -0.46041,-0.28625 -1.04579,-0.43754 -1.5625,-0.4375 z"
       id="path3004"
       style="fill:#0092da;fill-opacity:1;stroke:none;stroke-width:0.14728867" />
  </g>
  <path
     style="fill:#0092da;fill-opacity:1;stroke:#ffffff;stroke-width:1.32291668;stroke-linecap:butt;stroke-linejoin:miter;stroke-miterlimit:4;stroke-dasharray:none;stroke-opacity:1"
     d="M 22.489584,2.1166667 23.8125,15.345833 h 6.614584 L 31.75,2.1166667 Z"
     id="path3717" />
</svg>
