<?xml version="1.0" encoding="UTF-8" standalone="no"?>
<svg
   xmlns:dc="http://purl.org/dc/elements/1.1/"
   xmlns:cc="http://creativecommons.org/ns#"
   xmlns:rdf="http://www.w3.org/1999/02/22-rdf-syntax-ns#"
   xmlns:svg="http://www.w3.org/2000/svg"
   xmlns="http://www.w3.org/2000/svg"
   version="1.0"
   width="128"
   height="128"
   id="svg2">
  <defs
     id="defs22">
    <marker
       viewBox="0 0 10 10"
       refY="5"
       refX="10"
       orient="auto"
       markerWidth="4"
       markerUnits="strokeWidth"
       markerHeight="3"
       id="ArrowStart">
      <path
         id="path3568"
         d="M 10,0 0,5 10,10 Z" />
    </marker>
    <marker
       viewBox="0 0 10 10"
       refY="5"
       refX="0"
       orient="auto"
       markerWidth="4"
       markerUnits="strokeWidth"
       markerHeight="3"
       id="ArrowEnd">
      <path
         id="path3565"
         d="M 0,0 10,5 0,10 Z" />
    </marker>
    <pattern
       id="EMFhbasepattern"
       patternUnits="userSpaceOnUse"
       width="6"
       height="6"
       x="0"
       y="0" />
  </defs>
  <metadata
     id="metadata10">
    <rdf:RDF>
      <cc:Work
         rdf:about="">
        <dc:format>image/svg+xml</dc:format>
        <dc:type
           rdf:resource="http://purl.org/dc/dcmitype/StillImage" />
        <cc:license
           rdf:resource="http://web.resource.org/cc/PublicDomain" />
        <dc:language>en</dc:language>
        <dc:title></dc:title>
      </cc:Work>
    </rdf:RDF>
  </metadata>
  <path
     style="fill:#ffffff;fill-opacity:1;fill-rule:nonzero;stroke:none;stroke-width:5.99995565px;stroke-linecap:butt;stroke-linejoin:miter;stroke-miterlimit:4;stroke-dasharray:none;stroke-opacity:1"
     d="m 125.03954,64.000005 c 0,33.67975 -27.359785,61.039535 -61.039535,61.039535 -33.67976,0 -61.03955,-27.359785 -61.03955,-61.039535 0,-33.67976 27.35979,-61.03955 61.03955,-61.03955 33.67975,0 61.039535,27.35979 61.039535,61.03955 z"
     id="path867" />
  <g
     id="g2319"
     transform="translate(879.29125,-415.19488)">
    <path
       id="path2323"
       style="fill:#ffffff;stroke:none"
       d="" />
  </g>
  <g
     id="g2325"
     transform="translate(879.29125,-415.19488)">
    <path
       id="path2329"
       style="fill:#ffffff;stroke:none"
       d="" />
  </g>
  <g
     id="g3574"
     transform="matrix(0.23133224,0,0,0.23133224,-6.7324853,-12.85065)"
     style="fill:#0092da;fill-opacity:1;stroke-width:1.33110738">
    <g
       id="g3576"
       style="fill:#0092da;fill-opacity:1;stroke-width:1.33110738">
      <path
         style="fill:#0092da;fill-opacity:1;stroke:none;stroke-width:1.33110738"
         d="M 295.5625,77.1875 213.03125,77.25 c -38.43866,-1.1e-5 -66.71875,30.86801 -66.71875,64.5 v 238.21875 c 3e-5,32.58264 25.49108,59.30702 51.125,63.4375 l -76.875,115.3125 h 44.375 L 219.90625,478.125 h 75.28125 0.0625 0.0625 75.28125 l 54.96875,80.59375 h 44.375 l -76.875,-115.3125 c 25.63388,-4.1305 51.15625,-30.85484 51.15625,-63.4375 V 141.75 c -4e-5,-33.63196 -28.31137,-64.5 -66.75,-64.5 z M 262.875,91 h 32.3125 0.0625 0.0625 32.3125 c 5.84817,0 10.9375,4.90183 10.9375,10.75 v 18.9375 c 0,5.84817 -4.81084,10.875 -10.9375,10.875 H 295.3125 295.25 295.1875 262.875 c -6.12665,0 -10.9375,-5.02683 -10.9375,-10.875 V 101.75 c 0,-5.84817 5.08932,-10.749997 10.9375,-10.75 z m -47.625,53.40625 h 79.9375 0.125 79.9375 c 21.72176,1e-5 33.25001,15.552 33.25,33.375 v 42.875 c 0.16931,20.60784 -14.87004,33.25 -33.25,33.25 H 295.3125 295.25 295.1875 215.25 c -18.37997,0 -33.41932,-12.64216 -33.25,-33.25 v -42.875 c -1e-5,-17.823 11.52822,-33.375 33.25,-33.375 z m -3.625,205.75 c 16.15766,-3e-5 29.28125,13.09234 29.28125,29.25 0,16.1565 -13.12359,29.25 -29.28125,29.25 -16.15769,-2e-5 -29.25,-13.09346 -29.25,-29.25 -4e-5,-16.1577 13.09234,-29.25 29.25,-29.25 z m 166.5625,0 c 16.15764,-2e-5 29.25,13.09233 29.25,29.25 -2e-5,16.15652 -13.09233,29.25001 -29.25,29.25 -16.15768,-2e-5 -29.25001,-13.09347 -29.25,-29.25 -2e-5,-16.15768 13.09235,-29.25 29.25,-29.25 z"
         transform="matrix(0.8977168,0,0,0.8977168,40.710583,46.777129)"
         id="path3578" />
    </g>
    <g
       id="g3584"
       style="fill:#0092da;fill-opacity:1;stroke-width:1.33110738" />
  </g>
</svg>
