<?xml version="1.0" encoding="UTF-8" standalone="no"?>
<svg
   xmlns:dc="http://purl.org/dc/elements/1.1/"
   xmlns:cc="http://creativecommons.org/ns#"
   xmlns:rdf="http://www.w3.org/1999/02/22-rdf-syntax-ns#"
   xmlns:svg="http://www.w3.org/2000/svg"
   xmlns="http://www.w3.org/2000/svg"
   version="1.0"
   width="128"
   height="128"
   id="svg2">
  <metadata
     id="metadata2975">
    <rdf:RDF>
      <cc:Work
         rdf:about="">
        <dc:format>image/svg+xml</dc:format>
        <dc:type
           rdf:resource="http://purl.org/dc/dcmitype/StillImage" />
        <cc:license
           rdf:resource="http://web.resource.org/cc/PublicDomain" />
        <dc:language>en</dc:language>
        <dc:title></dc:title>
      </cc:Work>
    </rdf:RDF>
  </metadata>
  <defs
     id="defs4">
    <symbol
       viewBox="244.5 110 489 219.9"
       id="symbol-university">
      <path
         id="path4460"
         d="m 79,43 57,119 c 0,0 21,-96 104,-96 83,0 124,106 124,106 L 407,39 489,22 0,17 Z" />
      <path
         id="path4462"
         d="M 94,176 73,215"
         style="fill:none;stroke:#000000;stroke-width:20" />
      <path
         id="path4464"
         d="M 300,19 C 300,29.5 277.4,38 249.5,38 221.6,38 199,29.5 199,19 199,8.5 221.6,0 249.5,0 277.4,0 300,8.5 300,19 Z" />
      <path
         id="path4466"
         d="M 112,216 96,178 64,88 C 64,88 55,80 60,53 65,26 76,29 76,29"
         ill="none"
         style="stroke:#000000;stroke-width:20" />
    </symbol>
    <marker
       style="overflow:visible"
       id="Arrow2Lend"
       refX="0"
       refY="0"
       orient="auto">
      <path
         transform="matrix(-1.1,0,0,-1.1,-1.1,0)"
         d="M 8.7185878,4.0337352 -2.2072895,0.01601326 8.7185884,-4.0017078 c -1.7454984,2.3720609 -1.7354408,5.6174519 -6e-7,8.035443 z"
         style="font-size:12px;fill-rule:evenodd;stroke-width:0.625;stroke-linejoin:round"
         id="path4137" />
    </marker>
    <marker
       style="overflow:visible"
       id="Arrow1Mend"
       refX="0"
       refY="0"
       orient="auto">
      <path
         transform="matrix(-0.4,0,0,-0.4,-4,0)"
         style="fill-rule:evenodd;stroke:#000000;stroke-width:1.00000003pt;marker-start:none"
         d="M 0,0 5,-5 -12.5,0 5,5 Z"
         id="path4125" />
    </marker>
    <marker
       style="overflow:visible"
       id="TriangleOutL"
       refX="0"
       refY="0"
       orient="auto">
      <path
         transform="scale(0.8)"
         style="fill-rule:evenodd;stroke:#000000;stroke-width:1.00000003pt;marker-start:none"
         d="M 5.77,0 -2.88,5 V -5 Z"
         id="path4214" />
    </marker>
    <marker
       style="overflow:visible"
       id="Arrow1Lend"
       refX="0"
       refY="0"
       orient="auto">
      <path
         transform="matrix(-0.8,0,0,-0.8,-10,0)"
         style="fill-rule:evenodd;stroke:#000000;stroke-width:1.00000003pt;marker-start:none"
         d="M 0,0 5,-5 -12.5,0 5,5 Z"
         id="path4119" />
    </marker>
    <marker
       style="overflow:visible"
       id="Tail"
       refX="0"
       refY="0"
       orient="auto">
      <g
         transform="scale(-1.2)"
         id="g4152">
        <path
           style="fill:none;fill-rule:evenodd;stroke:#000000;stroke-width:0.80000001;stroke-linecap:round;marker-start:none;marker-end:none"
           d="M -3.8048674,-3.9585227 0.54352094,0"
           id="path4154" />
        <path
           style="fill:none;fill-rule:evenodd;stroke:#000000;stroke-width:0.80000001;stroke-linecap:round;marker-start:none;marker-end:none"
           d="M -1.2866832,-3.9585227 3.0617053,0"
           id="path4156" />
        <path
           style="fill:none;fill-rule:evenodd;stroke:#000000;stroke-width:0.80000001;stroke-linecap:round;marker-start:none;marker-end:none"
           d="M 1.3053582,-3.9585227 5.6537466,0"
           id="path4158" />
        <path
           style="fill:none;fill-rule:evenodd;stroke:#000000;stroke-width:0.80000001;stroke-linecap:round;marker-start:none;marker-end:none"
           d="M -3.8048674,4.1775838 0.54352094,0.21974226"
           id="path4160" />
        <path
           style="fill:none;fill-rule:evenodd;stroke:#000000;stroke-width:0.80000001;stroke-linecap:round;marker-start:none;marker-end:none"
           d="M -1.2866832,4.1775838 3.0617053,0.21974226"
           id="path4162" />
        <path
           style="fill:none;fill-rule:evenodd;stroke:#000000;stroke-width:0.80000001;stroke-linecap:round;marker-start:none;marker-end:none"
           d="M 1.3053582,4.1775838 5.6537466,0.21974226"
           id="path4164" />
      </g>
    </marker>
    <marker
       style="overflow:visible"
       id="Arrow1Sstart"
       refX="0"
       refY="0"
       orient="auto">
      <path
         transform="matrix(0.2,0,0,0.2,1.2,0)"
         style="fill-rule:evenodd;stroke:#000000;stroke-width:1.00000003pt;marker-start:none"
         d="M 0,0 5,-5 -12.5,0 5,5 Z"
         id="path4128" />
    </marker>
    <marker
       style="overflow:visible"
       id="Arrow1Send"
       refX="0"
       refY="0"
       orient="auto">
      <path
         transform="matrix(-0.2,0,0,-0.2,-1.2,0)"
         style="fill-rule:evenodd;stroke:#000000;stroke-width:1.00000003pt;marker-start:none"
         d="M 0,0 5,-5 -12.5,0 5,5 Z"
         id="path4131" />
    </marker>
    <marker
       style="overflow:visible"
       id="SemiCircleOut"
       refX="0"
       refY="0"
       orient="auto">
      <path
         transform="matrix(0.6,0,0,0.6,4.2752958,0.4580676)"
         style="fill-rule:evenodd;stroke:#000000;stroke-width:1.00000003pt;marker-start:none;marker-end:none"
         d="m -2.5,-0.80913858 c 0,2.75999998 -2.24,4.99999998 -5,4.99999998 v -10 c 2.76,0 5,2.24 5,5.00000002 z"
         id="path4235" />
    </marker>
    <marker
       style="overflow:visible"
       id="Arrow2Send"
       refX="0"
       refY="0"
       orient="auto">
      <path
         transform="matrix(-0.3,0,0,-0.3,0.69,0)"
         d="M 8.7185878,4.0337352 -2.2072895,0.01601326 8.7185884,-4.0017078 c -1.7454984,2.3720609 -1.7354408,5.6174519 -6e-7,8.035443 z"
         style="font-size:12px;fill-rule:evenodd;stroke-width:0.625;stroke-linejoin:round"
         id="path4149" />
    </marker>
    <marker
       style="overflow:visible"
       id="TriangleOutS"
       refX="0"
       refY="0"
       orient="auto">
      <path
         transform="scale(0.2)"
         style="fill-rule:evenodd;stroke:#000000;stroke-width:1.00000003pt;marker-start:none"
         d="M 5.77,0 -2.88,5 V -5 Z"
         id="path4220" />
    </marker>
    <marker
       style="overflow:visible"
       id="CurveIn"
       refX="0"
       refY="0"
       orient="auto">
      <path
         transform="scale(0.6)"
         style="fill:none;fill-rule:evenodd;stroke:#000000;stroke-width:1.00000003pt;marker-start:none;marker-end:none"
         d="m 4.625493,-5.0456926 c -2.76,0 -5.00000002,2.24 -5.00000002,5.00000002 0,2.75999998 2.24000002,4.99999998 5.00000002,4.99999998"
         id="path4238" />
    </marker>
    <marker
       orient="auto"
       refY="0"
       refX="0"
       id="InfiniteLineStart"
       style="overflow:visible">
      <g
         transform="translate(-13)"
         id="g4298">
        <circle
           cx="3"
           cy="0"
           r="0.80000001"
           id="circle4300" />
        <circle
           cx="6.5"
           cy="0"
           r="0.80000001"
           id="circle4302" />
        <circle
           cx="10"
           cy="0"
           r="0.80000001"
           id="circle4304" />
      </g>
    </marker>
    <marker
       style="overflow:visible"
       id="StopS"
       refX="0"
       refY="0"
       orient="auto">
      <path
         transform="scale(0.2)"
         style="fill:none;fill-opacity:0.75;fill-rule:evenodd;stroke:#000000;stroke-width:1.00000003pt"
         d="M 0,5.65 V -5.65"
         id="path4229" />
    </marker>
    <marker
       style="overflow:visible"
       id="Arrow2Sstart"
       refX="0"
       refY="0"
       orient="auto">
      <path
         transform="matrix(0.3,0,0,0.3,-0.69,0)"
         d="M 8.7185878,4.0337352 -2.2072895,0.01601326 8.7185884,-4.0017078 c -1.7454984,2.3720609 -1.7354408,5.6174519 -6e-7,8.035443 z"
         style="font-size:12px;fill-rule:evenodd;stroke-width:0.625;stroke-linejoin:round"
         id="path4146" />
    </marker>
    <marker
       style="overflow:visible"
       id="DiamondS"
       refX="0"
       refY="0"
       orient="auto">
      <path
         transform="scale(0.2)"
         style="fill-rule:evenodd;stroke:#000000;stroke-width:1.00000003pt;marker-start:none"
         d="M 0,-7.0710768 -7.0710894,0 0,7.0710589 7.0710462,0 Z"
         id="path4202" />
    </marker>
    <marker
       orient="auto"
       refY="0"
       refX="0"
       id="RazorWire">
       style=&quot;overflow:visible&quot;&gt;
      <path
   d="m 0.02272727,-0.74009011 v 1.4375 L -7.7585227,3.0099099 H 10.678977 L 3.4914773,0.69740989 v -1.4375 L 10.741477,-2.8963401 H -7.7272727 Z"
   style="fill:#808080;fill-opacity:1;fill-rule:evenodd;stroke:#000000;stroke-width:0.10000001pt"
   transform="scale(0.8)"
   id="path4286" />
</marker>
  </defs>
  <path
     style="fill:#550000;fill-opacity:1;fill-rule:evenodd;stroke:#ffffff;stroke-width:3.03997755px;stroke-linecap:butt;stroke-linejoin:miter;stroke-miterlimit:4;stroke-dasharray:none;stroke-opacity:1"
     d="m 21.520307,1.520459 h 84.959383 c 11.11992,0 19.99985,8.87994 19.99985,19.999862 v 84.959369 c 0,11.11992 -8.87993,19.99985 -19.99985,19.99985 H 21.520307 c -11.11992,0 -19.9998495,-8.87993 -19.9998495,-19.99985 V 21.520321 c 0,-11.119922 8.8799295,-19.999862 19.9998495,-19.999862 z"
     id="path828" />
  <g
     id="layer3"
     style="display:none;stroke:#757575;stroke-opacity:1"
     transform="matrix(48.14969,0,0,48.14969,-536.27327,-485.30675)">
    <rect
       style="display:inline;fill:none;stroke:#757575;stroke-width:0.1;stroke-miterlimit:4;stroke-dasharray:none;stroke-opacity:1"
       id="rect4134"
       width="10"
       height="10"
       x="1"
       y="1" />
    <rect
       style="display:inline;fill:none;stroke:#757575;stroke-width:0.1;stroke-miterlimit:4;stroke-dasharray:none;stroke-opacity:1"
       id="rect4136"
       width="8"
       height="8"
       x="2"
       y="2" />
  </g>
  <path
     id="path6"
     style="fill:#ffffff;fill-opacity:1;stroke:none;stroke-width:0.20313281"
     d="m 25.394078,83.829574 c 1.149519,0.337322 3.972892,0.0535 3.005188,-1.844294 -0.536919,-1.053083 -3.0631,-2.378779 -4.178932,-2.693209 -1.681392,-0.47398 -4.506361,1.583126 -2.347492,2.902283 l -0.469498,1.401616 c -1.807895,-0.859657 -2.323147,-3.490493 -2.175959,-5.372866 0.103501,-1.323828 1.304689,-2.719839 1.780549,-3.971249 1.299993,-3.418778 2.367749,-6.778687 3.37886,-10.278527 0.404168,-1.399048 0.523889,-4.046703 1.746133,-4.969201 1.145224,-0.864565 2.903988,-0.990478 4.189943,-1.62728 0.947916,-0.469541 1.567185,-1.43549 2.5867,-1.749217 2.189036,-0.673477 4.345675,-0.49991 5.395708,-2.867243 2.216971,3.330478 4.067732,6.433891 4.435584,10.51213 0.26151,2.899246 -1.727284,5.871844 -2.398666,8.643308 -0.469265,1.93727 -0.324659,3.910512 -0.835942,5.840074 -0.637814,2.40611 -1.881748,4.630008 -2.488575,7.008088 -0.366208,1.434553 -0.03803,3.066738 -0.488043,4.438221 -0.805424,2.454933 -5.403455,3.921959 -4.856724,7.007151 0.252591,1.42568 1.923066,1.706003 3.11113,1.948016 2.758772,0.561815 5.728581,0.215149 8.450966,-0.209074 0.906603,-0.141332 2.007339,0.03317 2.715108,-0.671142 1.708738,-1.700163 -0.310103,-4.912903 0.243436,-6.906704 0.396492,-1.428949 1.754749,-2.674052 2.46416,-3.971248 1.542301,-2.820989 2.848211,-5.792653 3.732511,-8.876911 h 0.23475 c 0.05634,2.71867 0.715748,6.126001 1.763903,8.643308 0.661757,1.589434 2.3658,3.869865 2.319322,5.606468 -0.07982,2.976101 -4.611177,4.922714 -2.43787,8.405258 2.186453,3.50335 7.354219,-0.0213 10.092097,-0.637728 1.500986,-0.33802 3.513724,0.10442 4.250366,-1.703898 1.016933,-2.495815 -1.047215,-4.861743 -1.39347,-7.231646 -0.396491,-2.712129 0.115497,-5.440846 -0.383815,-8.176101 -0.365268,-2.001743 -2.002644,-4.330998 -1.947712,-6.307279 0.0385,-1.390636 1.030548,-3.037305 1.352624,-4.438455 l 8.920465,4.168644 3.755986,2.138634 c 0.01644,1.985624 -0.03826,4.358096 0.31198,6.30728 0.167376,0.930906 1.045807,1.871392 0.777959,2.833603 -0.522317,1.874896 -5.133963,3.798615 -4.096137,5.785175 0.57044,1.091861 2.145138,1.465858 3.240944,1.746182 2.775206,0.710153 10.046089,1.777017 12.086291,-0.812471 0.89909,-1.14115 0.824439,-3.039875 0.82491,-4.413225 0.0014,-3.461529 0.368086,-7.128862 -0.4695,-10.512131 3.020753,1.853639 3.707629,5.578669 5.22176,8.643307 0.52443,1.061492 1.617186,2.744834 1.259661,3.967744 -0.551658,1.88611 -6.206059,4.831143 -3.589782,7.377647 0.725376,0.70619 2.043961,0.75875 2.97709,1.0414 2.700085,0.817608 10.895875,2.151948 12.172205,-1.410959 1.19277,-3.329775 0.8883,-9.209794 0.0582,-12.611052 -0.48851,-2.001743 -1.62328,-3.738113 -1.82165,-5.840074 -0.18239,-1.933998 1.16388,-3.891356 1.30756,-5.840072 0.19976,-2.71283 -0.64299,-5.095114 -0.72679,-7.708897 -0.0538,-1.681473 0.51316,-3.412937 0.51316,-5.139264 2.57849,6.801351 -0.12066,14.119194 1.75616,21.024263 0.27325,1.005193 0.38006,6.705805 2.40335,6.131608 0.75871,-0.215147 0.98313,-1.524258 0.83079,-2.160358 -0.66434,-2.775669 -1.86767,-5.229668 -1.87423,-8.176103 -0.004,-1.465156 0.66949,-2.975164 0.83405,-4.438454 0.97164,-8.641441 2.32871,-20.658908 -5.12481,-26.995386 -3.32357,-2.825424 -6.92369,-4.889119 -10.562765,-7.228513 -2.847741,-1.830676 -5.762152,-3.967954 -9.155215,-4.696586 -2.48881,-0.534438 -5.217063,0.255399 -7.746718,0.133038 -5.515665,-0.266823 -10.933438,-1.305725 -16.432437,-1.819791 -2.502423,-0.233952 -4.98114,0.246171 -7.511968,-0.227482 -5.437964,-1.017737 -9.459919,-5.107004 -14.789193,-6.444451 -1.68808,-0.423606 -4.613522,-0.133316 -6.338224,0.168171 -1.628691,0.284738 -2.491157,1.420024 -3.759509,2.318719 -3.683258,2.610046 -8.513667,6.795392 -10.553119,10.919676 -1.251964,2.531788 -1.386193,5.915219 -2.189363,8.643491 -1.170671,3.976622 -3.394614,7.28514 -4.052874,11.446541 -0.689388,4.358331 0.366726,8.936481 0.366444,13.315366 -2.04e-4,3.291931 -1.850739,7.318779 -0.672909,10.512131 1.646437,4.463917 10.386638,5.938887 11.001867,0 z" />
</svg>
